<svg width="57" height="64" viewBox="0 0 57 64" xmlns="http://www.w3.org/2000/svg">
<path d="M34.6276 32.01L12.3976 9.65799C13.5474 7.22997 13.15 4.24494 11.1484 2.24539C8.62163 -0.296885 4.50494 -0.296885 1.97816 2.24539C-0.548627 4.78767 -0.548627 8.92958 1.97816 11.4719C3.24155 12.743 4.90243 13.3857 6.5633 13.3857C7.51439 13.3857 8.46547 13.1429 9.34559 12.7287L28.5236 32.0243L9.3598 51.3199C8.49387 50.9057 7.55697 50.6629 6.57748 50.6629C4.84564 50.6629 3.21317 51.3485 1.99237 52.5768C-0.534418 55.1191 -0.534418 59.261 1.99237 61.8032C3.25576 63.0744 4.91662 63.7171 6.57748 63.7171C8.23835 63.7171 9.89921 63.0744 11.1626 61.8032C13.15 59.8037 13.5474 56.8187 12.4118 54.3906L34.6276 32.0386V32.01ZM5.03019 8.40114C4.17846 7.54419 4.17846 6.15878 5.03019 5.30184C5.45605 4.87336 6.00967 4.65913 6.5633 4.65913C7.11692 4.65913 7.68471 4.87336 8.09638 5.30184C8.94811 6.15878 8.94811 7.54419 8.09638 8.40114C7.24466 9.25809 5.8677 9.25809 5.01598 8.40114H5.03019ZM8.11059 58.7182C7.25887 59.5752 5.88191 59.5752 5.03019 58.7182C4.17846 57.8613 4.17846 56.4759 5.03019 55.6189C5.44185 55.2047 5.98128 54.9762 6.5633 54.9762C7.14531 54.9762 7.68471 55.2047 8.09638 55.6189C8.94811 56.4759 8.94811 57.8613 8.09638 58.7182H8.11059Z"/>
<path d="M56.0201 32.01L33.7901 9.65799C34.9399 7.22997 34.5425 4.24494 32.5409 2.24539C30.0141 -0.296885 25.8975 -0.296885 23.3707 2.24539C20.8439 4.78767 20.8439 8.92958 23.3707 11.4719C24.6341 12.743 26.2949 13.3857 27.9558 13.3857C28.9069 13.3857 29.858 13.1429 30.7381 12.7287L49.9161 32.0243L30.7523 51.3199C29.8864 50.9057 28.9495 50.6629 27.97 50.6629C26.2381 50.6629 24.6057 51.3485 23.3849 52.5768C20.8581 55.1191 20.8581 59.261 23.3849 61.8032C24.6483 63.0744 26.3091 63.7171 27.97 63.7171C29.6308 63.7171 31.2917 63.0744 32.5551 61.8032C34.5425 59.8037 34.9399 56.8187 33.8043 54.3906L56.0201 32.0386V32.01ZM26.4369 8.40114C25.5852 7.54419 25.5852 6.15878 26.4369 5.30184C26.8628 4.87336 27.4164 4.65913 27.97 4.65913C28.5236 4.65913 29.0914 4.87336 29.5031 5.30184C30.3548 6.15878 30.3548 7.54419 29.5031 8.40114C28.6514 9.25809 27.2744 9.25809 26.4227 8.40114H26.4369ZM29.5031 58.7182C28.6514 59.5752 27.2744 59.5752 26.4227 58.7182C25.571 57.8613 25.571 56.4759 26.4227 55.6189C26.8343 55.2047 27.3738 54.9762 27.9558 54.9762C28.5378 54.9762 29.0772 55.2047 29.4889 55.6189C30.3406 56.4759 30.3406 57.8613 29.4889 58.7182H29.5031Z"/>
</svg>
