<svg width="1303" height="808" viewBox="0 0 1303 808" fill="none" xmlns="http://www.w3.org/2000/svg">
<path d="M1271.31 39.9624L1227.34 39.9634C1226.09 36.6139 1222.77 34.1943 1218.83 34.1922L1218.83 34.1932C1213.82 34.1932 1209.75 38.0691 1209.75 42.834C1209.75 47.5957 1213.82 51.4715 1218.83 51.4737C1221.33 51.4737 1223.6 50.505 1225.24 48.9411C1226.19 48.0402 1226.89 46.9283 1227.35 45.7046L1265.28 45.7056L1265.28 81.8175C1264.02 82.2416 1262.85 82.9003 1261.88 83.8281C1260.16 85.4598 1259.22 87.6307 1259.22 89.9373C1259.22 94.7011 1263.29 98.577 1268.29 98.5781C1270.79 98.578 1273.06 97.6094 1274.71 96.0455C1276.35 94.4815 1277.37 92.3203 1277.37 89.9373C1277.37 86.1852 1274.83 83.0165 1271.31 81.8261L1271.31 39.9634L1271.31 39.9624ZM1218.83 45.7325C1217.15 45.7336 1215.78 44.4334 1215.78 42.834C1215.78 42.0343 1216.12 41.3099 1216.67 40.7836C1217.23 40.2573 1217.99 39.9344 1218.83 39.9333C1220.51 39.9344 1221.87 41.2357 1221.87 42.8329C1221.87 44.4302 1220.51 45.7358 1218.83 45.7315L1218.83 45.7325ZM1271.34 89.9373C1271.34 91.5346 1269.97 92.8391 1268.29 92.8358C1266.61 92.8369 1265.25 91.5367 1265.25 89.9362C1265.25 89.1623 1265.56 88.4358 1266.14 87.889C1266.71 87.3423 1267.48 87.0398 1268.29 87.0387L1268.29 87.0377C1269.97 87.0387 1271.34 88.339 1271.34 89.9373Z" fill="#68C4D7"/>
<path d="M35.1483 771.493L79.1101 771.492C80.3602 774.841 83.6879 777.261 87.6282 777.263L87.6293 777.262C92.6344 777.262 96.7024 773.386 96.7036 768.621C96.7013 763.859 92.631 759.984 87.6282 759.981C85.1279 759.981 82.8582 760.95 81.2159 762.514C80.2698 763.415 79.5656 764.527 79.1078 765.751L41.1775 765.749L41.1763 729.638C42.4378 729.214 43.6043 728.555 44.5786 727.627C46.2922 725.995 47.236 723.824 47.2349 721.518C47.2349 716.754 43.1646 712.878 38.1606 712.877C35.6603 712.877 33.3907 713.846 31.7483 715.41C30.1059 716.974 29.0864 719.135 29.0864 721.518C29.0886 725.27 31.6296 728.439 35.1472 729.629L35.1472 771.492L35.1483 771.493ZM87.6282 765.723C89.309 765.721 90.6744 767.022 90.6744 768.621C90.6756 769.421 90.3331 770.145 89.7803 770.671C89.2276 771.198 88.468 771.521 87.6282 771.522C85.9497 771.521 84.5854 770.219 84.5831 768.622C84.5831 767.025 85.9497 765.719 87.6271 765.724L87.6282 765.723ZM35.1178 721.518C35.1178 719.921 36.4855 718.616 38.1618 718.619C39.8425 718.618 41.208 719.918 41.2069 721.519C41.208 722.293 40.8904 723.019 40.3162 723.566C39.7419 724.113 38.9767 724.415 38.164 724.416L38.1629 724.417C36.4844 724.416 35.1189 723.116 35.1178 721.518Z" fill="#68C4D7"/>
<path d="M31.1463 31.9643L31.1474 73.8259C27.6299 75.0163 25.0889 78.185 25.0866 81.9371L25.0878 81.9382C25.0878 86.7042 29.1581 90.5779 34.162 90.5789C39.1626 90.5768 43.2329 86.7009 43.2351 81.9371C43.2351 79.5563 42.2178 77.395 40.5755 75.8311C39.6294 74.9302 38.4618 74.2597 37.1766 73.8237L37.1777 37.7054L75.1013 37.7044C75.5466 38.9055 76.2384 40.0163 77.2127 40.9441C78.9263 42.5758 81.2062 43.4746 83.6285 43.4735C88.6313 43.4735 92.7016 39.5976 92.7027 34.8327C92.7027 32.4519 91.6854 30.2906 90.043 28.7267C88.4007 27.1628 86.131 26.192 83.6284 26.192C79.6881 26.1941 76.3605 28.6137 75.1103 31.9632L31.1474 31.9632L31.1463 31.9643ZM37.206 81.9371C37.2071 83.5376 35.8417 84.8378 34.162 84.8378C33.3222 84.8389 32.5615 84.5127 32.0087 83.9864C31.456 83.4601 31.1169 82.7368 31.1158 81.9371C31.1169 80.3388 32.4835 79.0396 34.1609 79.0375C35.8383 79.0375 37.2094 80.3388 37.2049 81.936L37.206 81.9371ZM83.6285 31.9352C85.3059 31.9352 86.6758 33.2376 86.6724 34.8338C86.6736 36.4343 85.3081 37.7345 83.6273 37.7334C82.8146 37.7345 82.0516 37.432 81.4774 36.8853C80.9032 36.3385 80.5856 35.6098 80.5845 34.8359L80.5834 34.8349C80.5845 33.2365 81.9499 31.9363 83.6285 31.9352Z" fill="#68C4D7"/>
<path d="M1271.69 775.491L1271.68 733.629C1275.2 732.439 1277.74 729.27 1277.75 725.518L1277.74 725.517C1277.74 720.751 1273.67 716.877 1268.67 716.876C1263.67 716.878 1259.6 720.754 1259.6 725.518C1259.6 727.899 1260.61 730.06 1262.26 731.624C1263.2 732.525 1264.37 733.195 1265.66 733.631L1265.65 769.75L1227.73 769.751C1227.29 768.55 1226.59 767.439 1225.62 766.511C1223.91 764.879 1221.63 763.981 1219.2 763.982C1214.2 763.982 1210.13 767.857 1210.13 772.622C1210.13 775.003 1211.15 777.164 1212.79 778.728C1214.43 780.292 1216.7 781.263 1219.2 781.263C1223.14 781.261 1226.47 778.841 1227.72 775.492L1271.68 775.492L1271.69 775.491ZM1265.63 725.518C1265.63 723.917 1266.99 722.617 1268.67 722.617C1269.51 722.616 1270.27 722.942 1270.82 723.469C1271.38 723.995 1271.72 724.718 1271.72 725.518C1271.72 727.116 1270.35 728.415 1268.67 728.418C1266.99 728.418 1265.62 727.116 1265.63 725.519L1265.63 725.518ZM1219.2 775.52C1217.53 775.52 1216.16 774.217 1216.16 772.621C1216.16 771.021 1217.52 769.721 1219.21 769.722C1220.02 769.721 1220.78 770.023 1221.35 770.57C1221.93 771.117 1222.25 771.845 1222.25 772.619L1222.25 772.62C1222.25 774.219 1220.88 775.519 1219.2 775.52Z" fill="#68C4D7"/>
</svg>
