<svg width="43" height="43" viewBox="0 0 43 43" fill="none" xmlns="http://www.w3.org/2000/svg">
<g clip-path="url(#clip0_1_5)">
<path d="M37.1364 0H5.86364C2.62524 0 0 2.62524 0 5.86364V37.1364C0 40.3748 2.62524 43 5.86364 43H37.1364C40.3748 43 43 40.3748 43 37.1364V5.86364C43 2.62524 40.3748 0 37.1364 0Z" fill="#3A559F"/>
<path d="M28.3116 18.9542L27.8792 22.6996C27.8612 22.8705 27.7811 23.0289 27.6541 23.1446C27.5271 23.2604 27.362 23.3254 27.1902 23.3275H23.2811L23.2616 34.4318C23.2629 34.5633 23.2124 34.6902 23.1209 34.7848C23.0295 34.8794 22.9045 34.9343 22.7729 34.9375H18.8125C18.7467 34.9376 18.6815 34.9243 18.6209 34.8985C18.5603 34.8728 18.5055 34.835 18.4599 34.7875C18.4143 34.7401 18.3787 34.6839 18.3553 34.6223C18.3319 34.5608 18.3212 34.4951 18.3239 34.4293V23.3275H15.3921C15.3 23.3265 15.209 23.3075 15.1243 23.2713C15.0396 23.2352 14.9628 23.1827 14.8984 23.117C14.8339 23.0512 14.7831 22.9733 14.7488 22.8879C14.7144 22.8024 14.6972 22.7111 14.6982 22.619L14.6835 18.8736C14.6822 18.7812 14.6992 18.6894 14.7333 18.6036C14.7675 18.5177 14.8183 18.4394 14.8827 18.3732C14.9471 18.3069 15.024 18.254 15.1089 18.2175C15.1938 18.1809 15.285 18.1614 15.3774 18.1602H18.3239V14.5443C18.3239 10.3469 20.8159 8.0625 24.4709 8.0625H27.4663C27.5589 8.06346 27.6504 8.08269 27.7356 8.11909C27.8207 8.15549 27.8979 8.20835 27.9626 8.27463C28.0272 8.34091 28.0782 8.4193 28.1125 8.50533C28.1469 8.59135 28.1639 8.6833 28.1626 8.77591V11.9276C28.1639 12.0202 28.1469 12.1122 28.1125 12.1982C28.0782 12.2842 28.0272 12.3626 27.9626 12.4289C27.8979 12.4952 27.8207 12.548 27.7356 12.5844C27.6504 12.6208 27.5589 12.6401 27.4663 12.641H25.629C23.6427 12.641 23.2567 13.6183 23.2567 15.0305V18.1602H27.6226C27.7219 18.1614 27.8198 18.1837 27.9099 18.2254C28 18.2672 28.0802 18.3276 28.1453 18.4026C28.2103 18.4776 28.2588 18.5655 28.2875 18.6606C28.3162 18.7557 28.3244 18.8557 28.3116 18.9542Z" fill="white"/>
</g>
<defs>
<clipPath id="clip0_1_5">
<rect width="43" height="43" fill="white"/>
</clipPath>
</defs>
</svg>
