<svg width="43" height="43" viewBox="0 0 43 43" fill="none" xmlns="http://www.w3.org/2000/svg">
<g clip-path="url(#clip0_1_10)">
<path d="M37.1364 0H5.86364C2.62524 0 0 2.62524 0 5.86364V37.1364C0 40.3748 2.62524 43 5.86364 43H37.1364C40.3748 43 43 40.3748 43 37.1364V5.86364C43 2.62524 40.3748 0 37.1364 0Z" fill="#0077B5"/>
<path d="M15.4898 11.7273C15.4898 12.4521 15.2749 13.1606 14.8722 13.7633C14.4695 14.366 13.8972 14.8357 13.2275 15.1131C12.5579 15.3905 11.821 15.463 11.1101 15.3216C10.3992 15.1802 9.7462 14.8312 9.23367 14.3187C8.72114 13.8061 8.3721 13.1531 8.2307 12.4422C8.08929 11.7313 8.16187 10.9945 8.43924 10.3248C8.71662 9.65518 9.18635 9.08282 9.78901 8.68013C10.3917 8.27743 11.1002 8.0625 11.8251 8.0625C12.797 8.0625 13.7292 8.44861 14.4164 9.13589C15.1037 9.82317 15.4898 10.7553 15.4898 11.7273Z" fill="white"/>
<path d="M14.6592 17.8351V34.0261C14.6598 34.1455 14.6368 34.2639 14.5916 34.3745C14.5463 34.485 14.4796 34.5855 14.3954 34.6702C14.3112 34.7549 14.211 34.8221 14.1007 34.8679C13.9905 34.9138 13.8722 34.9374 13.7527 34.9374H9.89007C9.77062 34.9377 9.65229 34.9144 9.54188 34.8689C9.43147 34.8233 9.33115 34.7564 9.24669 34.6719C9.16223 34.5875 9.09529 34.4871 9.04973 34.3767C9.00417 34.2663 8.98088 34.148 8.9812 34.0285V17.8351C8.9812 17.5941 9.07696 17.3629 9.24741 17.1925C9.41785 17.022 9.64902 16.9263 9.89007 16.9263H13.7527C13.9934 16.9269 14.2239 17.023 14.3938 17.1933C14.5637 17.3637 14.6592 17.5945 14.6592 17.8351Z" fill="white"/>
<path d="M34.8496 26.2643V34.102C34.8499 34.2119 34.8285 34.3207 34.7867 34.4222C34.7448 34.5237 34.6833 34.6159 34.6056 34.6936C34.5279 34.7712 34.4357 34.8328 34.3342 34.8747C34.2327 34.9165 34.1239 34.9379 34.014 34.9376H29.8606C29.7508 34.9379 29.642 34.9165 29.5405 34.8747C29.439 34.8328 29.3467 34.7712 29.2691 34.6936C29.1914 34.6159 29.1299 34.5237 29.088 34.4222C29.0461 34.3207 29.0247 34.2119 29.0251 34.102V26.5062C29.0251 25.3725 29.3573 21.5416 26.0615 21.5416C23.5084 21.5416 22.988 24.1632 22.8853 25.3408V34.102C22.8854 34.3215 22.799 34.5322 22.645 34.6886C22.4909 34.8449 22.2815 34.9344 22.062 34.9376H18.0503C17.9407 34.9376 17.8321 34.916 17.7309 34.8739C17.6297 34.8319 17.5377 34.7703 17.4603 34.6927C17.3829 34.6151 17.3216 34.523 17.2799 34.4216C17.2382 34.3202 17.2168 34.2116 17.2172 34.102V17.7645C17.2168 17.6549 17.2382 17.5463 17.2799 17.4449C17.3216 17.3435 17.3829 17.2514 17.4603 17.1738C17.5377 17.0962 17.6297 17.0346 17.7309 16.9926C17.8321 16.9505 17.9407 16.9289 18.0503 16.9289H22.062C22.2836 16.9289 22.4961 17.0169 22.6528 17.1736C22.8095 17.3303 22.8976 17.5429 22.8976 17.7645V19.1766C23.8455 17.7547 25.2503 16.6577 28.2481 16.6577C34.8887 16.6577 34.8496 22.8585 34.8496 26.2643Z" fill="white"/>
</g>
<defs>
<clipPath id="clip0_1_10">
<rect width="43" height="43" fill="white"/>
</clipPath>
</defs>
</svg>
