<svg width="192" height="84" viewBox="0 0 192 84" fill="none" xmlns="http://www.w3.org/2000/svg">
<path d="M94.242 15.6846C93.2848 14.4934 92.0374 13.568 90.6187 12.9965C84.8145 10.5482 78.0871 12.4524 74.4303 17.5783V12.7065H66.3135V46.0767H75.0573V30.957C74.9427 28.3936 75.1689 25.8254 75.7296 23.3208C76.1615 21.9666 77.0333 20.7955 78.2067 19.9914C79.4015 19.1574 80.8299 18.7196 82.2881 18.7391C83.3748 18.7081 84.4436 19.0178 85.3454 19.6251C86.1802 20.2294 86.8048 21.0784 87.1338 22.0532C87.6265 24.3404 87.8169 26.6814 87.6992 29.0176V46.0767H96.443V25.3368C96.4968 23.3502 96.3326 21.3629 95.954 19.4116C95.6525 18.0633 95.069 16.7931 94.242 15.6846Z" fill="#264234"/>
<path d="M162.038 12.7065H152.683L146.752 29.7359C146.43 30.6672 146.095 31.6145 145.818 32.5606C145.681 33.0194 145.392 33.9811 144.917 35.4326L143.099 29.7508L137.197 12.7065H127.521L140.637 46.0767H149.182L159.883 18.2201L162.038 12.7065Z" fill="#264234"/>
<path d="M120.367 36.9903C118.97 38.7115 116.868 39.7107 114.65 39.7083C112.43 39.7346 110.315 38.7646 108.887 37.066C107.184 34.8999 106.349 32.1772 106.548 29.4298C106.351 26.6826 107.184 23.9611 108.887 21.7936C110.311 20.0898 112.427 19.1145 114.65 19.1359C116.871 19.1018 118.99 20.0732 120.412 21.7782C122.098 23.9192 122.929 26.6062 122.751 29.3237C122.931 32.0846 122.081 34.8158 120.367 36.9903ZM126.879 16.7997C123.653 13.5573 119.224 11.7992 114.65 11.9429C111.565 11.9036 108.523 12.6554 105.813 14.127C103.189 15.5565 101.059 17.7447 99.6986 20.4043C98.3002 23.0281 97.5597 25.953 97.5442 28.9258C97.4444 32.3071 98.1855 35.6599 99.6986 38.6852C101.101 41.334 103.306 43.4728 105.997 44.7942C108.681 46.1455 111.645 46.8465 114.65 46.8404C119.246 46.9735 123.685 45.167 126.879 41.862C127.954 40.7642 128.875 39.5264 129.615 38.181C131.054 35.4595 131.781 32.4169 131.725 29.3386C131.784 26.2698 131.059 23.2362 129.615 20.526C128.881 19.1634 127.96 17.9088 126.879 16.7997Z" fill="#264234"/>
<path d="M180.657 36.9289C179.262 38.6864 177.14 39.7089 174.894 39.7083C172.675 39.7346 170.559 38.7646 169.131 37.066C167.428 34.8993 166.595 32.1772 166.792 29.4298C166.597 26.6826 167.43 23.9617 169.131 21.7936C170.559 20.0952 172.675 19.1258 174.894 19.1521C177.111 19.1221 179.222 20.0929 180.642 21.7936C182.325 23.9348 183.158 26.6218 182.981 29.3386C183.17 32.087 182.343 34.8104 180.657 36.9903V36.9289ZM187.2 16.7997C183.964 13.5095 179.494 11.7259 174.879 11.8815C171.8 11.8439 168.763 12.5956 166.059 14.0662C163.434 15.4949 161.303 17.6827 159.944 20.3427C158.557 22.954 157.822 25.8623 157.804 28.8195C157.706 32.1885 158.44 35.5305 159.944 38.548C161.346 41.1973 163.549 43.3355 166.242 44.657C168.922 46.0201 171.886 46.7319 174.894 46.733C179.491 46.8691 183.93 45.0614 187.124 41.7546C190.367 38.3947 192.116 33.8672 191.969 29.2013C192.121 24.5935 190.401 20.1202 187.2 16.7997Z" fill="#264234"/>
<path d="M21.6002 37.2647C20.3778 38.897 18.458 39.8593 16.4181 39.861C13.9699 39.8807 11.7092 38.5546 10.5328 36.4093C9.35589 34.0115 8.82802 31.3466 9.00417 28.6811C8.80713 26.0198 9.56012 23.374 11.1282 21.2138C12.3965 19.6156 14.3312 18.6921 16.3723 18.7087C18.4419 18.6676 20.4095 19.6084 21.6766 21.2442C23.0524 22.9236 23.7397 25.7036 23.7397 29.5217C23.9332 32.2714 23.1777 35.0038 21.6002 37.2647ZM23.6943 15.2724C21.6544 13.4475 19.0832 12.323 16.3573 12.0652C15.5852 11.9817 14.8095 11.9412 14.0332 11.9429C10.1913 11.854 6.50816 13.4707 3.97452 16.3571C1.32504 19.2993 0 23.6008 0 29.2622C0 34.9231 1.36087 39.2347 4.08141 42.1978C7.3107 45.4342 11.7391 47.1882 16.3107 47.039C20.6495 47.1924 24.894 45.7474 28.2348 42.977C31.1847 40.2584 32.4537 35.9665 32.4537 29.6441V0H23.6943V15.2724Z" fill="#F25A1A"/>
<path d="M43.1089 26.5286C42.9763 24.4562 43.6439 22.4123 44.9731 20.8165C46.0396 19.5881 47.5527 18.8345 49.1769 18.7237H49.7573C51.5064 18.6867 53.1831 19.4181 54.3433 20.7245C56.3616 22.9086 55.0318 26.4213 51.5165 27.1085L43.0623 29.0939V26.5436L43.1089 26.5286ZM55.4748 36.4862C55.1173 37.5057 54.4944 38.4113 53.671 39.1129C52.6762 39.8825 51.4436 40.281 50.1861 40.2428C49.8451 40.2656 49.503 40.2656 49.1621 40.2428C47.5915 40.0447 46.1434 39.2919 45.0806 38.1202C44.4124 37.4211 43.8923 36.5959 43.5519 35.6921L54.8486 33.0648C57.6909 32.5302 60.2722 31.0627 62.1861 28.8953C64.5251 25.8408 64.678 21.5651 60.9632 16.937C57.9757 13.6086 53.6466 11.8022 49.1769 12.0198C45.0238 11.8977 41.023 13.5865 38.2166 16.6469C35.3217 19.8034 33.8755 24.1353 33.8755 29.6441C33.7195 33.7329 34.8822 37.7647 37.1925 41.1437C39.8317 44.7375 43.8266 46.6274 49.1769 46.8106H50.0941C53.3408 46.9298 56.5445 46.0457 59.2661 44.2752C61.9102 42.3464 63.8401 39.5962 64.7538 36.4557H55.4748V36.4862Z" fill="#F25A1A"/>
<path d="M1.40625 58.9975V55.1644H64.7084V59.0124L1.40625 58.9975Z" fill="#264234"/>
<path d="M64.586 58.9975V55.1644H192V59.0124L64.586 58.9975Z" fill="#F25A1A"/>
<path d="M3.54637 66.1147V80.3323H2.69009V66.1147H3.54637Z" fill="#264234"/>
<path d="M7.53643 70.1009V72.3608C8.11206 70.787 9.63595 69.7639 11.3121 69.8253C12.2974 69.7716 13.2588 70.1367 13.9562 70.8335C14.6262 71.6061 14.9666 72.6084 14.9045 73.6285V80.349H14.1097V74.0252C14.1097 71.7046 13.116 70.5442 11.1282 70.5442C9.86883 70.4607 8.67575 71.1169 8.07086 72.2236C7.64152 73.0958 7.44267 74.0622 7.49044 75.0335V80.3323H6.75656V70.1009H7.53643Z" fill="#264234"/>
<path d="M25.3602 73.0779H24.5344C24.5256 72.325 24.1917 71.6133 23.6184 71.1241C22.9622 70.6934 22.1853 70.4828 21.4013 70.5275C20.6842 70.4876 19.9723 70.6755 19.368 71.0633C18.8646 71.4033 18.5798 71.985 18.6193 72.5905C18.6008 72.7367 18.6008 72.8858 18.6193 73.0332C18.6479 73.1543 18.6891 73.2718 18.7411 73.3839C18.7972 73.5003 18.8749 73.6029 18.971 73.6894L19.2307 73.934C19.3376 74.0163 19.4557 74.0831 19.5825 74.1327L19.9484 74.2848L20.8358 74.5294L21.3404 74.6517L21.8288 74.7591L22.8845 75.0037L23.8471 75.3389C24.1893 75.46 24.5094 75.636 24.7954 75.858C25.0259 76.0727 25.217 76.3263 25.3602 76.6067C25.5383 76.9455 25.6273 77.3244 25.6201 77.7062C25.638 78.5754 25.2188 79.3945 24.504 79.8896C23.6429 80.4785 22.6123 80.7678 21.5691 80.7141C20.4619 80.7756 19.3727 80.4206 18.5118 79.7226C17.7462 79.0127 17.3372 77.9997 17.3963 76.9575H18.1911C18.126 77.8118 18.452 78.6488 19.0779 79.2334C19.8034 79.7864 20.705 80.0567 21.6156 79.997C22.4307 80.031 23.2375 79.8121 23.9236 79.3706C24.4824 79.0168 24.8175 78.3982 24.8103 77.7372C24.8132 77.4568 24.7387 77.1824 24.5959 76.9425C24.4783 76.732 24.3284 76.5428 24.1523 76.377C23.9326 76.2058 23.6848 76.0697 23.419 75.9803C23.1802 75.8836 22.9341 75.8031 22.685 75.7357L21.8903 75.5525H21.6306L21.08 75.4302L20.4691 75.3079L19.8876 75.1558C19.6881 75.1021 19.494 75.0305 19.3072 74.9422L18.8019 74.6976C18.6281 74.6171 18.4724 74.5037 18.344 74.3623L18.0072 73.934C17.8925 73.7729 17.8095 73.591 17.7629 73.3989C17.7384 73.1811 17.7384 72.9604 17.7629 72.7426C17.736 71.9432 18.1087 71.1826 18.7565 70.7113C19.5722 70.1815 20.5361 69.925 21.5081 69.9787C22.5131 69.9208 23.5067 70.2113 24.3213 70.8037C24.977 71.3794 25.3549 72.2069 25.3602 73.0779Z" fill="#264234"/>
<path d="M32.9887 70.4978C31.9108 70.4471 30.8749 70.9201 30.2061 71.7655C29.4865 72.7964 29.1366 74.0385 29.2124 75.2931C29.201 76.0728 29.3259 76.8472 29.5796 77.5839C29.8245 78.267 30.2597 78.8648 30.833 79.3092C31.4541 79.7865 32.2207 80.0359 33.0035 80.012C34.0725 80.0478 35.0924 79.5646 35.7403 78.7144C36.4646 77.7193 36.8264 76.5071 36.7637 75.2781C36.8317 74.0295 36.4705 72.7964 35.7403 71.7804C35.0793 70.9422 34.0557 70.4709 32.9887 70.5127V70.4978ZM29.2124 70.101V72.544C29.6955 70.8575 31.2815 69.73 33.0341 69.8254C34.3232 69.7866 35.5558 70.3516 36.3666 71.3527C37.2474 72.4832 37.6922 73.8923 37.6201 75.3241C37.6875 76.7398 37.2426 78.1328 36.3666 79.2484C34.9096 80.883 32.481 81.2201 30.6341 80.043C29.9612 79.5658 29.4746 78.8695 29.2589 78.0731V83.9983H28.4635V70.101H29.2124Z" fill="#264234"/>
<path d="M41.2739 70.1159V80.349H40.4791V70.1009L41.2739 70.1159ZM41.2739 66.1147V68.1311H40.4791V66.1147H41.2739Z" fill="#264234"/>
<path d="M49.1621 70.0235V70.8485H48.9172C47.8095 70.8139 46.7561 71.3288 46.1048 72.2236C45.7549 72.6711 45.5141 73.1943 45.4019 73.7509C45.2901 74.4471 45.2394 75.1528 45.2484 75.858V80.3323H44.3312V70.101H45.1105V72.8035C45.3912 71.9564 45.925 71.2154 46.6392 70.6815C47.3927 70.2084 48.2735 69.9787 49.1621 70.0235Z" fill="#264234"/>
<path d="M58.6242 74.6827C58.6499 73.6357 58.3154 72.6113 57.6766 71.7803C57.0257 70.96 56.0171 70.5054 54.971 70.5591C53.9355 70.4947 52.9318 70.926 52.2647 71.7195C51.6049 72.5797 51.2168 73.6166 51.1494 74.6976L58.6242 74.6827ZM59.3425 76.8661C59.201 77.9269 58.6928 78.9052 57.9059 79.6301C57.098 80.343 56.0476 80.72 54.971 80.6842C53.6651 80.7218 52.4152 80.1581 51.5774 79.157C50.6883 78.0593 50.2363 76.6722 50.3086 75.2631C50.241 73.8266 50.6978 72.4175 51.5924 71.2911C52.4159 70.2889 53.6585 69.7251 54.956 69.7639C56.2453 69.6982 57.4855 70.268 58.2725 71.2911C59.0715 72.3787 59.4806 73.7013 59.4346 75.0484V75.324H51.1494C51.1081 76.4933 51.4461 77.6447 52.1118 78.607C52.7801 79.5138 53.8615 80.0191 54.9865 79.9505C55.8368 79.9773 56.6657 79.682 57.3099 79.126C57.9644 78.5097 58.3955 77.6942 58.5322 76.8053L59.3425 76.8661Z" fill="#264234"/>
<path d="M66.1601 70.4977C65.0947 70.4608 64.0773 70.938 63.4245 71.7804C62.6961 72.7904 62.3347 74.0193 62.3999 75.2632C62.3294 76.4952 62.6865 77.7134 63.4091 78.7144C64.0779 79.5496 65.1061 80.015 66.1755 79.9672C67.2647 80.0132 68.3097 79.5359 68.9887 78.6828C69.7231 77.6764 70.0844 76.4456 70.0121 75.2018C70.0522 74.0086 69.7154 72.8333 69.0495 71.8418C68.3725 70.9034 67.2534 70.3874 66.0997 70.4828L66.1601 70.4977ZM70.746 66.1147V80.3323H69.9817V77.8894C69.7662 78.7263 69.2634 79.4613 68.5605 79.9672C66.676 81.1854 64.1853 80.8621 62.6752 79.2036C61.8069 78.0791 61.3728 76.6801 61.4529 75.2632C61.377 73.8267 61.8219 72.4116 62.7056 71.2763C63.5172 70.2758 64.7496 69.7103 66.0388 69.749C67.7752 69.6822 69.347 70.7722 69.8909 72.4217V66.1147H70.746Z" fill="#264234"/>
<path d="M84.7799 70.4667C83.7247 70.453 82.7263 70.941 82.0898 71.7803C81.3511 72.7587 80.9737 73.9626 81.0191 75.1868C80.957 76.4307 81.3236 77.6614 82.0587 78.6678C83.324 80.1951 85.589 80.4087 87.1165 79.1439C87.2897 79.0007 87.4491 78.8408 87.5917 78.6678C88.9574 76.553 88.9574 73.8356 87.5917 71.7195C86.9141 70.8962 85.8923 70.4339 84.8258 70.4667H84.7799ZM81.0191 66.1147V72.529C81.526 70.8216 83.1383 69.6852 84.9166 69.7806C86.1968 69.7418 87.4204 70.3068 88.2194 71.3079C89.8436 73.7061 89.8436 76.8501 88.2194 79.2483C87.4222 80.2506 86.1981 80.8173 84.9166 80.7755C83.0924 80.8722 81.4561 79.6611 81.0191 77.8893V80.3323H80.2548V66.1147H81.0191Z" fill="#264234"/>
<path d="M99.9585 70.101L95.5414 81.3871C95.3378 81.9061 95.1897 82.273 95.0984 82.486C94.964 82.7544 94.8046 83.011 94.6242 83.2496C94.4356 83.521 94.1687 83.7286 93.8599 83.8462C93.4993 83.9595 93.1218 84.0102 92.7438 83.9983H91.9647V83.2812C92.1831 83.3003 92.4029 83.3003 92.6214 83.2812C93.0269 83.3063 93.43 83.1989 93.7679 82.9752C94.0958 82.7055 94.3442 82.3517 94.4869 81.952C94.8028 81.2182 95.0368 80.6694 95.1897 80.3025L90.833 70.101H91.7198L95.0984 78.119C95.2047 78.3785 95.3581 78.8051 95.5564 79.4017C95.812 78.6577 95.969 78.1995 96.0304 78.0265L99.0884 70.1159L99.9585 70.101Z" fill="#264234"/>
<path d="M111.96 70.101V70.8038H109.757V77.7372C109.757 78.0415 109.757 78.2563 109.757 78.3624C109.748 78.5265 109.748 78.6888 109.757 78.8516C109.777 79.0157 109.848 79.1708 109.956 79.2943C110.079 79.4005 110.219 79.4822 110.37 79.5389C110.584 79.6182 110.813 79.6541 111.041 79.6463C111.324 79.6421 111.604 79.6165 111.883 79.5687V80.3025C111.564 80.3491 111.241 80.3741 110.919 80.3789C110.582 80.3908 110.245 80.3383 109.926 80.2268C109.702 80.1462 109.496 80.0269 109.314 79.8748C109.151 79.7018 109.046 79.484 109.009 79.2484C108.952 79.0187 108.915 78.783 108.902 78.5456C108.902 78.3624 108.902 78.0624 108.902 77.6448V70.8038H107.006V70.101H108.902V66.8932H109.696V70.101H111.96Z" fill="#264234"/>
<path d="M115.002 66.1147V72.4217C115.268 71.676 115.745 71.0227 116.377 70.5443C117.047 70.061 117.859 69.8135 118.685 69.8415C119.709 69.7639 120.714 70.1517 121.421 70.8945C122.069 71.7076 122.395 72.7289 122.34 73.7658V80.3323H121.544V73.903C121.575 73.0183 121.301 72.1503 120.764 71.4451C120.188 70.7948 119.337 70.4548 118.471 70.5276C117.686 70.4977 116.921 70.7722 116.331 71.2912C115.75 71.8329 115.345 72.535 115.169 73.3076C115.036 73.9042 114.973 74.5145 114.985 75.126V80.3174H114.192V66.1147H115.002Z" fill="#264234"/>
<path d="M133.193 74.6827C133.218 73.6357 132.883 72.6113 132.244 71.7803C131.593 70.96 130.585 70.5054 129.539 70.5591C128.509 70.5245 127.524 70.9779 126.879 71.7803C126.219 72.6412 125.831 73.6774 125.762 74.759L133.193 74.6827ZM133.91 76.8661C133.77 77.9269 133.261 78.9052 132.474 79.6301C131.666 80.343 130.615 80.72 129.539 80.6842C128.233 80.7218 126.982 80.1581 126.144 79.157C125.257 78.0593 124.804 76.6722 124.877 75.2631C124.81 73.8266 125.265 72.4175 126.161 71.2911C126.984 70.2889 128.226 69.7251 129.524 69.7639C130.812 69.6982 132.053 70.268 132.841 71.2911C133.639 72.3787 134.049 73.7013 134.003 75.0484V75.324H125.717C125.676 76.4933 126.013 77.6447 126.68 78.607C127.348 79.5138 128.43 80.0191 129.554 79.9505C130.405 79.9773 131.233 79.682 131.877 79.126C132.532 78.5097 132.964 77.6942 133.101 76.8053L133.91 76.8661Z" fill="#264234"/>
<path d="M146.827 66.0831V66.802H146.034C145.761 66.793 145.492 66.8396 145.238 66.9391C145.059 67.0126 144.893 67.1151 144.749 67.2452C144.617 67.3944 144.532 67.5804 144.505 67.7791C144.457 67.9742 144.428 68.1741 144.412 68.374C144.412 68.5278 144.412 68.7724 144.412 69.0779V70.1625H146.553V70.8646H144.412V80.3323H143.618V70.8038H141.813V70.101H143.587V68.8172C143.54 68.0893 143.706 67.3626 144.061 66.7262C144.545 66.1845 145.268 65.9208 145.987 66.0234L146.827 66.0831Z" fill="#264234"/>
<path d="M156.535 70.101V80.3323H155.771V78.1804C155.211 79.7148 153.721 80.7099 152.087 80.6384C151.072 80.7129 150.078 80.3251 149.38 79.5854C148.733 78.7722 148.406 77.7509 148.464 76.7141V70.101H149.258V76.5142C149.258 78.7961 150.252 79.9356 152.239 79.9356C153.261 79.9791 154.236 79.509 154.838 78.6828C155.45 77.7849 155.762 76.7159 155.725 75.6283V70.101H156.535Z" fill="#264234"/>
<path d="M163.445 70.101V70.8038H161.243V77.7372C161.243 78.0415 161.243 78.2563 161.243 78.3624C161.234 78.5265 161.234 78.6888 161.243 78.8516C161.262 79.0157 161.332 79.1708 161.442 79.2943C161.563 79.4005 161.703 79.4822 161.855 79.5389C162.07 79.6182 162.298 79.6541 162.527 79.6463C162.809 79.6421 163.09 79.6165 163.368 79.5687V80.3025C163.049 80.3491 162.728 80.3741 162.405 80.3789C162.067 80.3908 161.731 80.3383 161.411 80.2268C161.188 80.1462 160.982 80.0269 160.8 79.8748C160.636 79.7018 160.531 79.484 160.494 79.2484C160.438 79.0187 160.403 78.783 160.387 78.5456C160.387 78.3624 160.387 78.0624 160.387 77.6448V70.8038H158.492V70.101H160.51V66.8932H161.304V70.101H163.445Z" fill="#264234"/>
<path d="M173.687 70.101V80.3323H172.922V78.1804C172.363 79.7148 170.871 80.7099 169.238 80.6383C168.252 80.6801 167.297 80.2905 166.624 79.5687C165.976 78.7573 165.649 77.736 165.707 76.6979V70.101H166.502V76.5142C166.502 78.7961 167.496 79.9356 169.483 79.9356C170.504 79.9791 171.479 79.509 172.082 78.6827C172.695 77.7849 173.005 76.7158 172.968 75.6283V70.101H173.687Z" fill="#264234"/>
<path d="M181.59 70.0235V70.8485H181.284C180.176 70.8139 179.124 71.3288 178.471 72.2236C178.121 72.6711 177.881 73.1943 177.768 73.7509C177.658 74.4471 177.608 75.1528 177.615 75.858V80.3323H176.82V70.101H177.6V72.8035C177.88 71.9564 178.415 71.2154 179.129 70.6815C179.864 70.2203 180.723 69.9906 181.59 70.0235Z" fill="#264234"/>
<path d="M191.083 74.6827C191.112 73.6297 190.777 72.5994 190.135 71.7654C189.484 70.9451 188.476 70.4905 187.429 70.5442C186.394 70.4798 185.39 70.9111 184.724 71.7045C184.063 72.5636 183.675 73.6017 183.608 74.6827H191.083ZM191.771 76.8661C191.629 77.9269 191.121 78.9052 190.334 79.6301C189.525 80.343 188.476 80.72 187.399 80.6842C186.093 80.7218 184.843 80.1581 184.005 79.157C183.115 78.0593 182.664 76.6722 182.736 75.2631C182.669 73.8266 183.126 72.4175 184.02 71.2911C184.844 70.2889 186.086 69.7251 187.383 69.7639C188.674 69.6982 189.913 70.268 190.701 71.2911C191.499 72.3787 191.908 73.7013 191.862 75.0484V75.324H183.562C183.521 76.4933 183.858 77.6447 184.525 78.607C185.191 79.5138 186.274 80.0191 187.399 79.9505C188.249 79.9773 189.077 79.682 189.722 79.126C190.378 78.5097 190.808 77.6942 190.945 76.8053L191.771 76.8661Z" fill="#264234"/>
</svg>
