<svg width="43" height="43" viewBox="0 0 43 43" fill="none" xmlns="http://www.w3.org/2000/svg">
<g clip-path="url(#clip0_1_29)">
<rect x="6" y="9" width="31" height="25" fill="white"/>
<path d="M34.1816 0H8.81836C3.95592 0 0 3.95592 0 8.81836V34.1816C0 39.0441 3.95592 43 8.81836 43H34.1816C39.0441 43 43 39.0441 43 34.1816V8.81836C43 3.95592 39.0441 0 34.1816 0ZM31.4693 12.2617L21.4965 22.2344L11.5237 12.2617H31.4693ZM8.62973 28.3895C8.536 28.2133 8.48242 28.0123 8.48242 27.7988V13.5215C8.48242 13.308 8.536 13.107 8.62973 12.9308L16.3591 20.6602L8.62973 28.3895ZM11.5237 29.0586L18.1406 22.4417L21.4966 25.7976L24.8559 22.4383L31.4763 29.0586H11.5237ZM34.5176 27.7988C34.5176 28.0123 34.464 28.2133 34.3703 28.3895L26.6374 20.6567L34.3679 12.9261C34.4633 13.1034 34.5176 13.3061 34.5176 13.5215V27.7988Z" fill="#F25A1A"/>
</g>
<defs>
<clipPath id="clip0_1_29">
<rect width="43" height="43" fill="white"/>
</clipPath>
</defs>
</svg>
