<svg width="43" height="43" viewBox="0 0 43 43" fill="none" xmlns="http://www.w3.org/2000/svg">
<g clip-path="url(#clip0_1_24)">
<path d="M37.1364 0H5.86364C2.62524 0 0 2.62524 0 5.86364V37.1364C0 40.3748 2.62524 43 5.86364 43H37.1364C40.3748 43 43 40.3748 43 37.1364V5.86364C43 2.62524 40.3748 0 37.1364 0Z" fill="#1C8ADB"/>
<path d="M33.2126 11.1165L32.768 11.2777L8.63424 19.973C8.46321 20.0259 8.31457 20.134 8.21161 20.2805C8.10864 20.4269 8.05718 20.6034 8.06528 20.7822C8.07339 20.9611 8.1406 21.1321 8.25638 21.2687C8.37217 21.4052 8.52998 21.4995 8.70509 21.5367L14.9523 23.2469L16.1177 26.6673L17.2831 30.0878C17.35 30.2555 17.4569 30.4043 17.5944 30.5213C17.7319 30.6383 17.8959 30.7199 18.0721 30.7592C18.2484 30.7984 18.4315 30.7941 18.6057 30.7465C18.7798 30.6989 18.9397 30.6095 19.0715 30.486L22.299 27.4369L28.6366 31.7345C29.4111 32.2622 30.5154 31.8713 30.7133 31.0015L34.9107 12.4554C35.1159 11.5367 34.1484 10.7818 33.2126 11.1165ZM30.1318 15.2333L19.2279 24.146L18.7148 24.5662C18.6021 24.6556 18.5285 24.7852 18.5096 24.9278L18.3948 25.8758L18.0796 28.5388C18.0822 28.5712 18.0718 28.6033 18.0507 28.6281C18.0296 28.6528 17.9996 28.6682 17.9672 28.6708C17.9348 28.6733 17.9027 28.663 17.878 28.6419C17.8532 28.6208 17.8379 28.5908 17.8353 28.5584L16.9484 25.8977L16.0322 23.1736C15.9934 23.0511 15.9986 22.919 16.0468 22.8C16.0949 22.6809 16.1831 22.5823 16.2961 22.5213L27.6422 16.0175L29.7775 14.7959C30.0878 14.6151 30.4054 15.0085 30.1318 15.2333Z" fill="white"/>
</g>
<defs>
<clipPath id="clip0_1_24">
<rect width="43" height="43" fill="white"/>
</clipPath>
</defs>
</svg>
