<svg width="941" height="75" viewBox="0 0 941 75" fill="none" xmlns="http://www.w3.org/2000/svg">
<path d="M0 6.07004H9.88001V28.0793H17.0487L26.3325 6.07004H36.4397L28.2915 25.5799C27.4398 27.608 26.588 29.0648 25.7221 29.9503C24.8704 30.8358 23.8057 31.4071 22.5565 31.6642V32.0498C23.8057 32.3498 24.8562 32.9211 25.6937 33.7637C26.5171 34.5921 27.3688 36.0346 28.2205 38.0485L33.4302 50.8741H37.8876V59.0722H32.3088C30.1937 59.0722 28.4618 58.5581 27.0991 57.5154C25.7363 56.4728 24.5581 54.7447 23.5502 52.3166L17.0629 36.306H9.89421V59.0722H0V6.07004Z" fill="#68C4D7"/>
<path d="M62.8289 59.9578C59.8621 59.9578 57.2075 59.4722 54.8653 58.5152C52.5231 57.5583 50.5357 56.1872 48.9032 54.4162C47.2708 52.6451 46.0074 50.4885 45.1272 47.9605C44.2471 45.4325 43.8071 42.6046 43.8071 39.4624C43.8071 36.3203 44.2471 33.4924 45.1272 30.9644C46.0074 28.4364 47.2566 26.2797 48.9032 24.5087C50.5357 22.7377 52.5231 21.3666 54.8653 20.4096C57.2075 19.4527 59.8621 18.9671 62.8289 18.9671C65.7958 18.9671 68.3793 19.4527 70.75 20.4096C73.1064 21.3666 75.108 22.7377 76.7405 24.5087C78.3729 26.2797 79.6363 28.4364 80.5164 30.9644C81.3965 33.4924 81.8366 36.3346 81.8366 39.4624C81.8366 42.5903 81.3965 45.4325 80.5164 47.9605C79.6363 50.4885 78.3729 52.6451 76.7405 54.4162C75.108 56.1872 73.1064 57.5583 70.75 58.5152C68.3793 59.4722 65.739 59.9578 62.8289 59.9578ZM62.8289 52.5166C65.597 52.5166 67.7831 51.6739 69.3872 49.9743C70.9913 48.2747 71.8004 45.7896 71.8004 42.5046V36.4345C71.8004 33.1496 70.9913 30.6502 69.3872 28.9648C67.7831 27.2652 65.597 26.4225 62.8289 26.4225C60.0608 26.4225 57.8747 27.2652 56.2706 28.9648C54.6666 30.6644 53.8574 33.1496 53.8574 36.4345V42.5046C53.8574 45.7896 54.6666 48.289 56.2706 49.9743C57.8747 51.6739 60.0608 52.5166 62.8289 52.5166Z" fill="#68C4D7"/>
<path d="M91.1914 19.8812H100.844V35.3634H115.324V19.8812H124.977V59.0437H115.324V42.9473H100.844V59.0437H91.1914V19.8812Z" fill="#68C4D7"/>
<path d="M157.342 74.2259H149.35V54.4162H148.896C148.087 56.5442 147.136 58.0011 146.028 58.7866C144.921 59.5721 143.615 59.9577 142.11 59.9577C140.606 59.9577 139.285 59.615 138.15 58.9294C137.014 58.2439 136.077 57.1013 135.325 55.5159C134.573 53.9163 134.005 51.8167 133.622 49.1745C133.238 46.5465 133.054 43.3044 133.054 39.4624C133.054 35.6204 133.238 32.3783 133.622 29.7504C134.005 27.1224 134.558 25.0086 135.325 23.4089C136.077 21.8093 137.028 20.681 138.15 19.9954C139.271 19.3099 140.606 18.9671 142.11 18.9671C143.615 18.9671 144.921 19.3527 146.028 20.1383C147.136 20.9238 148.087 22.3806 148.896 24.5087H149.35V5.15596H157.342V24.5087H157.796C158.605 22.3806 159.557 20.9238 160.664 20.1383C161.771 19.3527 163.077 18.9671 164.582 18.9671C166.086 18.9671 167.407 19.3099 168.542 19.9954C169.678 20.681 170.615 21.8236 171.367 23.4089C172.12 24.9943 172.687 27.1224 173.071 29.7504C173.454 32.3783 173.638 35.6204 173.638 39.4624C173.638 43.3044 173.454 46.5465 173.071 49.1745C172.687 51.8025 172.12 53.9163 171.367 55.5159C170.615 57.1155 169.664 58.2439 168.542 58.9294C167.407 59.615 166.086 59.9577 164.582 59.9577C163.077 59.9577 161.771 59.5721 160.664 58.7866C159.557 58.0011 158.605 56.5442 157.796 54.4162H157.342V74.2259ZM145.659 52.588C146.965 52.588 147.916 52.1738 148.527 51.3311C149.137 50.5028 149.435 49.1174 149.435 47.1892V31.7071C149.435 29.7789 149.137 28.4078 148.527 27.5651C147.931 26.7368 146.965 26.3083 145.659 26.3083C144.254 26.3083 143.175 26.9367 142.408 28.2078C141.656 29.479 141.273 31.807 141.273 35.192V43.69C141.273 47.075 141.656 49.403 142.408 50.6742C143.161 51.9453 144.24 52.5737 145.659 52.5737V52.588ZM161.047 52.588C162.452 52.588 163.531 51.9596 164.298 50.6884C165.05 49.4316 165.433 47.1035 165.433 43.7043V35.2062C165.433 31.8213 165.05 29.4933 164.298 28.2221C163.545 26.9653 162.467 26.3226 161.047 26.3226C159.741 26.3226 158.79 26.7368 158.18 27.5794C157.583 28.4078 157.271 29.7932 157.271 31.7213V47.2035C157.271 49.1316 157.569 50.5028 158.18 51.3454C158.79 52.1738 159.741 52.6023 161.047 52.6023V52.588Z" fill="#68C4D7"/>
<path d="M199.502 59.9578C196.379 59.9578 193.626 59.4722 191.212 58.5152C188.799 57.5583 186.769 56.1872 185.137 54.4162C183.504 52.6451 182.255 50.5028 181.403 48.0033C180.552 45.5039 180.126 42.676 180.126 39.5481C180.126 36.4203 180.566 33.5066 181.446 30.9787C182.326 28.4507 183.575 26.294 185.179 24.523C186.783 22.752 188.742 21.3808 191.028 20.4239C193.313 19.467 195.897 18.9814 198.764 18.9814C201.632 18.9814 204.116 19.4527 206.387 20.3953C208.644 21.338 210.575 22.6663 212.151 24.3944C213.74 26.1226 214.947 28.2079 215.813 30.6359C216.679 33.0639 217.091 35.7633 217.091 38.7055V41.9047H189.779V42.8902C189.779 45.7181 190.659 48.0176 192.419 49.7601C194.179 51.5025 196.649 52.3738 199.815 52.3738C202.228 52.3738 204.301 51.8739 206.032 50.8884C207.764 49.9029 209.212 48.6032 210.376 46.975L215.884 52.488C214.479 54.5447 212.42 56.3157 209.737 57.7725C207.04 59.2294 203.633 59.9578 199.517 59.9578H199.502ZM198.835 26.1083C196.124 26.1083 193.938 26.9796 192.277 28.7077C190.616 30.4359 189.793 32.7354 189.793 35.5919V36.1203H207.438V35.4348C207.438 32.5783 206.671 30.3074 205.138 28.622C203.605 26.9367 201.504 26.094 198.835 26.094V26.1083Z" fill="#68C4D7"/>
<path d="M226.431 19.8812H236.084V26.7939H236.609C237.66 24.423 239.108 22.5234 240.939 21.0952C242.77 19.6812 245.198 18.9671 248.221 18.9671C250.436 18.9671 252.451 19.3813 254.297 20.224C256.128 21.0523 257.704 22.3235 259.01 24.0231C260.316 25.7227 261.324 27.8508 262.033 30.4359C262.743 33.021 263.084 36.0346 263.084 39.4624C263.084 42.8902 262.729 45.9181 262.033 48.4889C261.324 51.0741 260.316 53.2021 259.01 54.9018C257.704 56.6014 256.128 57.8582 254.297 58.7009C252.466 59.5436 250.436 59.9578 248.221 59.9578C245.212 59.9578 242.784 59.2436 240.939 57.8297C239.093 56.4157 237.66 54.5161 236.609 52.131H236.084V74.2116H226.431V19.8812ZM244.161 52.2167C246.972 52.2167 249.158 51.3597 250.691 49.6315C252.224 47.9176 252.991 45.561 252.991 42.576V36.3489C252.991 33.3638 252.224 31.0072 250.691 29.2933C249.158 27.5794 246.986 26.7082 244.161 26.7082C241.947 26.7082 240.045 27.2509 238.469 28.3364C236.879 29.4219 236.098 31.0786 236.098 33.3067V45.6039C236.098 47.8319 236.893 49.4887 238.469 50.5742C240.059 51.6596 241.947 52.2024 244.161 52.2024V52.2167Z" fill="#68C4D7"/>
<path d="M290.027 59.9578C286.904 59.9578 284.15 59.4722 281.722 58.5152C279.309 57.5583 277.279 56.1872 275.647 54.4162C274.014 52.6451 272.765 50.5028 271.913 48.0033C271.062 45.5039 270.636 42.676 270.636 39.5481C270.636 36.4203 271.076 33.5066 271.956 30.9787C272.836 28.4507 274.085 26.294 275.689 24.523C277.293 22.752 279.238 21.3808 281.538 20.4239C283.823 19.467 286.407 18.9814 289.274 18.9814C292.142 18.9814 294.626 19.4527 296.897 20.3953C299.154 21.338 301.085 22.6663 302.675 24.3944C304.265 26.1226 305.471 28.2079 306.337 30.6359C307.189 33.0782 307.615 35.7633 307.615 38.7055V41.9047H280.303V42.8902C280.303 45.7181 281.183 48.0176 282.943 49.7601C284.703 51.5025 287.173 52.3738 290.339 52.3738C292.752 52.3738 294.825 51.8739 296.557 50.8884C298.288 49.9029 299.736 48.6032 300.9 46.975L306.408 52.488C305.003 54.5447 302.945 56.3157 300.262 57.7725C297.564 59.2294 294.158 59.9578 290.041 59.9578H290.027ZM289.345 26.1083C286.634 26.1083 284.448 26.9796 282.787 28.7077C281.126 30.4359 280.303 32.7354 280.303 35.5919V36.1203H297.948V35.4348C297.948 32.5783 297.181 30.3074 295.648 28.622C294.115 26.9367 292.014 26.094 289.345 26.094V26.1083Z" fill="#68C4D7"/>
<path d="M317.481 19.8812H327.134V35.3634H341.613V19.8812H351.266V59.0437H341.613V42.9473H327.134V59.0437H317.481V19.8812Z" fill="#68C4D7"/>
<path d="M391.921 59.0437H361.827V19.8812H371.48V51.4454H384.909V19.8812H394.562V51.4454H400.666V69.6555H391.921V59.0294V59.0437Z" fill="#68C4D7"/>
<path d="M409.651 51.4597H422.47V27.4794H409.651V19.8955H432.123V51.4597H444.047V59.0437H409.651V51.4597ZM427.296 13.8111C425.039 13.8111 423.435 13.3255 422.513 12.3686C421.576 11.4117 421.121 10.2405 421.121 8.88368V7.06981C421.121 5.6987 421.59 4.54182 422.513 3.58489C423.449 2.62797 425.039 2.14236 427.296 2.14236C429.554 2.14236 431.158 2.62797 432.08 3.58489C433.017 4.54182 433.471 5.71298 433.471 7.06981V8.88368C433.471 10.2548 433.003 11.4117 432.08 12.3686C431.143 13.3255 429.554 13.8111 427.296 13.8111Z" fill="#68C4D7"/>
<path d="M451.443 51.4597H455.886L458.228 47.175C459.435 44.9755 461.238 43.8614 463.665 43.8043V43.3473C460.443 43.0902 457.817 42.0904 455.787 40.3051C453.757 38.5341 452.735 35.9489 452.735 32.564C452.735 30.6359 453.047 28.8934 453.672 27.3223C454.296 25.7513 455.19 24.423 456.354 23.3375C457.504 22.2521 458.881 21.4094 460.471 20.7953C462.061 20.1811 463.821 19.8812 465.794 19.8812H486.236V59.0437H476.583V44.7041H470.394L465.567 53.5878C464.403 55.6159 463.197 57.0299 461.905 57.844C460.627 58.6581 458.952 59.058 456.894 59.058H451.457V51.474L451.443 51.4597ZM476.555 27.0938H467.583C465.979 27.0938 464.73 27.5223 463.85 28.3792C462.97 29.2362 462.529 30.3217 462.529 31.6499V33.3924C462.529 34.7064 462.97 35.7918 463.85 36.6631C464.73 37.52 465.979 37.9485 467.583 37.9485H476.555V27.0938Z" fill="#68C4D7"/>
<path d="M543.912 59.0437V51.6025H555.751V13.5112H543.912V6.07004H577.399V13.5112H565.56V51.6025H577.399V59.0437H543.912Z" fill="#68C4D7"/>
<path d="M610.815 14.2682V59.0437H601.006V14.2682H585.164V6.07004H626.657V14.2682H610.815Z" fill="#68C4D7"/>
<path d="M639.49 40.6764V31.1929H662.869V40.6764H639.49Z" fill="#68C4D7"/>
<path d="M679.989 19.8812H689.642V35.2919H695.746L704.419 19.8812H714.91L706.918 33.8923C706.066 35.4062 705.172 36.4774 704.235 37.1058C703.298 37.7342 702.262 38.177 701.098 38.4341V38.8911C702.404 39.1482 703.497 39.6338 704.377 40.3479C705.257 41.0621 706.151 42.2904 707.06 44.0185L710.978 51.4454H715.208V59.0294H709.927C708.068 59.0294 706.478 58.6152 705.172 57.7725C703.866 56.9299 702.688 55.5588 701.623 53.6306L695.817 42.8474H689.628V59.0151H679.975V19.8812H679.989Z" fill="#68C4D7"/>
<path d="M742.591 59.9578C739.468 59.9578 736.7 59.4722 734.287 58.5152C731.873 57.5583 729.843 56.1872 728.211 54.4162C726.579 52.6451 725.329 50.5028 724.478 48.0033C723.626 45.5039 723.2 42.676 723.2 39.5481C723.2 36.4203 723.64 33.5066 724.52 30.9787C725.4 28.4507 726.65 26.294 728.254 24.523C729.858 22.752 731.817 21.3808 734.102 20.4239C736.388 19.467 738.971 18.9814 741.839 18.9814C744.706 18.9814 747.19 19.4527 749.462 20.3953C751.733 21.338 753.649 22.6663 755.239 24.3944C756.829 26.1226 758.036 28.2079 758.901 30.6359C759.753 33.0782 760.179 35.7633 760.179 38.7055V41.9047H732.867V42.8902C732.867 45.7181 733.747 48.0176 735.507 49.7601C737.268 51.5025 739.738 52.3738 742.903 52.3738C745.317 52.3738 747.389 51.8739 749.121 50.8884C750.853 49.9029 752.301 48.6032 753.465 46.975L758.972 52.488C757.567 54.5447 755.509 56.3157 752.826 57.7725C750.129 59.2294 746.722 59.9578 742.605 59.9578H742.591ZM741.924 26.1083C739.212 26.1083 737.026 26.9796 735.366 28.7077C733.705 30.4359 732.881 32.7354 732.881 35.5919V36.1203H750.526V35.4348C750.526 32.5783 749.76 30.3074 748.227 28.622C746.693 26.9367 744.593 26.094 741.924 26.094V26.1083Z" fill="#68C4D7"/>
<path d="M770.045 19.8812H779.471V34.6778L778.647 45.761H779.102L794.788 19.8812H803.844V59.0437H794.418V44.2471L795.242 33.1639H794.788L779.102 59.0437H770.045V19.8812ZM786.952 15.2537C781.018 15.2537 776.944 12.5257 774.729 7.05554L772.998 2.79936L780.762 -0.0142822L783.332 8.11244C783.729 8.26954 784.269 8.39809 784.95 8.49806C785.631 8.59804 786.299 8.65517 786.952 8.65517C787.605 8.65517 788.272 8.59804 788.953 8.49806C789.635 8.39809 790.174 8.26954 790.571 8.11244L793.141 -0.0142822L800.906 2.79936L799.174 7.05554C796.959 12.5257 792.885 15.2537 786.952 15.2537Z" fill="#68C4D7"/>
<path d="M833.711 59.9578C830.745 59.9578 828.076 59.4722 825.719 58.5152C823.349 57.5583 821.361 56.1872 819.729 54.4162C818.096 52.6451 816.833 50.4885 815.953 47.9605C815.073 45.4325 814.633 42.6046 814.633 39.4624C814.633 36.3203 815.073 33.4924 815.953 30.9644C816.833 28.4364 818.082 26.2797 819.729 24.5087C821.361 22.7377 823.349 21.3666 825.691 20.4096C828.033 19.4527 830.688 18.9671 833.655 18.9671C837.771 18.9671 841.093 19.8241 843.606 21.5522C846.118 23.2661 848.035 25.5513 849.341 28.3792L841.874 32.4783C841.164 30.8073 840.17 29.4504 838.893 28.4221C837.615 27.3938 835.869 26.8653 833.655 26.8653C830.787 26.8653 828.587 27.6937 827.054 29.3647C825.521 31.0358 824.754 33.3067 824.754 36.1917V42.7188C824.754 45.5468 825.521 47.8177 827.054 49.5173C828.587 51.2169 830.844 52.0596 833.811 52.0596C836.125 52.0596 837.97 51.5311 839.361 50.4599C840.738 49.403 841.86 47.9748 842.711 46.2038L849.951 50.5313C848.645 53.3164 846.672 55.573 844.031 57.3298C841.391 59.0722 837.956 59.9435 833.74 59.9435L833.711 59.9578Z" fill="#68C4D7"/>
<path d="M862.23 51.4597H875.048V27.4794H862.23V19.8955H884.701V51.4597H896.626V59.0437H862.23V51.4597ZM879.875 13.8111C877.618 13.8111 876.014 13.3255 875.091 12.3686C874.154 11.4117 873.7 10.2405 873.7 8.88368V7.06981C873.7 5.6987 874.168 4.54182 875.091 3.58489C876.014 2.62797 877.618 2.14236 879.875 2.14236C882.132 2.14236 883.736 2.62797 884.659 3.58489C885.596 4.54182 886.05 5.71298 886.05 7.06981V8.88368C886.05 10.2548 885.581 11.4117 884.659 12.3686C883.722 13.3255 882.132 13.8111 879.875 13.8111Z" fill="#68C4D7"/>
<path d="M906.733 19.8812H928.31C931.773 19.8812 934.456 20.8095 936.344 22.652C938.232 24.4944 939.169 26.8939 939.169 29.8218C939.169 34.5778 936.472 37.4343 931.092 38.3912V38.6912C933.959 38.9483 936.259 39.7766 937.991 41.1906C939.723 42.6046 940.589 44.7898 940.589 47.7177C940.589 49.3316 940.305 50.8313 939.765 52.2024C939.212 53.5735 938.417 54.7589 937.395 55.773C936.358 56.787 935.095 57.5869 933.59 58.1582C932.086 58.7295 930.368 59.0294 928.466 59.0294H906.747V19.8812H906.733ZM925.584 36.206C926.847 36.206 927.784 35.8632 928.409 35.1777C929.034 34.4921 929.346 33.5781 929.346 32.4069V30.7358C929.346 29.579 929.034 28.6506 928.409 27.965C927.784 27.2795 926.833 26.9367 925.584 26.9367H916.158V36.1917H925.584V36.206ZM926.564 51.9881C929.374 51.9881 930.794 50.6742 930.794 48.0462V46.3037C930.794 43.6758 929.388 42.3618 926.564 42.3618H916.158V52.0024H926.564V51.9881Z" fill="#68C4D7"/>
</svg>
