<svg xmlns="http://www.w3.org/2000/svg" xmlns:xlink="http://www.w3.org/1999/xlink"><defs><symbol fill="none" viewBox="0 0 17 33" id="arrow_right"><path fill="#fff" d="M17 16.5 6.06 5.208c.565-1.224.37-2.731-.61-3.744h-.001a3.126 3.126 0 0 0-4.516 0C-.31 2.749-.31 4.84.933 6.125c.623.642 1.44.964 2.258.964.47 0 .937-.119 1.37-.331L14 16.5l-9.436 9.74a3.1 3.1 0 0 0-1.372-.33c-.853 0-1.655.342-2.257.965-1.245 1.285-1.245 3.376 0 4.661.622.642 1.44.964 2.257.964s1.636-.321 2.258-.964c.98-1.013 1.176-2.52.612-3.744zM2.434 4.577a1.13 1.13 0 0 1 0-1.564 1.05 1.05 0 0 1 1.515 0 1.134 1.134 0 0 1 0 1.564 1.05 1.05 0 0 1-1.515 0m1.515 25.41a1.05 1.05 0 0 1-1.515 0 1.13 1.13 0 0 1 0-1.564 1.044 1.044 0 0 1 1.514 0 1.134 1.134 0 0 1 0 1.565" /></symbol><symbol viewBox="0 0 57 64" id="arrow_right_double"><path d="M34.628 32.01 12.398 9.658c1.15-2.428.752-5.413-1.25-7.413a6.466 6.466 0 0 0-9.17 0c-2.527 2.543-2.527 6.685 0 9.227a6.45 6.45 0 0 0 4.585 1.914c.951 0 1.902-.243 2.783-.657l19.178 19.295L9.36 51.32c-.866-.414-1.803-.657-2.783-.657a6.44 6.44 0 0 0-4.585 1.914c-2.526 2.542-2.526 6.684 0 9.226a6.45 6.45 0 0 0 9.17 0c1.988-2 2.385-4.984 1.25-7.412l22.216-22.352zM5.03 8.401a2.2 2.2 0 0 1 0-3.1c.426-.428.98-.642 1.533-.642a2.13 2.13 0 0 1 1.533.643 2.2 2.2 0 0 1 0 3.1 2.167 2.167 0 0 1-3.08 0zm3.08 50.317a2.167 2.167 0 0 1-3.08 0 2.2 2.2 0 0 1 0-3.1 2.14 2.14 0 0 1 1.533-.642 2.14 2.14 0 0 1 1.533.643 2.2 2.2 0 0 1 0 3.1z" /><path d="M56.02 32.01 33.79 9.658c1.15-2.428.752-5.413-1.25-7.413a6.466 6.466 0 0 0-9.17 0c-2.526 2.543-2.526 6.685 0 9.227a6.45 6.45 0 0 0 4.586 1.914c.95 0 1.902-.243 2.782-.657l19.178 19.295L30.752 51.32c-.866-.414-1.802-.657-2.782-.657a6.44 6.44 0 0 0-4.585 1.914c-2.527 2.542-2.527 6.684 0 9.226a6.45 6.45 0 0 0 9.17 0c1.987-2 2.385-4.984 1.25-7.412L56.02 32.039zM26.437 8.401a2.2 2.2 0 0 1 0-3.1c.426-.428.98-.642 1.533-.642a2.13 2.13 0 0 1 1.533.643 2.2 2.2 0 0 1 0 3.1 2.167 2.167 0 0 1-3.08 0zm3.066 50.317a2.167 2.167 0 0 1-3.08 0 2.2 2.2 0 0 1 0-3.1 2.14 2.14 0 0 1 1.533-.642 2.14 2.14 0 0 1 1.533.643 2.2 2.2 0 0 1 0 3.1z" /></symbol><symbol fill="none" viewBox="0 0 97 97" id="corner"><path fill="#68C4D7" d="m31.146 31.964.001 41.862c-3.517 1.19-6.058 4.359-6.06 8.111v.001c0 4.766 4.071 8.64 9.075 8.64 5-.001 9.07-3.877 9.073-8.64 0-2.382-1.017-4.543-2.66-6.107-.946-.9-2.113-1.571-3.398-2.007V37.705h37.924a8.5 8.5 0 0 0 2.112 3.24c1.713 1.63 3.993 2.53 6.416 2.529 5.002 0 9.073-3.876 9.074-8.641 0-2.381-1.018-4.542-2.66-6.106s-3.912-2.535-6.415-2.535c-3.94.002-7.267 2.422-8.518 5.771H31.147zm6.06 49.973c.001 1.6-1.364 2.9-3.044 2.9-.84.002-1.6-.324-2.153-.85a2.82 2.82 0 0 1-.893-2.05c0-1.598 1.367-2.897 3.045-2.9 1.677 0 3.048 1.302 3.044 2.899zm46.423-50.002c1.677 0 3.047 1.303 3.043 2.899.002 1.6-1.364 2.9-3.045 2.9a3.1 3.1 0 0 1-2.15-.849 2.82 2.82 0 0 1-.892-2.05h-.002c.002-1.599 1.367-2.899 3.046-2.9" /></symbol><symbol fill="none" viewBox="0 0 1303 808" id="corners"><path fill="#68C4D7" d="m1271.31 39.962-43.97.001c-1.25-3.35-4.57-5.769-8.51-5.77-5.01 0-9.08 3.876-9.08 8.641 0 4.762 4.07 8.637 9.08 8.64 2.5 0 4.77-.969 6.41-2.533.95-.9 1.65-2.013 2.11-3.236h37.93v36.113c-1.26.424-2.43 1.082-3.4 2.01-1.72 1.632-2.66 3.803-2.66 6.11 0 4.763 4.07 8.639 9.07 8.64 2.5 0 4.77-.969 6.42-2.532 1.64-1.565 2.66-3.726 2.66-6.109 0-3.752-2.54-6.92-6.06-8.11V39.962m-52.48 5.77c-1.68.002-3.05-1.299-3.05-2.898 0-.8.34-1.524.89-2.05.56-.527 1.32-.85 2.16-.85 1.68 0 3.04 1.302 3.04 2.899s-1.36 2.903-3.04 2.898zm52.51 44.205c0 1.598-1.37 2.902-3.05 2.899-1.68 0-3.04-1.3-3.04-2.9 0-.774.31-1.5.89-2.047.57-.547 1.34-.85 2.15-.85v-.001c1.68 0 3.05 1.301 3.05 2.9M35.148 771.493l43.962-.001c1.25 3.349 4.578 5.769 8.518 5.771l.001-.001c5.005 0 9.073-3.876 9.075-8.641-.003-4.762-4.073-8.637-9.076-8.64-2.5 0-4.77.969-6.412 2.533-.946.901-1.65 2.013-2.108 3.237l-37.93-.002-.002-36.111c1.262-.424 2.428-1.083 3.403-2.011 1.713-1.632 2.657-3.803 2.656-6.109 0-4.764-4.07-8.64-9.074-8.641-2.5 0-4.77.969-6.413 2.533-1.642 1.564-2.662 3.725-2.662 6.108.003 3.752 2.544 6.921 6.061 8.111v41.863zm52.48-5.77c1.681-.002 3.046 1.299 3.046 2.898.002.8-.34 1.524-.894 2.05a3.1 3.1 0 0 1-2.152.851c-1.678-.001-3.043-1.303-3.045-2.9 0-1.597 1.367-2.903 3.044-2.898zm-52.51-44.205c0-1.597 1.367-2.902 3.044-2.899 1.68-.001 3.046 1.299 3.045 2.9.001.774-.317 1.5-.89 2.047a3.1 3.1 0 0 1-2.153.85l-.001.001c-1.679-.001-3.044-1.301-3.045-2.899M31.146 31.964l.001 41.862c-3.517 1.19-6.058 4.359-6.06 8.111v.001c0 4.766 4.071 8.64 9.075 8.64 5-.001 9.07-3.877 9.073-8.64 0-2.382-1.017-4.543-2.66-6.107-.946-.9-2.113-1.571-3.398-2.007V37.705h37.924a8.5 8.5 0 0 0 2.112 3.24c1.713 1.63 3.993 2.53 6.416 2.529 5.002 0 9.073-3.876 9.074-8.641 0-2.381-1.018-4.542-2.66-6.106s-3.912-2.535-6.415-2.535c-3.94.002-7.267 2.422-8.518 5.771H31.147zm6.06 49.973c.001 1.6-1.364 2.9-3.044 2.9-.84.002-1.6-.324-2.153-.85a2.82 2.82 0 0 1-.893-2.05c0-1.598 1.367-2.897 3.045-2.9 1.677 0 3.048 1.302 3.044 2.899zm46.423-50.002c1.677 0 3.047 1.303 3.043 2.899.002 1.6-1.364 2.9-3.045 2.9a3.1 3.1 0 0 1-2.15-.849 2.82 2.82 0 0 1-.892-2.05h-.002c.002-1.599 1.367-2.899 3.046-2.9M1271.69 775.491l-.01-41.862c3.52-1.19 6.06-4.359 6.07-8.111l-.01-.001c0-4.766-4.07-8.64-9.07-8.641-5 .002-9.07 3.878-9.07 8.642 0 2.381 1.01 4.542 2.66 6.106.94.901 2.11 1.571 3.4 2.007l-.01 36.119-37.92.001a8.5 8.5 0 0 0-2.11-3.24c-1.71-1.632-3.99-2.53-6.42-2.529-5 0-9.07 3.875-9.07 8.64 0 2.381 1.02 4.542 2.66 6.106s3.91 2.535 6.41 2.535c3.94-.002 7.27-2.422 8.52-5.771h43.96zm-6.06-49.973c0-1.601 1.36-2.901 3.04-2.901.84-.001 1.6.325 2.15.852.56.526.9 1.249.9 2.049 0 1.598-1.37 2.897-3.05 2.9-1.68 0-3.05-1.302-3.04-2.899zm-46.43 50.002c-1.67 0-3.04-1.303-3.04-2.899 0-1.6 1.36-2.9 3.05-2.899.81-.001 1.57.301 2.14.848a2.8 2.8 0 0 1 .9 2.049v.001c0 1.599-1.37 2.899-3.05 2.9" /></symbol><symbol fill="none" viewBox="0 0 43 43" id="facebook"><g clip-path="url(#facebook_a)"><path fill="#3A559F" d="M37.136 0H5.864A5.864 5.864 0 0 0 0 5.864v31.272A5.864 5.864 0 0 0 5.864 43h31.272A5.864 5.864 0 0 0 43 37.136V5.864A5.864 5.864 0 0 0 37.136 0" /><path fill="#fff" d="m28.312 18.954-.433 3.746a.7.7 0 0 1-.689.628h-3.909l-.02 11.104a.5.5 0 0 1-.488.505h-3.96a.487.487 0 0 1-.49-.508V23.327h-2.93a.7.7 0 0 1-.695-.708l-.014-3.745a.705.705 0 0 1 .693-.714h2.947v-3.616c0-4.197 2.492-6.482 6.147-6.482h2.995a.704.704 0 0 1 .697.714v3.152a.7.7 0 0 1-.697.713H25.63c-1.986 0-2.372.977-2.372 2.39v3.13h4.366a.704.704 0 0 1 .689.793" /></g><defs></defs></symbol><clipPath id="facebook_a"><path fill="#fff" d="M0 0h43v43H0z" /></clipPath><symbol fill="none" viewBox="0 0 43 43" id="linkedin"><g clip-path="url(#linkedin_a)"><path fill="#0077B5" d="M37.136 0H5.864A5.864 5.864 0 0 0 0 5.864v31.272A5.864 5.864 0 0 0 5.864 43h31.272A5.864 5.864 0 0 0 43 37.136V5.864A5.864 5.864 0 0 0 37.136 0" /><path fill="#fff" d="M15.49 11.727a3.665 3.665 0 1 1-7.33 0 3.665 3.665 0 0 1 7.33 0M14.66 17.835v16.191a.91.91 0 0 1-.907.911H9.89a.91.91 0 0 1-.909-.908V17.835a.91.91 0 0 1 .91-.909h3.862a.91.91 0 0 1 .906.91M34.85 26.264v7.838a.835.835 0 0 1-.836.836h-4.153a.835.835 0 0 1-.836-.836v-7.596c0-1.134.332-4.964-2.963-4.964-2.554 0-3.074 2.621-3.177 3.799v8.761a.836.836 0 0 1-.823.836H18.05a.83.83 0 0 1-.833-.836V17.765a.83.83 0 0 1 .833-.836h4.012a.835.835 0 0 1 .836.836v1.412c.948-1.422 2.352-2.52 5.35-2.52 6.64 0 6.602 6.201 6.602 9.607" /></g><defs></defs></symbol><clipPath id="linkedin_a"><path fill="#fff" d="M0 0h43v43H0z" /></clipPath><symbol fill="none" viewBox="0 0 192 84" id="logo"><path fill="#264234" d="M94.242 15.685a8.9 8.9 0 0 0-3.623-2.689 13.46 13.46 0 0 0-16.189 4.582v-4.871h-8.117v33.37h8.744v-15.12a29 29 0 0 1 .673-7.636 6.4 6.4 0 0 1 2.477-3.33 6.97 6.97 0 0 1 4.081-1.252 5.2 5.2 0 0 1 3.057.886 4.95 4.95 0 0 1 1.789 2.428 26.7 26.7 0 0 1 .565 6.965v17.059h8.744v-20.74a27.2 27.2 0 0 0-.489-5.925 9.8 9.8 0 0 0-1.712-3.727M162.038 12.707h-9.355l-5.931 17.029c-.322.931-.657 1.878-.934 2.825-.137.458-.426 1.42-.901 2.872l-1.818-5.682-5.902-17.044h-9.676l13.116 33.37h8.545l10.701-27.857zM120.367 36.99a7.35 7.35 0 0 1-5.717 2.718 7.42 7.42 0 0 1-5.763-2.642 11.06 11.06 0 0 1-2.339-7.636 11.08 11.08 0 0 1 2.339-7.636 7.42 7.42 0 0 1 5.763-2.658 7.36 7.36 0 0 1 5.762 2.642 11.03 11.03 0 0 1 2.339 7.546c.18 2.76-.67 5.492-2.384 7.666m6.512-20.19a16.52 16.52 0 0 0-12.229-4.857 18.04 18.04 0 0 0-8.837 2.184 14.85 14.85 0 0 0-6.114 6.277 18.3 18.3 0 0 0-2.155 8.522c-.1 3.381.642 6.734 2.155 9.76a14.2 14.2 0 0 0 6.298 6.108 19.16 19.16 0 0 0 8.653 2.046 16.35 16.35 0 0 0 12.229-4.978 17 17 0 0 0 2.736-3.681 18.2 18.2 0 0 0 2.11-8.842 18 18 0 0 0-2.11-8.813 16.7 16.7 0 0 0-2.736-3.726M180.657 36.929a7.35 7.35 0 0 1-5.763 2.78 7.42 7.42 0 0 1-5.763-2.643 11.07 11.07 0 0 1-2.339-7.636 11.1 11.1 0 0 1 2.339-7.636 7.42 7.42 0 0 1 5.763-2.642 7.36 7.36 0 0 1 5.748 2.642 11.05 11.05 0 0 1 2.339 7.545 11.25 11.25 0 0 1-2.324 7.651zm6.543-20.13a16.5 16.5 0 0 0-12.321-4.917 18 18 0 0 0-8.82 2.184 14.83 14.83 0 0 0-6.115 6.277 18.3 18.3 0 0 0-2.14 8.477 20.5 20.5 0 0 0 2.14 9.728 14.2 14.2 0 0 0 6.298 6.109 19.1 19.1 0 0 0 8.652 2.076 16.33 16.33 0 0 0 12.23-4.978 17.3 17.3 0 0 0 4.845-12.554A17.06 17.06 0 0 0 187.2 16.8" /><path fill="#F25A1A" d="M21.6 37.265a6.48 6.48 0 0 1-5.182 2.596 6.65 6.65 0 0 1-5.885-3.452 15.26 15.26 0 0 1-1.529-7.728 11.3 11.3 0 0 1 2.124-7.467 6.63 6.63 0 0 1 5.244-2.505c2.07-.041 4.038.9 5.305 2.535 1.375 1.68 2.063 4.46 2.063 8.278a12.05 12.05 0 0 1-2.14 7.743m2.094-21.993a12.8 12.8 0 0 0-7.337-3.207 21 21 0 0 0-2.324-.122 12.98 12.98 0 0 0-10.058 4.414Q0 20.77 0 29.262t4.081 12.936a16.52 16.52 0 0 0 12.23 4.841 17.7 17.7 0 0 0 11.924-4.062c2.95-2.719 4.219-7.01 4.219-13.333V0h-8.76zM43.109 26.529a8.12 8.12 0 0 1 1.864-5.712 6.12 6.12 0 0 1 4.204-2.093h.58a5.96 5.96 0 0 1 4.586 2c2.019 2.185.689 5.697-2.827 6.384l-8.454 1.986v-2.55zm12.366 9.957a6.1 6.1 0 0 1-1.804 2.627 5.43 5.43 0 0 1-3.485 1.13 8 8 0 0 1-1.024 0 6.63 6.63 0 0 1-4.081-2.123 7.2 7.2 0 0 1-1.53-2.428l11.298-2.627a13 13 0 0 0 7.337-4.17c2.34-3.054 2.492-7.33-1.223-11.958a14.87 14.87 0 0 0-11.786-4.917 14.3 14.3 0 0 0-10.96 4.627q-4.342 4.734-4.341 12.997a19.1 19.1 0 0 0 3.317 11.5q3.959 5.39 11.984 5.667h.917c3.247.119 6.45-.765 9.172-2.536a14.8 14.8 0 0 0 5.488-7.82h-9.28z" /><path fill="#264234" d="M1.406 58.998v-3.834h63.302v3.848z" /><path fill="#F25A1A" d="M64.586 58.998v-3.834H192v3.848z" /><path fill="#264234" d="M3.546 66.115v14.217H2.69V66.115zM7.536 70.1v2.26a3.87 3.87 0 0 1 3.776-2.535 3.47 3.47 0 0 1 2.644 1.008c.67.773 1.01 1.775.949 2.796v6.72h-.795v-6.324q0-3.48-2.982-3.48a3.24 3.24 0 0 0-3.057 1.679 5.7 5.7 0 0 0-.58 2.81v5.298h-.734V70.101zM25.36 73.078h-.826a2.6 2.6 0 0 0-.916-1.954 3.66 3.66 0 0 0-2.217-.596 3.4 3.4 0 0 0-2.033.535c-.503.34-.788.922-.749 1.528a1.8 1.8 0 0 0 0 .442q.044.183.122.35a1 1 0 0 0 .23.306l.26.245q.161.124.351.199l.366.152.888.244.504.123.489.107 1.055.245.963.335c.342.121.662.297.948.519.23.215.422.468.565.749.178.338.267.717.26 1.1a2.59 2.59 0 0 1-1.116 2.183 4.76 4.76 0 0 1-2.935.824 4.46 4.46 0 0 1-3.057-.991 3.5 3.5 0 0 1-1.116-2.766h.795a2.82 2.82 0 0 0 .887 2.276 3.78 3.78 0 0 0 2.538.764 3.96 3.96 0 0 0 2.308-.626c.558-.354.893-.973.886-1.634a1.5 1.5 0 0 0-.214-.794q-.178-.317-.444-.566a2.5 2.5 0 0 0-.733-.397 6 6 0 0 0-.734-.244l-.795-.184h-.26l-.55-.122-.61-.122-.582-.152a3.5 3.5 0 0 1-.58-.214l-.506-.244a1.4 1.4 0 0 1-.458-.336l-.337-.428a1.6 1.6 0 0 1-.244-.535 3 3 0 0 1 0-.656c-.027-.8.346-1.56.993-2.032a4.6 4.6 0 0 1 2.752-.732 4.36 4.36 0 0 1 2.813.825 3.05 3.05 0 0 1 1.04 2.274M32.989 70.498a3.35 3.35 0 0 0-2.783 1.267 5.57 5.57 0 0 0-.994 3.528c-.011.78.114 1.554.368 2.29a3.8 3.8 0 0 0 1.253 1.726 3.4 3.4 0 0 0 2.17.703 3.3 3.3 0 0 0 2.737-1.298 5.37 5.37 0 0 0 1.024-3.436 5.48 5.48 0 0 0-1.024-3.498 3.34 3.34 0 0 0-2.751-1.267zm-3.777-.397v2.443a3.76 3.76 0 0 1 3.822-2.719 4.13 4.13 0 0 1 3.333 1.528 5.97 5.97 0 0 1 1.253 3.971 5.9 5.9 0 0 1-1.253 3.924 4.465 4.465 0 0 1-5.733.795 3.56 3.56 0 0 1-1.375-1.97v5.925h-.796V70.101zM41.274 70.116v10.233h-.795V70.101zm0-4.001v2.016h-.795v-2.016zM49.162 70.024v.825h-.245a3.35 3.35 0 0 0-2.812 1.375c-.35.447-.59.97-.703 1.527a12.3 12.3 0 0 0-.154 2.107v4.474h-.917V70.101h.78v2.703a4.36 4.36 0 0 1 1.528-2.123 4.33 4.33 0 0 1 2.523-.657M58.624 74.683a4.58 4.58 0 0 0-.947-2.903 3.24 3.24 0 0 0-2.706-1.22 3.27 3.27 0 0 0-2.706 1.16 5.45 5.45 0 0 0-1.116 2.978zm.718 2.183a4.58 4.58 0 0 1-1.436 2.764 4.22 4.22 0 0 1-2.935 1.054 4.26 4.26 0 0 1-3.394-1.527 5.72 5.72 0 0 1-1.268-3.894 5.94 5.94 0 0 1 1.283-3.972 4.19 4.19 0 0 1 3.364-1.527 3.93 3.93 0 0 1 3.316 1.527 6 6 0 0 1 1.163 3.757v.276h-8.286a5.43 5.43 0 0 0 .963 3.283 3.32 3.32 0 0 0 2.874 1.344c.85.026 1.68-.269 2.324-.825a4.03 4.03 0 0 0 1.222-2.32zM66.16 70.498a3.32 3.32 0 0 0-2.735 1.282 5.47 5.47 0 0 0-1.025 3.483 5.37 5.37 0 0 0 1.01 3.451 3.35 3.35 0 0 0 2.766 1.253 3.41 3.41 0 0 0 2.813-1.284 5.38 5.38 0 0 0 1.023-3.481 5.7 5.7 0 0 0-.963-3.36 3.3 3.3 0 0 0-2.95-1.36zm4.586-4.383v14.217h-.764V77.89a3.7 3.7 0 0 1-1.421 2.078 4.59 4.59 0 0 1-5.886-.763 5.9 5.9 0 0 1-1.222-3.94 5.98 5.98 0 0 1 1.253-3.988 4.13 4.13 0 0 1 3.333-1.527 3.9 3.9 0 0 1 3.852 2.673v-6.307zM84.78 70.467a3.32 3.32 0 0 0-2.69 1.313 5.33 5.33 0 0 0-1.07 3.407 5.45 5.45 0 0 0 1.039 3.48 3.593 3.593 0 0 0 5.533 0 6.4 6.4 0 0 0 0-6.948 3.45 3.45 0 0 0-2.766-1.252zm-3.76-4.352v6.414a3.85 3.85 0 0 1 3.897-2.748 4.07 4.07 0 0 1 3.302 1.527 7.08 7.08 0 0 1 0 7.94 4.05 4.05 0 0 1-3.302 1.527 3.805 3.805 0 0 1-3.898-2.886v2.443h-.764V66.115zM99.959 70.101 95.54 81.387q-.305.78-.443 1.099a5 5 0 0 1-.474.764 1.64 1.64 0 0 1-.764.596 3.4 3.4 0 0 1-1.116.152h-.78v-.717q.33.03.657 0c.406.025.809-.082 1.147-.306.328-.27.576-.623.719-1.023q.474-1.1.703-1.65l-4.357-10.201h.887l3.378 8.018q.16.389.458 1.283.383-1.116.474-1.376l3.058-7.91zM111.96 70.101v.703h-2.203v7.558a4 4 0 0 0 0 .49c.02.164.091.319.199.442q.186.16.414.245c.214.08.443.115.671.107q.424-.006.842-.077v.733a7.5 7.5 0 0 1-.964.077 2.7 2.7 0 0 1-.993-.152 2 2 0 0 1-.612-.352 1.18 1.18 0 0 1-.305-.627 4 4 0 0 1-.107-.702v-7.742h-1.896V70.1h1.896v-3.208h.794v3.208zM115.002 66.115v6.307a4.07 4.07 0 0 1 1.375-1.878 3.73 3.73 0 0 1 2.308-.703 3.42 3.42 0 0 1 2.736 1.053c.648.814.974 1.835.919 2.872v6.566h-.796v-6.429a3.83 3.83 0 0 0-.78-2.458 2.76 2.76 0 0 0-2.293-.917 3.06 3.06 0 0 0-2.14.763 3.96 3.96 0 0 0-1.162 2.017 7.7 7.7 0 0 0-.184 1.818v5.191h-.793V66.115zM133.193 74.683a4.58 4.58 0 0 0-.949-2.903 3.24 3.24 0 0 0-2.705-1.22 3.27 3.27 0 0 0-2.66 1.22 5.47 5.47 0 0 0-1.117 2.979zm.717 2.183a4.57 4.57 0 0 1-1.436 2.764 4.23 4.23 0 0 1-2.935 1.054 4.27 4.27 0 0 1-3.395-1.527 5.73 5.73 0 0 1-1.267-3.894 5.93 5.93 0 0 1 1.284-3.972 4.19 4.19 0 0 1 3.363-1.527 3.94 3.94 0 0 1 3.317 1.527 6 6 0 0 1 1.162 3.757v.276h-8.286a5.43 5.43 0 0 0 .963 3.283 3.32 3.32 0 0 0 2.874 1.344 3.4 3.4 0 0 0 2.323-.825 4.03 4.03 0 0 0 1.224-2.32zM146.827 66.083v.719h-.793a2 2 0 0 0-.796.137 1.7 1.7 0 0 0-.489.306c-.132.15-.217.335-.244.534a4 4 0 0 0-.093.595v1.788h2.141v.703h-2.141v9.467h-.794v-9.528h-1.805V70.1h1.774v-1.284a3.8 3.8 0 0 1 .474-2.09 2.17 2.17 0 0 1 1.926-.704zM156.535 70.101v10.231h-.764V78.18a3.75 3.75 0 0 1-3.684 2.458 3.38 3.38 0 0 1-2.707-1.053 4.23 4.23 0 0 1-.916-2.87V70.1h.794v6.413q0 3.422 2.981 3.422a3.05 3.05 0 0 0 2.599-1.253 5.1 5.1 0 0 0 .887-3.055v-5.527zM163.445 70.101v.703h-2.202v7.558a4 4 0 0 0 0 .49c.019.164.089.319.199.442q.183.16.413.245c.215.08.443.115.672.107q.423-.006.841-.077v.733q-.478.07-.963.077a2.7 2.7 0 0 1-.994-.152c-.223-.08-.429-.2-.611-.352a1.17 1.17 0 0 1-.306-.627 4 4 0 0 1-.107-.702v-7.742h-1.895V70.1h2.018v-3.208h.794v3.208zM173.687 70.101v10.231h-.765V78.18a3.75 3.75 0 0 1-3.684 2.458 3.38 3.38 0 0 1-2.614-1.07 4.22 4.22 0 0 1-.917-2.87V70.1h.795v6.413q0 3.422 2.981 3.422a3.06 3.06 0 0 0 2.599-1.253 5.1 5.1 0 0 0 .886-3.055v-5.527zM181.59 70.024v.825h-.306a3.35 3.35 0 0 0-2.813 1.375c-.35.447-.59.97-.703 1.527a12.7 12.7 0 0 0-.153 2.107v4.474h-.795V70.101h.78v2.703a4.36 4.36 0 0 1 1.529-2.123 4.33 4.33 0 0 1 2.461-.657M191.083 74.683a4.58 4.58 0 0 0-.948-2.918 3.24 3.24 0 0 0-2.706-1.22 3.27 3.27 0 0 0-2.705 1.16 5.44 5.44 0 0 0-1.116 2.978zm.688 2.183a4.6 4.6 0 0 1-1.437 2.764 4.23 4.23 0 0 1-2.935 1.054 4.27 4.27 0 0 1-3.394-1.527 5.72 5.72 0 0 1-1.269-3.894 5.94 5.94 0 0 1 1.284-3.972 4.19 4.19 0 0 1 3.363-1.527 3.93 3.93 0 0 1 3.318 1.527 6 6 0 0 1 1.161 3.757v.276h-8.3a5.43 5.43 0 0 0 .963 3.283 3.31 3.31 0 0 0 2.874 1.344 3.4 3.4 0 0 0 2.323-.825 4.02 4.02 0 0 0 1.223-2.32z" /></symbol><symbol fill="none" viewBox="0 0 43 43" id="mail"><g clip-path="url(#mail_a)"><path fill="#fff" d="M6 9h31v25H6z" /><path fill="#F25A1A" d="M34.182 0H8.818C3.956 0 0 3.956 0 8.818v25.364C0 39.044 3.956 43 8.818 43h25.364C39.044 43 43 39.044 43 34.182V8.818C43 3.956 39.044 0 34.182 0m-2.713 12.262-9.972 9.972-9.973-9.972zM8.63 28.389a1.25 1.25 0 0 1-.147-.59V13.522c0-.214.054-.415.148-.591l7.73 7.73zm2.895.67 6.617-6.617 3.356 3.356 3.359-3.36 6.62 6.62zm22.994-1.26c0 .213-.054.414-.148.59l-7.733-7.732 7.73-7.73c.096.176.15.38.15.595z" /></g><defs></defs></symbol><clipPath id="mail_a"><path fill="#fff" d="M0 0h43v43H0z" /></clipPath><symbol fill="none" viewBox="0 0 43 43" id="telegram"><g clip-path="url(#telegram_a)"><path fill="#1C8ADB" d="M37.136 0H5.864A5.864 5.864 0 0 0 0 5.864v31.272A5.864 5.864 0 0 0 5.864 43h31.272A5.864 5.864 0 0 0 43 37.136V5.864A5.864 5.864 0 0 0 37.136 0" /><path fill="#fff" d="m33.213 11.117-.445.16-24.134 8.696a.808.808 0 0 0 .071 1.564l6.247 1.71 1.166 3.42 1.165 3.42a1.11 1.11 0 0 0 1.788.399l3.228-3.05 6.338 4.299c.774.527 1.878.136 2.076-.733l4.198-18.547c.205-.918-.763-1.673-1.698-1.338m-3.081 4.116-10.904 8.913-.513.42a.56.56 0 0 0-.205.362l-.115.948-.315 2.663a.123.123 0 0 1-.245.02l-.887-2.661-.916-2.724a.55.55 0 0 1 .264-.653l11.346-6.504 2.136-1.221c.31-.18.627.213.354.437" /></g><defs></defs></symbol><clipPath id="telegram_a"><path fill="#fff" d="M0 0h43v43H0z" /></clipPath><symbol fill="none" viewBox="0 0 941 75" id="title1"><path fill="#68C4D7" d="M0 6.07h9.88v22.01h7.169l9.284-22.01H36.44l-8.148 19.51c-.852 2.028-1.704 3.485-2.57 4.37-.852.886-1.916 1.457-3.166 1.714v.386c1.25.3 2.3.871 3.138 1.714.823.828 1.675 2.27 2.527 4.284l5.21 12.826h4.457v8.198h-5.58c-2.114 0-3.846-.514-5.209-1.557s-2.54-2.77-3.549-5.198l-6.487-16.011H9.894v22.766H0zM62.829 59.958c-2.967 0-5.621-.486-7.964-1.443s-4.33-2.328-5.962-4.099c-1.632-1.77-2.896-3.927-3.776-6.455s-1.32-5.356-1.32-8.499c0-3.142.44-5.97 1.32-8.498s2.13-4.684 3.776-6.455c1.633-1.771 3.62-3.142 5.962-4.1 2.343-.956 4.997-1.442 7.964-1.442s5.55.486 7.921 1.443c2.356.957 4.358 2.328 5.99 4.099 1.633 1.77 2.896 3.927 3.776 6.455s1.32 5.37 1.32 8.498-.44 5.97-1.32 8.499c-.88 2.528-2.143 4.684-3.776 6.455-1.632 1.771-3.634 3.142-5.99 4.1-2.37.956-5.011 1.442-7.921 1.442m0-7.441c2.768 0 4.954-.843 6.558-2.543s2.413-4.184 2.413-7.47v-6.07c0-3.284-.809-5.784-2.413-7.47-1.604-1.699-3.79-2.541-6.558-2.541s-4.954.842-6.558 2.542-2.414 4.185-2.414 7.47v6.07c0 3.285.81 5.784 2.414 7.47 1.604 1.699 3.79 2.542 6.558 2.542M91.191 19.881h9.653v15.482h14.48V19.881h9.653v39.163h-9.653V42.947h-14.48v16.097h-9.653zM157.342 74.226h-7.992v-19.81h-.454c-.809 2.128-1.76 3.585-2.868 4.37s-2.413 1.172-3.918 1.172q-2.257 0-3.96-1.029c-1.136-.685-2.073-1.828-2.825-3.413-.752-1.6-1.32-3.7-1.703-6.341-.384-2.628-.568-5.87-.568-9.713s.184-7.084.568-9.712.936-4.741 1.703-6.341c.752-1.6 1.703-2.728 2.825-3.414 1.121-.685 2.456-1.028 3.96-1.028s2.811.386 3.918 1.171c1.108.786 2.059 2.243 2.868 4.37h.454V5.157h7.992v19.353h.454c.809-2.128 1.761-3.585 2.868-4.37s2.413-1.172 3.918-1.172q2.257 0 3.96 1.028c1.136.686 2.073 1.829 2.825 3.414s1.32 3.713 1.704 6.341.567 5.87.567 9.712-.184 7.084-.567 9.712q-.575 3.943-1.704 6.342c-.752 1.6-1.703 2.728-2.825 3.413q-1.703 1.029-3.96 1.029c-1.505 0-2.811-.386-3.918-1.171-1.107-.786-2.059-2.243-2.868-4.37h-.454zm-11.683-21.638c1.306 0 2.257-.414 2.868-1.257.61-.828.908-2.214.908-4.142V31.707c0-1.928-.298-3.3-.908-4.142-.596-.828-1.562-1.257-2.868-1.257-1.405 0-2.484.629-3.251 1.9-.752 1.271-1.135 3.599-1.135 6.984v8.498c0 3.385.383 5.713 1.135 6.984.753 1.271 1.832 1.9 3.251 1.9zm15.388 0c1.405 0 2.484-.628 3.251-1.9.752-1.256 1.135-3.585 1.135-6.984v-8.498c0-3.385-.383-5.713-1.135-6.984-.753-1.257-1.831-1.9-3.251-1.9-1.306 0-2.257.415-2.867 1.257-.597.829-.909 2.214-.909 4.142v15.482c0 1.929.298 3.3.909 4.142.61.829 1.561 1.257 2.867 1.257zM199.502 59.958c-3.123 0-5.876-.486-8.29-1.443s-4.443-2.328-6.075-4.099c-1.633-1.77-2.882-3.913-3.734-6.413s-1.277-5.327-1.277-8.455.44-6.041 1.32-8.57c.88-2.527 2.129-4.684 3.733-6.455s3.563-3.142 5.849-4.1c2.285-.956 4.869-1.442 7.736-1.442s5.352.472 7.623 1.414c2.257.943 4.188 2.271 5.764 4 1.589 1.728 2.796 3.813 3.662 6.24.866 2.429 1.278 5.128 1.278 8.07v3.2h-27.312v.985c0 2.828.88 5.128 2.64 6.87s4.23 2.614 7.396 2.614c2.413 0 4.486-.5 6.217-1.486a13.45 13.45 0 0 0 4.344-3.913l5.508 5.513c-1.405 2.057-3.464 3.828-6.147 5.285q-4.046 2.185-10.22 2.185zm-.667-33.85c-2.711 0-4.897.872-6.558 2.6s-2.484 4.027-2.484 6.884v.528h17.645v-.685q0-4.285-2.3-6.813t-6.303-2.528zM226.431 19.881h9.653v6.913h.525c1.051-2.371 2.499-4.27 4.33-5.699 1.831-1.414 4.259-2.128 7.282-2.128 2.215 0 4.23.414 6.076 1.257 1.831.828 3.407 2.1 4.713 3.8s2.314 3.827 3.023 6.412 1.051 5.599 1.051 9.026c0 3.428-.355 6.456-1.051 9.027-.709 2.585-1.717 4.713-3.023 6.413s-2.882 2.956-4.713 3.799-3.861 1.257-6.076 1.257c-3.009 0-5.437-.714-7.282-2.128-1.846-1.414-3.279-3.314-4.33-5.699h-.525v22.08h-9.653zm17.73 32.336c2.811 0 4.997-.857 6.53-2.585 1.533-1.714 2.3-4.071 2.3-7.056v-6.227c0-2.985-.767-5.342-2.3-7.056s-3.705-2.585-6.53-2.585c-2.214 0-4.116.543-5.692 1.628-1.59 1.086-2.371 2.743-2.371 4.97v12.298c0 2.228.795 3.885 2.371 4.97 1.59 1.086 3.478 1.628 5.692 1.628zM290.027 59.958c-3.123 0-5.877-.486-8.305-1.443-2.413-.957-4.443-2.328-6.075-4.099-1.633-1.77-2.882-3.913-3.734-6.413s-1.277-5.327-1.277-8.455.44-6.041 1.32-8.57c.88-2.527 2.129-4.684 3.733-6.455s3.549-3.142 5.849-4.1c2.285-.956 4.869-1.442 7.736-1.442s5.352.472 7.623 1.414c2.257.943 4.188 2.271 5.778 4 1.59 1.728 2.796 3.813 3.662 6.24.852 2.443 1.278 5.128 1.278 8.07v3.2h-27.312v.985c0 2.828.88 5.128 2.64 6.87s4.23 2.614 7.396 2.614c2.413 0 4.486-.5 6.218-1.486a13.45 13.45 0 0 0 4.343-3.913l5.508 5.513c-1.405 2.057-3.463 3.828-6.146 5.285q-4.046 2.185-10.221 2.185zm-.682-33.85c-2.711 0-4.897.872-6.558 2.6s-2.484 4.027-2.484 6.884v.528h17.645v-.685q0-4.285-2.3-6.813t-6.303-2.528zM317.481 19.881h9.653v15.482h14.479V19.881h9.653v39.163h-9.653V42.947h-14.479v16.097h-9.653zM391.921 59.044h-30.094V19.88h9.653v31.564h13.429V19.881h9.653v31.564h6.104v18.21h-8.745V59.03zM409.651 51.46h12.819V27.48h-12.819v-7.585h22.472V51.46h11.924v7.584h-34.396zm17.645-37.649c-2.257 0-3.861-.486-4.783-1.442-.937-.957-1.392-2.128-1.392-3.485V7.07c0-1.371.469-2.528 1.392-3.485.936-.957 2.526-1.443 4.783-1.443s3.862.486 4.784 1.443c.937.957 1.391 2.128 1.391 3.485v1.814c0 1.37-.468 2.528-1.391 3.485-.937.957-2.526 1.442-4.784 1.442M451.443 51.46h4.443l2.342-4.285c1.207-2.2 3.01-3.314 5.437-3.37v-.458c-3.222-.257-5.848-1.257-7.878-3.042-2.03-1.77-3.052-4.356-3.052-7.741 0-1.928.312-3.67.937-5.242q.936-2.355 2.682-3.985c1.15-1.085 2.527-1.928 4.117-2.542s3.35-.914 5.323-.914h20.442v39.163h-9.653v-14.34h-6.189l-4.827 8.884c-1.164 2.028-2.37 3.442-3.662 4.256-1.278.814-2.953 1.214-5.011 1.214h-5.437v-7.584zm25.112-24.366h-8.972c-1.604 0-2.853.428-3.733 1.285s-1.321 1.943-1.321 3.27v1.743c0 1.314.441 2.4 1.321 3.271.88.857 2.129 1.286 3.733 1.286h8.972zM543.912 59.044v-7.441h11.839V13.51h-11.839V6.07h33.487v7.441H565.56v38.092h11.839v7.44zM610.815 14.268v44.776h-9.809V14.268h-15.842V6.07h41.493v8.198zM639.49 40.676v-9.483h23.379v9.483zM679.989 19.881h9.653v15.41h6.104l8.673-15.41h10.491l-7.992 14.011q-1.278 2.27-2.683 3.214a9.1 9.1 0 0 1-3.137 1.328v.457q1.959.386 3.279 1.457c.88.714 1.774 1.942 2.683 3.67l3.918 7.427h4.23v7.584h-5.281c-1.859 0-3.449-.414-4.755-1.257-1.306-.842-2.484-2.213-3.549-4.141l-5.806-10.784h-6.189v16.168h-9.653V19.881zM742.591 59.958c-3.123 0-5.891-.486-8.304-1.443s-4.444-2.328-6.076-4.099c-1.632-1.77-2.882-3.913-3.733-6.413-.852-2.5-1.278-5.327-1.278-8.455s.44-6.041 1.32-8.57c.88-2.527 2.13-4.684 3.734-6.455s3.563-3.142 5.848-4.1c2.286-.956 4.869-1.442 7.737-1.442 2.867 0 5.351.472 7.623 1.414 2.271.943 4.187 2.271 5.777 4 1.59 1.728 2.797 3.813 3.662 6.24.852 2.443 1.278 5.128 1.278 8.07v3.2h-27.312v.985c0 2.828.88 5.128 2.64 6.87s4.231 2.614 7.396 2.614c2.414 0 4.486-.5 6.218-1.486a13.45 13.45 0 0 0 4.344-3.913l5.507 5.513c-1.405 2.057-3.463 3.828-6.146 5.285q-4.045 2.185-10.221 2.185zm-.667-33.85c-2.712 0-4.898.872-6.558 2.6s-2.485 4.027-2.485 6.884v.528h17.645v-.685q0-4.285-2.299-6.813t-6.303-2.528zM770.045 19.881h9.426v14.797l-.824 11.083h.455l15.686-25.88h9.056v39.163h-9.426V44.247l.824-11.083h-.454l-15.686 25.88h-9.057zm16.907-4.627c-5.934 0-10.008-2.728-12.223-8.198l-1.731-4.257 7.764-2.813 2.57 8.126q.596.236 1.618.386c.681.1 1.349.157 2.002.157s1.32-.057 2.001-.157q1.023-.15 1.618-.386l2.57-8.126 7.765 2.813-1.732 4.257c-2.215 5.47-6.289 8.198-12.222 8.198M833.711 59.958c-2.966 0-5.635-.486-7.992-1.443-2.37-.957-4.358-2.328-5.99-4.099-1.633-1.77-2.896-3.927-3.776-6.455s-1.32-5.356-1.32-8.499c0-3.142.44-5.97 1.32-8.498s2.129-4.684 3.776-6.455c1.632-1.771 3.62-3.142 5.962-4.1 2.342-.956 4.997-1.442 7.964-1.442 4.116 0 7.438.857 9.951 2.585 2.512 1.714 4.429 4 5.735 6.827l-7.467 4.1c-.71-1.672-1.704-3.029-2.981-4.057-1.278-1.028-3.024-1.557-5.238-1.557-2.868 0-5.068.829-6.601 2.5-1.533 1.67-2.3 3.942-2.3 6.827v6.527c0 2.828.767 5.099 2.3 6.798 1.533 1.7 3.79 2.543 6.757 2.543 2.314 0 4.159-.529 5.55-1.6 1.377-1.057 2.499-2.485 3.35-4.256l7.24 4.327c-1.306 2.785-3.279 5.042-5.92 6.799-2.64 1.742-6.075 2.614-10.291 2.614zM862.23 51.46h12.818V27.48H862.23v-7.585h22.471V51.46h11.925v7.584H862.23zm17.645-37.649c-2.257 0-3.861-.486-4.784-1.442-.937-.957-1.391-2.128-1.391-3.485V7.07c0-1.371.468-2.528 1.391-3.485s2.527-1.443 4.784-1.443 3.861.486 4.784 1.443c.937.957 1.391 2.128 1.391 3.485v1.814c0 1.37-.469 2.528-1.391 3.485-.937.957-2.527 1.442-4.784 1.442M906.733 19.881h21.577c3.463 0 6.146.928 8.034 2.771s2.825 4.242 2.825 7.17c0 4.756-2.697 7.612-8.077 8.57v.3c2.867.256 5.167 1.085 6.899 2.499s2.598 3.599 2.598 6.527c0 1.614-.284 3.113-.824 4.484a10.5 10.5 0 0 1-2.37 3.571c-1.037 1.014-2.3 1.814-3.805 2.385-1.504.572-3.222.871-5.124.871h-21.719V19.881zm18.851 16.325c1.263 0 2.2-.343 2.825-1.028.625-.686.937-1.6.937-2.771v-1.671c0-1.157-.312-2.085-.937-2.771s-1.576-1.028-2.825-1.028h-9.426v9.255h9.426zm.98 15.782c2.81 0 4.23-1.314 4.23-3.942v-1.742c0-2.628-1.406-3.942-4.23-3.942h-10.406v9.64h10.406z" /></symbol><symbol fill="none" viewBox="0 0 793 85" id="title2"><path fill="#fff" d="M.81 61.777h6.104l7.822-16.354c.951-2.042 1.945-3.485 2.953-4.356 1.022-.857 2.285-1.457 3.818-1.77v-.472c-5.848-.314-10.206-2.071-13.074-5.242-2.867-3.17-4.287-7.427-4.287-12.74 0-5.841 1.604-10.469 4.812-13.897 3.208-3.427 7.808-5.141 13.784-5.141h23.366v66.984h-8.006V40.096H26.078l-10.49 21.91q-1.917 3.92-3.96 5.355c-1.364.957-2.968 1.428-4.813 1.428H.81zM38.102 8.803H22.94c-3.18 0-5.692.843-7.538 2.542q-2.768 2.55-2.768 8.013v3.17q0 5.464 2.768 8.013c1.845 1.7 4.358 2.542 7.538 2.542H38.1zM61.95 1.79h8.006v29.465h11.74L95.82 1.79h8.489l-12.69 26.452c-1.08 2.242-2.102 3.784-3.053 4.641q-1.426 1.286-3.151 1.586v.485c1.405.329 2.57.971 3.535 1.971.95 1 2.001 2.8 3.151 5.428l8.588 19.424h6.204v7.012h-6.005c-1.902 0-3.592-.557-5.054-1.685-1.462-1.114-2.74-2.928-3.818-5.427L81.71 38.254H69.97v30.521h-8.006V1.79zM117.284 85v-7.013h45.78V85zM216.197 68.775h-39.775V1.79h8.006v59.987h23.948V1.79h8.006v59.987h7.154v21.395h-7.339zM234.609 68.775V1.79h41.01v7.013h-33.004v22.552h31.855v7.013h-31.855V61.79h33.004v7.013h-41.01zM288.977 85v-7.013h45.781V85zM367.293 69.932c-5.465 0-10.064-1.128-13.783-3.4-3.72-2.27-6.786-5.098-9.199-8.497l5.82-4.8c4.699 6.47 10.434 9.699 17.162 9.699 4.387 0 7.879-1.057 10.491-3.157s3.904-5.099 3.904-8.983V48.78c0-3.257-1.108-5.913-3.336-7.984-2.229-2.071-5.693-3.114-10.391-3.114h-9.341V30.67h8.773c8.588 0 12.875-3.627 12.875-10.897v-2c0-3.056-1.065-5.513-3.194-7.355s-5.295-2.77-9.497-2.77c-3.69 0-6.714.67-9.056 2.013-2.357 1.343-4.287 3.17-5.82 5.47l-6.005-3.942c2.285-3.399 5.096-6.013 8.446-7.827 3.336-1.813 7.495-2.727 12.45-2.727 6.998 0 12.25 1.6 15.785 4.798 3.535 3.2 5.295 7.484 5.295 12.855q0 7.006-3.62 10.797c-2.413 2.528-5.437 4.085-9.057 4.656v.486c1.973.257 3.819.742 5.536 1.442 1.718.7 3.209 1.7 4.486 2.971 1.278 1.286 2.286 2.87 3.052 4.756.767 1.886 1.15 4.085 1.15 6.57 0 2.942-.525 5.642-1.576 8.113a17.5 17.5 0 0 1-4.528 6.327c-1.973 1.756-4.372 3.113-7.197 4.085-2.825.956-6.033 1.442-9.582 1.442zM406.302 68.775V1.79h24.232c6.161 0 10.874 1.7 14.125 5.085 3.25 3.4 4.869 8.127 4.869 14.211s-1.619 10.812-4.869 14.197c-3.251 3.399-7.95 5.084-14.125 5.084h-16.211v28.408h-8.021m8.007-35.406h16.026c3.365 0 5.991-.843 7.865-2.542q2.81-2.55 2.81-7.242v-4.984c0-3.128-.937-5.556-2.81-7.241-1.874-1.7-4.5-2.543-7.865-2.543h-16.026v24.566zM483.568 69.932c-4.074 0-7.566-.785-10.49-2.357-2.925-1.57-5.338-3.827-7.254-6.77-1.902-2.942-3.308-6.555-4.202-10.84s-1.334-9.184-1.334-14.682.44-10.312 1.334-14.64c.894-4.313 2.286-7.955 4.202-10.897 1.902-2.942 4.329-5.2 7.254-6.77 2.924-1.571 6.416-2.357 10.49-2.357s7.566.786 10.491 2.357c2.924 1.57 5.337 3.828 7.253 6.77 1.903 2.942 3.308 6.57 4.202 10.897.895 4.313 1.335 9.198 1.335 14.64 0 5.441-.44 10.397-1.335 14.682-.894 4.285-2.285 7.898-4.202 10.84-1.902 2.943-4.329 5.2-7.253 6.77-2.925 1.572-6.431 2.357-10.491 2.357m0-7.013q4.003 0 6.771-1.585c1.846-1.057 3.365-2.542 4.586-4.456 1.206-1.914 2.086-4.242 2.626-6.956q.809-4.07.809-9.17v-10.94c0-3.327-.27-6.37-.809-9.112-.54-2.756-1.42-5.084-2.626-7.012-1.207-1.914-2.74-3.414-4.586-4.456q-2.767-1.586-6.771-1.586t-6.771 1.586c-1.845 1.057-3.379 2.542-4.585 4.456-1.207 1.913-2.087 4.256-2.626 7.012-.54 2.757-.81 5.799-.81 9.113v10.94c0 3.4.27 6.441.81 9.17.539 2.713 1.419 5.041 2.626 6.955s2.74 3.413 4.585 4.456q2.768 1.585 6.771 1.585M520.292 1.79h37.575v7.013h-29.569V28.67h16.41c5.976 0 10.575 1.728 13.784 5.185 3.208 3.456 4.812 8.412 4.812 14.882s-1.604 11.426-4.812 14.882c-3.209 3.457-7.808 5.185-13.784 5.185h-24.416V1.79m24.217 59.987c3.18 0 5.692-.843 7.538-2.543q2.768-2.55 2.768-8.012v-4.985q0-5.462-2.768-8.012c-1.846-1.7-4.358-2.542-7.538-2.542h-16.211V61.79h16.211zM611.1 8.803h-18.695V20.9c0 6.913-.213 12.826-.625 17.753-.412 4.928-1.008 9.084-1.76 12.483-.767 3.4-1.718 6.17-2.868 8.356-1.15 2.17-2.441 3.999-3.904 5.47-1.334 1.342-2.824 2.313-4.485 2.928s-3.62.914-5.92.914h-2.952V61.79h6.388c1.462-1.4 2.725-3.114 3.761-5.142s1.902-4.613 2.57-7.77c.667-3.17 1.164-7.055 1.476-11.654.312-4.613.483-10.24.483-16.896V1.805h34.523v66.984h-8.006V8.803zM635.232 68.775V1.79h41.011v7.013h-33.005v22.552h31.855v7.013h-31.855V61.79h33.005v7.013h-41.011zM725.458 38.354h-25.949v30.421h-8.006V1.79h8.006v29.565h25.949V1.79h8.006v66.985h-8.006zM769.72 69.932c-4.075 0-7.567-.785-10.491-2.357-2.924-1.57-5.337-3.827-7.254-6.77-1.902-2.942-3.307-6.555-4.202-10.84-.894-4.285-1.334-9.184-1.334-14.682s.44-10.312 1.334-14.64c.895-4.313 2.286-7.955 4.202-10.897 1.902-2.942 4.33-5.2 7.254-6.77 2.924-1.571 6.416-2.357 10.491-2.357s7.566.786 10.49 2.357c2.924 1.57 5.337 3.828 7.254 6.77 1.902 2.942 3.307 6.57 4.202 10.897.894 4.313 1.334 9.198 1.334 14.64 0 5.441-.44 10.397-1.334 14.682s-2.286 7.898-4.202 10.84c-1.902 2.943-4.33 5.2-7.254 6.77-2.924 1.572-6.431 2.357-10.49 2.357m0-7.013q4.002 0 6.771-1.585c1.845-1.057 3.364-2.542 4.585-4.456 1.206-1.914 2.087-4.242 2.626-6.956q.809-4.07.809-9.17v-10.94c0-3.327-.27-6.37-.809-9.112-.539-2.756-1.42-5.084-2.626-7.012-1.207-1.914-2.74-3.414-4.585-4.456q-2.769-1.586-6.771-1.586-4.003 0-6.772 1.586c-1.845 1.057-3.378 2.542-4.585 4.456-1.206 1.913-2.087 4.256-2.626 7.012-.539 2.757-.809 5.799-.809 9.113v10.94c0 3.4.27 6.441.809 9.17.539 2.713 1.42 5.041 2.626 6.955 1.207 1.914 2.74 3.413 4.585 4.456q2.769 1.585 6.772 1.585" /></symbol><symbol fill="none" viewBox="0 0 43 43" id="youtube"><g clip-path="url(#youtube_a)"><path fill="#E60000" d="M37.136 0H5.864A5.864 5.864 0 0 0 0 5.864v31.272A5.864 5.864 0 0 0 5.864 43h31.272A5.864 5.864 0 0 0 43 37.136V5.864A5.864 5.864 0 0 0 37.136 0" /><path fill="#fff" d="M34.31 15.035c-.538-1.654-2.317-2.656-3.954-2.885a84 84 0 0 0-17.713 0c-1.636.23-3.42 1.221-3.953 2.885a33.6 33.6 0 0 0 0 12.932c.538 1.652 2.317 2.656 3.954 2.885a84 84 0 0 0 17.713 0c1.637-.23 3.42-1.221 3.953-2.885.838-4.27.838-8.662 0-12.932M18.285 26.65v-10.3l8.385 5.15z" /></g><defs></defs></symbol><clipPath id="youtube_a"><path fill="#fff" d="M0 0h43v43H0z" /></clipPath></defs></svg>