<svg width="17" height="33" viewBox="0 0 17 33" fill="none" xmlns="http://www.w3.org/2000/svg">
<path d="M17 16.5L6.06089 5.20844C6.62509 3.98388 6.42933 2.47655 5.44944 1.46393H5.44888C4.20349 0.178401 2.17846 0.178982 0.933061 1.46393C-0.310646 2.74887 -0.310646 4.83974 0.933624 6.12526C1.55576 6.76744 2.37365 7.08911 3.19097 7.08911C3.66179 7.08911 4.12755 6.97008 4.56124 6.75757L13.999 16.5L4.56293 26.2408C4.13824 26.0312 3.67585 25.9092 3.19097 25.9092C2.33821 25.9092 1.53607 26.2524 0.933624 26.8748C-0.311208 28.1598 -0.311208 30.2506 0.933624 31.5361C1.55576 32.1783 2.37365 32.5 3.19097 32.5C4.0083 32.5 4.82675 32.1789 5.44944 31.5361C6.42933 30.5235 6.62509 29.0162 6.06089 27.7916L17 16.5ZM2.43383 4.57729C2.01533 4.14588 2.01533 3.44447 2.43327 3.01306C2.64196 2.79706 2.91647 2.68965 3.19153 2.68965C3.4666 2.68965 3.73998 2.79764 3.94923 3.01306C4.36661 3.44447 4.36605 4.14588 3.94923 4.57729C3.53241 5.00812 2.85122 5.00928 2.4344 4.57729H2.43383ZM3.94867 29.9876C3.53185 30.4184 2.85065 30.419 2.43383 29.9876C2.01533 29.5562 2.01533 28.8548 2.43383 28.4234C2.63578 28.2143 2.90465 28.1 3.19041 28.1C3.47616 28.1 3.7456 28.2149 3.94811 28.4234H3.94867C4.36605 28.8548 4.36605 29.5562 3.94867 29.9876Z" fill="white"/>
</svg>
