<svg width="97" height="97" viewBox="0 0 97 97" fill="none" xmlns="http://www.w3.org/2000/svg">
<path d="M31.1463 31.9643L31.1474 73.8259C27.6299 75.0163 25.0889 78.185 25.0866 81.9371L25.0878 81.9382C25.0878 86.7042 29.1581 90.5779 34.162 90.5789C39.1626 90.5768 43.2329 86.7009 43.2351 81.9371C43.2351 79.5563 42.2178 77.395 40.5755 75.8311C39.6294 74.9302 38.4618 74.2597 37.1766 73.8237L37.1777 37.7054L75.1013 37.7044C75.5466 38.9055 76.2384 40.0163 77.2127 40.9441C78.9263 42.5758 81.2062 43.4746 83.6285 43.4735C88.6313 43.4735 92.7016 39.5976 92.7027 34.8327C92.7027 32.4519 91.6854 30.2906 90.043 28.7267C88.4007 27.1628 86.131 26.192 83.6284 26.192C79.6881 26.1941 76.3605 28.6137 75.1103 31.9632L31.1474 31.9632L31.1463 31.9643ZM37.206 81.9371C37.2071 83.5376 35.8417 84.8378 34.162 84.8378C33.3222 84.8389 32.5615 84.5127 32.0087 83.9864C31.456 83.4601 31.1169 82.7368 31.1158 81.9371C31.1169 80.3388 32.4835 79.0396 34.1609 79.0375C35.8383 79.0375 37.2094 80.3388 37.2049 81.936L37.206 81.9371ZM83.6285 31.9352C85.3059 31.9352 86.6758 33.2376 86.6724 34.8338C86.6736 36.4343 85.3081 37.7345 83.6273 37.7334C82.8146 37.7345 82.0516 37.432 81.4774 36.8853C80.9032 36.3385 80.5856 35.6098 80.5845 34.8359L80.5834 34.8349C80.5845 33.2365 81.9499 31.9363 83.6285 31.9352Z" fill="#68C4D7"/>
</svg>
