<svg width="793" height="85" viewBox="0 0 793 85" fill="none" xmlns="http://www.w3.org/2000/svg">
<path d="M0.810181 61.7767H6.91422L14.7359 45.4233C15.687 43.3809 16.6807 41.9384 17.6885 41.0671C18.7106 40.2102 19.974 39.6103 21.5071 39.2961V38.8248C15.6586 38.5106 11.3006 36.7538 8.43314 33.5831C5.56566 30.4124 4.14611 26.1562 4.14611 20.8432C4.14611 15.0016 5.7502 10.3741 8.95836 6.94635C12.1665 3.51856 16.7658 1.80466 22.7421 1.80466H46.1078V68.7894H38.1016V40.0959H26.078L15.5876 62.0052C14.31 64.6189 12.9899 66.4042 11.6271 67.3611C10.2643 68.3181 8.66024 68.7894 6.81484 68.7894H0.810181V61.7767ZM38.1016 8.80306H22.9408C19.7611 8.80306 17.2485 9.64573 15.4031 11.3453C13.5577 13.045 12.635 15.7158 12.635 19.3578V22.5285C12.635 26.1705 13.5577 28.8414 15.4031 30.541C17.2485 32.2406 19.7611 33.0832 22.9408 33.0832H38.1016V8.80306Z" fill="white"/>
<path d="M61.9499 1.79037H69.9561V31.2551H81.6957L95.8202 1.79037H104.309L91.6184 28.2415C90.5395 30.4838 89.5174 32.0263 88.5663 32.8833C87.6152 33.7402 86.5648 34.2687 85.4149 34.4686V34.9542C86.8203 35.2827 87.9843 35.9254 88.9496 36.9252C89.9007 37.925 90.9512 39.7246 92.101 42.3526L100.689 61.7767H106.893V68.7894H100.888C98.9858 68.7894 97.2965 68.2324 95.8344 67.1041C94.3723 65.99 93.0947 64.1762 92.0158 61.6767L81.7099 38.2535H69.9703V68.7751H61.9641V1.79037H61.9499Z" fill="white"/>
<path d="M117.284 85V77.9873H163.064V85H117.284Z" fill="white"/>
<path d="M216.197 68.7751H176.422V1.79037H184.428V61.7767H208.376V1.79037H216.382V61.7767H223.536V83.1718H216.197V68.7751Z" fill="white"/>
<path d="M234.609 68.7751V1.79037H275.619V8.80306H242.615V31.3551H274.47V38.3677H242.615V61.791H275.619V68.8037H234.609V68.7751Z" fill="white"/>
<path d="M288.977 85V77.9873H334.758V85H288.977Z" fill="white"/>
<path d="M367.293 69.932C361.828 69.932 357.229 68.8037 353.51 66.5328C349.79 64.2619 346.724 61.4339 344.311 58.0347L350.131 53.2358C354.83 59.7058 360.565 62.9336 367.293 62.9336C371.68 62.9336 375.172 61.8767 377.784 59.7772C380.396 57.6777 381.688 54.6783 381.688 50.7935V48.7797C381.688 45.5233 380.58 42.8667 378.352 40.7958C376.123 38.7248 372.659 37.6822 367.961 37.6822H358.62V30.6695H367.393C375.981 30.6695 380.268 27.0418 380.268 19.772V17.7725C380.268 14.716 379.203 12.2594 377.074 10.417C374.945 8.57457 371.779 7.64621 367.577 7.64621C363.887 7.64621 360.863 8.31748 358.521 9.66003C356.164 11.0026 354.234 12.8307 352.701 15.1302L346.696 11.1882C348.981 7.78902 351.792 5.17534 355.142 3.36147C358.478 1.5476 362.637 0.633514 367.592 0.633514C374.59 0.633514 379.842 2.23315 383.377 5.43242C386.912 8.63169 388.672 12.9164 388.672 18.2866C388.672 22.957 387.465 26.5562 385.052 29.0842C382.639 31.6122 379.615 33.169 375.995 33.7403V34.2259C377.968 34.4829 379.814 34.9685 381.531 35.6684C383.249 36.3682 384.74 37.368 386.017 38.6391C387.295 39.9246 388.303 41.5099 389.069 43.3952C389.836 45.2805 390.219 47.48 390.219 49.9651C390.219 52.9073 389.694 55.6067 388.643 58.0776C387.593 60.5484 386.088 62.6479 384.115 64.4047C382.142 66.1614 379.743 67.5183 376.918 68.4895C374.093 69.4464 370.885 69.932 367.336 69.932H367.293Z" fill="white"/>
<path d="M406.302 68.7751V1.79037H430.534C436.695 1.79037 441.408 3.48998 444.659 6.87493C447.909 10.2742 449.528 15.0016 449.528 21.086C449.528 27.1703 447.909 31.8978 444.659 35.2827C441.408 38.682 436.709 40.3673 430.534 40.3673H414.323V68.7751H406.317H406.302ZM414.309 33.3689H430.335C433.7 33.3689 436.326 32.5262 438.2 30.8266C440.073 29.127 441.01 26.7133 441.01 23.5854V18.6008C441.01 15.473 440.073 13.0449 438.2 11.3596C436.326 9.66 433.7 8.81734 430.335 8.81734H414.309V33.3832V33.3689Z" fill="white"/>
<path d="M483.568 69.932C479.494 69.932 476.002 69.1465 473.078 67.5754C470.153 66.0043 467.74 63.7477 465.824 60.8055C463.922 57.8633 462.516 54.2499 461.622 49.9651C460.728 45.6804 460.288 40.7815 460.288 35.2828C460.288 29.784 460.728 24.9708 461.622 20.6432C462.516 16.3299 463.908 12.6879 465.824 9.74572C467.726 6.80354 470.153 4.5469 473.078 2.97583C476.002 1.40476 479.494 0.619232 483.568 0.619232C487.642 0.619232 491.134 1.40476 494.059 2.97583C496.983 4.5469 499.396 6.80354 501.312 9.74572C503.215 12.6879 504.62 16.3156 505.514 20.6432C506.409 24.9565 506.849 29.8411 506.849 35.2828C506.849 40.7244 506.409 45.6804 505.514 49.9651C504.62 54.2499 503.229 57.8633 501.312 60.8055C499.41 63.7477 496.983 66.0043 494.059 67.5754C491.134 69.1465 487.628 69.932 483.568 69.932ZM483.568 62.9193C486.237 62.9193 488.494 62.3909 490.339 61.334C492.185 60.2771 493.704 58.7917 494.925 56.8778C496.131 54.964 497.011 52.6359 497.551 49.9223C498.09 47.2086 498.36 44.1522 498.36 40.7529V29.8126C498.36 26.4848 498.09 23.4426 497.551 20.7004C497.011 17.9438 496.131 15.6158 494.925 13.6877C493.718 11.7738 492.185 10.2742 490.339 9.23155C488.494 8.17465 486.237 7.6462 483.568 7.6462C480.899 7.6462 478.642 8.17465 476.797 9.23155C474.952 10.2885 473.418 11.7738 472.212 13.6877C471.005 15.6015 470.125 17.9438 469.586 20.7004C469.046 23.4569 468.776 26.499 468.776 29.8126V40.7529C468.776 44.1522 469.046 47.1943 469.586 49.9223C470.125 52.6359 471.005 54.964 472.212 56.8778C473.418 58.7917 474.952 60.2913 476.797 61.334C478.642 62.3909 480.899 62.9193 483.568 62.9193Z" fill="white"/>
<path d="M520.292 1.79037H557.867V8.80306H528.298V28.67H544.708C550.684 28.67 555.283 30.3981 558.492 33.8545C561.7 37.3108 563.304 42.2669 563.304 48.7368C563.304 55.2068 561.7 60.1628 558.492 63.6191C555.283 67.0755 550.684 68.8037 544.708 68.8037H520.292V1.81893V1.79037ZM544.509 61.7767C547.689 61.7767 550.201 60.934 552.047 59.2344C553.892 57.5348 554.815 54.864 554.815 51.222V46.2374C554.815 42.5953 553.892 39.9245 552.047 38.2249C550.201 36.5253 547.689 35.6826 544.509 35.6826H528.298V61.791H544.509V61.7767Z" fill="white"/>
<path d="M611.1 8.80306H592.405V20.9003C592.405 27.813 592.192 33.726 591.78 38.6534C591.368 43.5808 590.772 47.737 590.02 51.1363C589.253 54.5355 588.302 57.3063 587.152 59.4915C586.002 61.6624 584.711 63.4906 583.248 64.9617C581.914 66.3042 580.424 67.2755 578.763 67.8896C577.102 68.5037 575.143 68.8037 572.843 68.8037H569.891V61.791H576.279C577.741 60.3913 579.004 58.6774 580.04 56.6493C581.077 54.6212 581.942 52.0361 582.61 48.8796C583.277 45.7089 583.774 41.8241 584.086 37.2252C584.398 32.6119 584.569 26.9846 584.569 20.329V1.80466H619.092V68.7894H611.086V8.80306H611.1Z" fill="white"/>
<path d="M635.232 68.7751V1.79037H676.243V8.80306H643.238V31.3551H675.093V38.3677H643.238V61.791H676.243V68.8037H635.232V68.7751Z" fill="white"/>
<path d="M725.458 38.3535H699.509V68.7751H691.503V1.79037H699.509V31.3551H725.458V1.79037H733.464V68.7751H725.458V38.3535Z" fill="white"/>
<path d="M769.72 69.932C765.645 69.932 762.153 69.1465 759.229 67.5754C756.305 66.0043 753.892 63.7477 751.975 60.8055C750.073 57.8633 748.668 54.2499 747.773 49.9651C746.879 45.6804 746.439 40.7815 746.439 35.2828C746.439 29.784 746.879 24.9708 747.773 20.6432C748.668 16.3299 750.059 12.6879 751.975 9.74572C753.877 6.80354 756.305 4.5469 759.229 2.97583C762.153 1.40476 765.645 0.619232 769.72 0.619232C773.794 0.619232 777.286 1.40476 780.21 2.97583C783.134 4.5469 785.547 6.80354 787.464 9.74572C789.366 12.6879 790.771 16.3156 791.666 20.6432C792.56 24.9565 793 29.8411 793 35.2828C793 40.7244 792.56 45.6804 791.666 49.9651C790.771 54.2499 789.38 57.8633 787.464 60.8055C785.562 63.7477 783.134 66.0043 780.21 67.5754C777.286 69.1465 773.779 69.932 769.72 69.932ZM769.72 62.9193C772.388 62.9193 774.645 62.3909 776.491 61.334C778.336 60.2771 779.855 58.7917 781.076 56.8778C782.282 54.964 783.163 52.6359 783.702 49.9223C784.241 47.2086 784.511 44.1522 784.511 40.7529V29.8126C784.511 26.4848 784.241 23.4426 783.702 20.7004C783.163 17.9438 782.282 15.6158 781.076 13.6877C779.869 11.7738 778.336 10.2742 776.491 9.23155C774.645 8.17465 772.388 7.6462 769.72 7.6462C767.051 7.6462 764.794 8.17465 762.948 9.23155C761.103 10.2885 759.57 11.7738 758.363 13.6877C757.157 15.6015 756.276 17.9438 755.737 20.7004C755.198 23.4569 754.928 26.499 754.928 29.8126V40.7529C754.928 44.1522 755.198 47.1943 755.737 49.9223C756.276 52.6359 757.157 54.964 758.363 56.8778C759.57 58.7917 761.103 60.2913 762.948 61.334C764.794 62.3909 767.051 62.9193 769.72 62.9193Z" fill="white"/>
</svg>
