<svg width="43" height="43" viewBox="0 0 43 43" fill="none" xmlns="http://www.w3.org/2000/svg">
<g clip-path="url(#clip0_1_18)">
<path d="M37.1364 0H5.86364C2.62524 0 0 2.62524 0 5.86364V37.1364C0 40.3748 2.62524 43 5.86364 43H37.1364C40.3748 43 43 40.3748 43 37.1364V5.86364C43 2.62524 40.3748 0 37.1364 0Z" fill="#E60000"/>
<path d="M34.3096 15.0352C33.7721 13.3811 31.9935 12.3794 30.3565 12.1498C24.4687 11.5243 18.5312 11.5243 12.6435 12.1498C11.0065 12.3794 9.223 13.3714 8.69039 15.0352C7.85239 19.305 7.85239 23.6971 8.69039 27.9669C9.22789 29.6185 11.0065 30.6227 12.6435 30.8523C18.5312 31.4778 24.4687 31.4778 30.3565 30.8523C31.9935 30.6227 33.777 29.6307 34.3096 27.9669C35.1476 23.6971 35.1476 19.305 34.3096 15.0352ZM18.2848 26.65V16.3496L26.6698 21.4998C23.843 23.2369 21.0993 24.9203 18.2848 26.65Z" fill="white"/>
</g>
<defs>
<clipPath id="clip0_1_18">
<rect width="43" height="43" fill="white"/>
</clipPath>
</defs>
</svg>
