<svg xmlns="http://www.w3.org/2000/svg" xmlns:xlink="http://www.w3.org/1999/xlink"><defs><symbol viewBox="0 0 511.95 424.25" id="8_icons"><path d="M281.09 26.26c-12.91-5.95-25.86-11.83-38.83-17.67-3.78-1.49-10.43-1.49-13.9.79-2.57 1.69-2.13 3.98.28 5.52 1.17.75 2.52 1.17 3.86 1.5-.08.47-.23.86-.21 1.35.12 2.23 2.71 3.81 4.54 4.58 1.75.73 3.66 1.15 5.54 1.35-.07.35-.22.69-.25 1.06-.33 3.73 4.7 6 7.64 6.86 5.14 1.52 10.9 1.52 16.08.2 2.4 1.46 5.31 2.07 8.11 2.1h.59c2.52-.04 7.08-.78 8.6-3.05 1.29-1.93-.36-3.73-2.05-4.59m-2.46 5.47c-2.88 1.25-8.26 1.11-10.8-.88-1.44-1.13-1.43-2.58.1-3.62.43-.29 1.69-.73.64-1.3-.83-.45-1.85-.19-2.61.26-1.61.95-2.73 2.62-1.47 4.39-1.16.33-2.36.57-3.56.7-4.25.46-10.55-.16-14.03-2.84-2.63-2.03-2.69-4.63.09-6.55.41-.28.87-.46 1.26-.73.87-.61-.26-1.05-.84-1.1-1.2-.1-2.62.83-3.49 1.61-.27.24-.49.54-.76.75-2.21-.28-4.67-.77-6.47-2.16-2.15-1.66-2.15-3.76.18-5.24.24-.15 1.09-.53 1.14-.78.09-.48-.69-.75-1.06-.79-1.38-.14-2.57.8-3.52 1.68-.13.06-.88-.21-1.05-.28-1.81-.65-4.32-2.39-2.14-4.32 2.29-2.03 7.65-1.95 10.36-.9 2.87 1.11 5.68 2.74 8.56 3.89l.23.15c-1.02.06-2.08.24-3.05.59-.39.14-1.45.48-1 1.04.34.41 1.32.48 1.81.4.46-.08.94-.37 1.42-.5 1.4-.38 3.36-.32 4.72.2l9.72 4.4c0 .06-.08.03-.13.04-2.18.08-4.39.27-6.4 1.18-1.86.84-3.87 2.52-2.44 4.71.78 1.19 3.5 3.05 4.87 1.96.73-.58-.6-.99-.97-1.21-1.75-1.03-2.22-2.71-.37-3.97 2.56-1.75 7.45-1.64 10.24-.5 2.9 1.38 5.87 2.61 8.78 3.96.78.36 1.65.73 2.4 1.14 2.63 1.46 2.25 3.49-.37 4.63Z" style="fill:url(#_Градієнт_без_назви_6)" /><path d="M298.77 21.79c-.05-.2-.04-.37-.1-.58-.38-1.37-2.11-2.42-3.33-2.94-.42-.18-.86-.31-1.29-.48.37-.42.74-.77 1.03-1.25 1.71-2.8-.43-5.33-2.77-6.76-4.13-2.52-10.25-3.24-15.01-2.9-.43.03-.86.1-1.29.14-.06-.01-.5-.63-.6-.73-1.37-1.52-3.64-2.45-5.59-2.98-3.1-.85-6.4-1-9.59-.65C257.81.67 254.5.08 251.44.05c-.06 0-.16.02-.2-.04h-.15c-2.38.07-5.05.37-7.15 1.58-3.14 1.81-2.67 4.36.26 6.03l38.63 17.58c3.68 1.52 9.56 1.59 13.18-.12 1.21-.57 2.62-1.57 2.76-3.02v-.26Zm-4.24 2.02c-2.41 1.46-6.34 1.43-8.99.7-1.27-.35-2.49-1.05-3.7-1.58-2.28-1.02-4.59-1.98-6.84-3.05-1.64-.78-5.09-2.44-2.69-4.58 2.28-2.04 7.22-1.93 9.98-1.08.97.3 1.68.83 2.76.49.95-.3.7-.79-.04-1.14-3.71-1.74-10.87-1.79-14.38.46-.95.61-2.11 1.72-1.85 2.97l-9.76-4.44c-1.08-.58-1.56-1.62-.38-2.44.19-.13.68-.34.75-.54.11-.36-.23-.56-.51-.67-1.43-.57-3.25.45-3.68 1.89h-.08l-8.8-4.02c-1.96-1.1-2.44-2.88-.34-4.19 2.74-1.71 8.4-1.58 11.11.15.17.11.34.22.48.37 0 .05-.83.27-.95.3-.48.15-2.13.7-2.37 1.07-.31.49.49.77.84.84 1.05.21 1.49-.18 2.39-.53 3.71-1.44 9.35-1.27 12.99.37 1.13.51 2.19 1.2 2.87 2.27-.03.05-.09.06-.14.08-.42.16-1.03.23-1.49.35-.59.16-2.79.87-3.09 1.3-.25.35.07.6.37.74 1.19.58 2.24-.18 3.33-.58 4.66-1.7 11.28-1.52 15.88.31 2.15.86 5.3 2.79 4.61 5.55-.19.77-.78 1.6-1.43 2.04-2.87-.35-6.32-.3-9.02.84-.48.2-1.62.67-.69 1.21 1.24.72 2.51-.21 3.7-.52 2.67-.69 6.67-.5 9.06.98 1.9 1.18 2.16 2.88.13 4.11Z" style="fill:url(#_Градієнт_без_назви_61)" /><path d="M476.47 18.47v.2c-.1.19-.24.31-.44.39-.59.24-1.23.3-1.86.59-2.92 1.37-1.63 3.49.7 4.5.36.16 1.3.38 1.42.77.06.21-.14.54-.25.73-.84 1.56-2.54 3.25-4.03 4.21-.84.54-1.32.32-2.22.21-1.63-.19-3.2-.2-4.79.24-1.21.33-3.12 1.22-2.77 2.78.07.3.35.6.07.87-.26.26-1.73.53-2.16.63-1.87.4-3.77.67-5.67.88l-3.01.24c-.15 0-.32.01-.47 0-.96-.09-1.24-.62-1.99-1.05-2.43-1.39-6.7-1.68-9.25-.5-1.02.47-1.09.93-2.41.77-2.68-.31-5.91-1.17-8.48-2-.46-.15-2.04-.62-2.31-.92-.29-.32 0-.54.09-.84.57-1.88-2.23-3.07-3.63-3.44-1.53-.41-2.7-.4-4.26-.38-1.1.02-1.43-.27-2.2-.96-1.24-1.1-2.51-2.6-3.22-4.11-.18-.38-.46-.73-.04-1.03.35-.25 1.44-.43 1.96-.66 2.46-1.1 2.31-2.98.08-4.24-.43-.24-1.75-.67-1.97-.92s-.11-.4.01-.65c.79-1.62 2.57-3.39 4.06-4.38 1.14-.76 1.87-.29 3.1-.19 1.11.09 2.3.04 3.38-.18 1.36-.27 3.65-1.1 3.41-2.85-.05-.37-.43-.66-.05-.97.29-.24 1.3-.42 1.71-.51 2.15-.49 4.37-.82 6.57-1.02.89-.08 2.74-.31 3.54-.08.47.14.66.41 1.04.68 2.45 1.72 7.48 2.03 10.08.55.43-.24.67-.53 1.2-.58.97-.09 2.81.37 3.82.58 1.75.37 3.49.82 5.2 1.36.49.16 2.29.69 2.56 1 .3.34 0 .53-.1.87-.41 1.44 1.25 2.51 2.36 2.98 1.27.54 2.86.83 4.24.87.74.02 1.65-.16 2.34.08.46.15 1.11.77 1.47 1.12 1.32 1.24 2.45 2.71 3.16 4.39ZM460.2 8.63c-2.51-.83-5.07-1.5-7.68-1.95-2.53 1.34-5.6 1.61-8.43 1.31-2.22-.24-4.46-.89-6.32-2.12-2.61.17-5.21.53-7.75 1.11.48 2.03-1.56 3.26-3.18 3.83-2.08.74-4.39.86-6.59.7-.25-.02-.51-.07-.77-.09-1.33.94-2.49 2.13-3.32 3.54 1.14.53 2.36 1.16 3.1 2.21 1.74 2.48-1.16 4.32-3.27 4.86-.04.05.32.68.38.78.69 1.19 1.67 2.21 2.68 3.13 1.91 0 3.82.22 5.64.78s4.96 2.03 4.75 4.36c0 .08-.11.43-.09.46 2.49.88 5.07 1.5 7.67 1.97 2.65-1.41 5.92-1.64 8.87-1.26 2.05.27 4.14.9 5.85 2.06 2.6-.17 5.19-.52 7.73-1.1l.05-.04c-.39-1.44.72-2.57 1.87-3.22 2.03-1.15 4.87-1.43 7.17-1.34.51.02 1.02.12 1.53.12 1.29-.95 2.49-2.11 3.26-3.53-1.54-.68-3.79-1.99-3.59-3.96.17-1.66 2.39-2.72 3.79-3.11-.71-1.53-1.84-2.84-3.12-3.92-2.59.02-5.44-.39-7.74-1.64-1.39-.75-3.09-2.17-2.49-3.95Z" style="fill:url(#_Градієнт_без_назви_62)" /><path d="M441.17 10.11h2.92c.07-.01.13.02.2.02 5.86.19 13.45 1.76 18.05 5.58 2.85 2.37 4.32 5.74 1.65 8.94-3.02 3.61-9.69 5.03-14.18 5.34-6.89.49-16.14-.8-21.84-4.95-3.37-2.45-5.46-6.21-2.16-9.81s10.58-4.98 15.37-5.13Zm1.27 1.32c-4.49.09-11.86 1.15-14.64 5.12-3.1 4.43 2.17 8.17 5.75 9.73 6.59 2.88 16.49 3.42 23.22.79 4-1.56 8.08-5.05 4.53-9.45s-11.57-5.94-16.79-6.17l-2.08-.02Z" style="fill:url(#_Градієнт_без_назви_63)" /><path d="M28.63 68.99c-.07-.63-.03-1.28-.04-1.93-.02-1.63-.12-3.16.23-4.77 1.17-5.36 5.57-6.6 9.76-3.2 4.49 3.65 7.3 11.6 5.71 17.21-.04.14-.34.93-.31.98 2.4 1.03 4.35 3.01 5.83 5.13 2.89 4.15 4.66 9.99 3.95 15.06-.28 2-1.01 3.99-2.46 5.42 4.84 5.46 8.03 12.79 8.85 20.06.64 5.75-.15 13.92-5.54 17.31-2.52 1.59-5.53 1.62-8.29.63-1.66 1.83-4.13 2.12-6.38 1.26-3.71-1.4-6.59-5.32-8.18-8.82-.94-2.07-1.6-4.27-1.9-6.52l-4.75 4.56c-.16.08-.24.06-.4.01-.68-.21-1.41-.67-2.09-.93-.07-.03-.14-.06-.22-.06-.2 1.75-1.4 3.21-3.3 2.53-3.02-1.08-5.04-6.6-3.43-9.35.99-1.7 2.82-1.34 4.12-.22 1.41 1.23 2.27 3.13 2.6 4.95l1.95.89 5.3-5.11c.03-.6.03-1.21.02-1.81-.05-4.68-.2-9.37-.3-14.04-.02-1.04 0-2.08-.04-3.11l-10.73-4.74-5.41 5.26c-.17.14-.28.22-.52.18l-5.32-2.35c-.21 1.77-1.4 3.25-3.33 2.57-2.99-1.05-4.99-6.63-3.42-9.34.79-1.36 2.17-1.48 3.46-.71 1.8 1.06 2.92 3.46 3.26 5.46l4.92 2.16c.17-.21.39-.36.58-.54 1.51-1.42 2.95-2.94 4.46-4.35.12-.11.42-.42.53-.48.16-.1.36-.07.52 0l10.98 4.84-.2-10.16-5.05-2.23c-.44-.16-.62-.58-.84-.95-1.93-3.28-3.67-6.69-5.6-9.98l-4.93-2.19c-.26 2.17-1.86 3.49-3.96 2.26-2.51-1.48-4.18-6.14-2.91-8.81.91-1.92 2.84-1.69 4.25-.45s2.24 3.13 2.61 4.97l5.2 2.31.4.35 5.94 10.53 4.86 2.15-.04-2.11c-.09-5.62-.24-11.24-.36-16.86l-5.58-9.92-1.98-.88c-.24 2.12-1.81 3.47-3.89 2.3-2.58-1.45-4.31-6.28-2.93-8.95.92-1.79 2.79-1.56 4.15-.41 1.45 1.23 2.31 3.16 2.65 5l2.29 1.03.25.16c1.65 2.69 3.11 5.5 4.68 8.24.1.18.2.38.34.54ZM16.56 55.26c-.58.08-1 .63-1.16 1.16-.35 1.15.02 2.62.62 3.63 1.41 2.39 3.86 2.18 3.65-.93-.09-1.41-1.41-4.08-3.11-3.85Zm33.72 45.66c2.84-2.79 2.4-8.29 1.33-11.78-1.17-3.82-4.12-8.73-8.12-10.03-.71-.23-1.2-.13-1.54-.92-.41-.97.03-1.16.44-1.92 2.63-4.9-.86-14.4-6.02-16.52-3.53-1.45-5.76 1.13-6.23 4.41-.13.91-.09 1.64-.08 2.53.03 2.63.09 5.26.15 7.88.04 1.53-.1 2.63.66 4.04.61 1.12 2.37 2.76 3.39 1.14.95-1.5-.04-4.32-1.41-5.32-.54-.39-.94-.39-1.17-1.15-.13-.45-.12-1.39.57-1.21 1.04.27 2.29 1.91 2.78 2.82.97 1.81 1.69 5.05.29 6.8-1.58 1.98-4 .18-5.06-1.38 0 .07.04.13.04.2.18 3.93.03 7.88.22 11.8.06 1.23.24 2.11.98 3.13s2.22 1.99 3.07.58c.91-1.5-.05-4.29-1.4-5.28-.5-.37-.85-.34-1.12-1-.26-.62-.23-1.69.69-1.29 2.04.87 3.52 4.15 3.65 6.25.21 3.45-1.96 5.62-4.91 2.97l-.88-1.05.15 8.11c1.93-.96 3.78.88 4.7 2.42s1.51 3.74 1.15 5.58c-.31 1.64-1.46 2.85-3.22 2.27-.72-.24-1.24-1.16-.94-1.88.25-.62.84-.11 1.28-.1 1.24.03 1.57-1.51 1.51-2.48-.09-1.45-1.38-4.19-3.15-3.93-1.5.22-1.24 2.45-1.22 3.48.06 4.6.14 9.19.26 13.78.01.5-.02 1 0 1.5.18 4.86 2.73 10.83 6.79 13.68 4.34 3.05 8.25.98 9.19-3.98 1.14-6.03-2.18-14.34-7.65-17.36-.39-.22-.62-.22-.91-.63-.4-.57-.51-1.98.51-1.59.56.21 1.3.7 1.79 1.05 5.87 4.17 9.71 14.76 7.15 21.59-.12.31-.31.64-.41.94-.01.03-.05.07-.01.1 3.25.79 6.34-.42 8.35-3.01 4.62-5.94 3.05-16.24.36-22.73-2.22-5.33-5.89-10.6-11.06-13.37-.07-.02-.04 0-.06.05-.05.16-.07.38-.12.55-.35 1.2-1.14 2.19-2.51 2.08-.92-.07-1.68-.91-2.52.06-1.32 1.51.03 5.18 1.85 5.85 1.19.44 1.95-.53 2.04-1.63.03-.36-.09-1.24.5-1.24s.95.88.99 1.36c.19 2.22-1.29 4.68-3.77 3.44-2.74-1.37-4.63-6.57-3-9.24.46-.76 1.18-1.19 2.09-1.12s1.63.86 2.47.04c1.2-1.18.37-3.91-.6-5.04-.52-.6-.92-.71-1.55-1.1-2.32-1.44-3.75-5.19-3.2-7.82.32-1.55 1.37-2.72 3.06-2.27.79.21 1.36 1.02 1.12 1.83-.21.74-.73.26-1.19.22-.75-.06-1.24.4-1.47 1.07-.55 1.62.36 4.14 1.82 5.03.25.15.52.26.78.42 1.79 1.12 2.83 3.43 3.22 5.45 1.69.86 3.24 2 4.61 3.3.15-.14.34-.28.49-.42ZM8.15 71.73c-.41.04-.76.32-.98.66-1.01 1.58.25 5.06 2.04 5.65 1.62.53 2.1-1.2 2.01-2.46-.1-1.41-1.38-4.04-3.07-3.86ZM2.81 97.65c-.41.04-.76.32-.98.66-1.04 1.62.28 5.21 2.18 5.69 1.52.39 1.95-1.31 1.87-2.46-.1-1.41-1.37-4.07-3.07-3.89m15.13 26.9c-.64.06-1.04.59-1.22 1.17-.36 1.14.01 2.61.61 3.62 1.44 2.44 3.9 2.15 3.65-1-.11-1.37-1.4-3.94-3.03-3.78Z" style="fill:url(#_Градієнт_без_назви_2)" /><path d="M191.8 260.31c.59.22.87.88.92 1.48.07.88.03 1.88.05 2.77.02 1.45-.02 2.9.05 4.35l4.39 2.19c0-.9.01-1.81 0-2.71-.01-1.15-.07-2.32-.09-3.47 0-.5-.16-2.06.78-1.57s.7 2.49.72 3.42c0 .1.05.2.05.3.03 1.61 0 3.21.05 4.81l4.43 2.16c-.09-1.06-.03-2.13-.04-3.19-.01-1.13-.07-2.29-.09-3.43-.01-.55 0-1.61.84-1.1.4.24.59.79.66 1.23l.1 7.21 4.43 2.23v-.55c-.08-2.08-.08-4.17-.09-6.25 0-.28-.08-.39.03-.72.33-1 1.45.3 1.42.9l.11 7.37 4.42 2.2c0-.33.01-.66 0-.99-.03-1.04-.03-2.08-.04-3.12s-.15-2.25-.05-3.26c.03-.24.15-.49.42-.51.56-.04.98.78 1.03 1.26l.11 7.33 4.36 2.2c.09.01.06 0 .06-.06.06-.49-.02-1.17-.05-1.67.16-1.79-.23-3.83-.04-5.59.09-.85.88-.52 1.21.03.27.46.21.72.25 1.21.07 1.11.07 2.27.09 3.39s-.05 2.33.05 3.49l4.37 2.16c.05-2.45-.08-4.91-.06-7.37.05-.28.25-.57.57-.49.61.16.88.98.92 1.54.15 2.01 0 4.21.09 6.25.01.27-.03.55.02.81l5.27 2.65c.66.53.62 1.4.65 2.17.06 1.92-.11 4.06.04 5.94 0 .13.04.25.07.37l5.11 2.55c.56.3.9 1.18.71 1.78-.08.25-.26.38-.53.33l-5.31-2.59.09 6.11 5.24 2.61c.33.22.61.72.65 1.11.04.44 0 1.03-.59.94l-5.27-2.59.09 6.09 5.21 2.62c.53.29.94 1.47.52 1.93-.14.16-.26.16-.46.12l-5.27-2.58.09 6.09 5.25 2.63c.54.27.98 1.63.43 2-.14.09-.24.08-.4.04l-5.23-2.58.11 6.12 5.23 2.6c.34.23.61.75.65 1.16.04.46-.03 1.01-.62.88l-5.23-2.58.09 6.09 5.25 2.67c.5.31.87 1.41.48 1.89-.12.15-.29.16-.47.12l-5.27-2.59.11 6.12 5.25 2.62c.49.39.72 1.03.61 1.66a.46.46 0 0 1-.67.34l-5.17-2.55.09 7.29c0 .29-.22.62-.54.58l-5.35-2.63c.08 1.1.03 2.22.04 3.32.01 1.03.03 2.08.04 3.12 0 .23.07.45.05.7-.02.3-.09.56-.35.72h-.26c-1.13-.57-.85-1.87-.88-2.93-.03-1.14-.07-2.29-.09-3.43-.01-.76.04-1.53-.03-2.27l-4.41-2.15c.07 1.24.03 2.48.04 3.72.01 1.11.11 2.27.09 3.38 0 .26-.11.68-.42.73-.6.09-1.02-.8-1.07-1.3l-.11-7.28-4.42-2.2c0 .36-.01.72 0 1.08.03 1.04.03 2.08.04 3.12.01.96.16 2.24.05 3.17-.08.7-.72.54-1.08.11-.45-.54-.34-1.02-.37-1.65-.05-1.13-.08-2.3-.09-3.43-.01-1.06.06-2.13-.05-3.18l-4.37-2.16c-.03.6-.06 1.23.02 1.82-.16 1.75.24 3.79.04 5.5-.09.84-.84.58-1.18.04-.27-.43-.29-.9-.32-1.4-.05-1.03-.03-2.1-.04-3.12-.02-1.17.04-2.35-.04-3.52l-.04-.09-4.35-2.13.09 7.28c-.16.94-.93.54-1.25-.07-.41-.77-.22-2.73-.24-3.68-.02-1.14-.05-2.29-.09-3.43-.01-.3.02-.6 0-.9l-4.39-2.16c0 .8-.01 1.6 0 2.4.01 1.13.08 2.3.09 3.43 0 .42.07 1.47-.11 1.79-.35.62-1-.06-1.2-.48-.29-.63-.22-2.61-.23-3.42-.03-1.48.01-2.96-.05-4.44l-4.37-2.23c-.03.94-.03 1.89-.02 2.84.01 1.15.07 2.32.09 3.47 0 .43.13 1.74-.62 1.54-.52-.14-.84-.91-.88-1.41-.13-1.62-.01-3.46-.04-5.11 0-.1-.05-.2-.05-.3-.01-.59.03-1.19-.02-1.78l-5.2-2.59c-1.04-.68-.7-2.91-.72-4.04s-.05-2.29-.09-3.43c-.01-.36.02-.72 0-1.07l-5.24-2.61c-.6-.36-1.11-2.04-.06-2.05l5.27 2.59-.07-6.07-5.31-2.69c-.42-.33-.73-1.16-.55-1.68.08-.23.31-.41.56-.32l5.27 2.58-.09-6.11-5.24-2.61c-.33-.22-.61-.72-.65-1.11-.04-.44 0-1.03.59-.94l5.27 2.59-.09-6.09-5.21-2.62c-.37-.23-.65-.78-.68-1.21s.08-.97.62-.84l5.27 2.58-.09-6.09-5.38-2.72c-.54-.33-.88-2.16.07-1.96l5.27 2.59-.11-6.12-5.23-2.6c-.48-.36-.72-1-.64-1.6.04-.32.28-.55.61-.45l5.23 2.58-.04-5.7-.05-.39-5.28-2.68c-.34-.27-.49-.69-.6-1.09v-.48c.14-.32.27-.52.66-.42l5.23 2.58c-.07-1.25-.03-2.51-.04-3.76-.01-1.1-.11-2.24-.08-3.34 0-.31.13-.77.53-.75l5.36 2.62c-.02-1.81-.03-3.62-.04-5.44 0-.59-.1-1.21-.05-1.8.03-.3.1-.47.35-.64h.22Zm40.85 30.47-45.67-22.72c-.12-.04-.02.16-.02.24.03 1.05.03 2.12.04 3.17.23 18.76.51 37.53.79 56.29.02 1.25-.04 2.51.05 3.76l45.69 22.72-.89-63.46Z" style="fill:url(#_Градієнт_без_назви_3)" /><path d="M191.88 276.7c.05 0 .1-.02.15 0l35.53 17.66c1.11.67.77 2.47.79 3.61.22 12.61.39 25.23.58 37.85 0 .39.06 1.07-.14 1.4l-5.94 5.41h-.42l-29.52-14.69c-.94-.6-.72-1.65-.74-2.6-.09-3.23-.13-6.49-.18-9.72-.18-12.52-.29-25.03-.53-37.54 0-.38-.09-1.3.43-1.38Zm34.97 19.31-33.9-16.82.68 47.05 28.38 14.12.17-.03 5.21-4.73s.04-.08.04-.13c.05-.38 0-1.05 0-1.46-.18-11.57-.37-23.15-.53-34.72-.02-1.09.05-2.19-.05-3.27Z" style="fill:url(#_Градієнт_без_назви_31)" /><path d="M202.23 312.25c-.02 2.44.07 4.87.08 7.32-.19.94-.94.54-1.26-.08-.38-.73-.21-2.1-.22-2.94-.08-4.16-.14-8.33-.18-12.5 0-.63-.14-1.37-.03-2 .05-.28.23-.41.42-.59 1.6-1.57 3.53-3.28 5.23-4.75.2-.18.43-.44.72-.36l3.15 1.56c.74.53.68 1.51.71 2.33.03.94-.02 1.88 0 2.82.11 6.25.21 12.5.26 18.75 0 .66.16 1.68.03 2.31-.08.37-.37.52-.71.36-.49-.23-.73-.98-.76-1.48-.13-1.87.01-3.92-.04-5.81 0-.1-.04-.2-.05-.3-.01-.31.03-.64-.02-.95l-7.32-3.65Zm7.3 1.58-.18-14.24-.07-.11-1.84-.89-5.34 4.83.08 6.68 7.34 3.72Z" style="fill:url(#_Градієнт_без_назви_32)" /><path d="m216.74 303.23.31 22.42.07.11 2.23 1.11c.45.31.7.98.65 1.51-.05.49-.32.63-.76.46-1.94-.78-3.91-2.08-5.85-2.91-.55-.29-.94-1.29-.67-1.84.17-.35.44-.28.74-.17.69.27 1.4.76 2.1 1.05 0-.74.01-1.48 0-2.22-.07-5.31-.18-10.62-.27-15.93-.02-1.45 0-2.9-.04-4.35l-2.42-1.24c-.55-.37-.9-2.21.13-1.94l5.94 2.95c.4.22.7.74.75 1.19.05.55-.07 1.12-.73.87-.72-.28-1.43-.8-2.17-1.06Z" style="fill:url(#_Градієнт_без_назви_33)" /><path d="M88.65 367.86c.02-1.28.1-2.62.24-3.9.06-.54.12-1.27.25-1.79.07-.29.19-.54.54-.47l5.3 2.49c.39-1.94 1.01-3.87 1.94-5.62l-.03-.16-3.79-6.92c-.11-.26-.17-.57-.13-.86.04-.26.71-1.18.9-1.45 1.63-2.26 3.74-4.26 6.22-5.58.23-.12.88-.48 1.1-.47.4.02.71.54.81.88.3 1.03-.38 1.07-1.08 1.48-2.29 1.33-4.38 3.21-5.92 5.36-.07.1-.41.56-.42.63s.12.29.16.37c1.14 2.26 2.51 4.42 3.65 6.68.37.81-.32 1.58-.65 2.31-.45.99-.84 2.1-1.12 3.15-.17.64-.26 1.52-.46 2.1-.16.46-.44.36-.79.21-1.54-.63-3.07-1.53-4.6-2.22-.05-.02-.36-.17-.39-.14-.11.89-.22 1.78-.27 2.68-.17 2.95-.07 6.17.24 9.11.04.41.08 1.05.18 1.42.04.14.35.26.49.33 1.55.78 3.16 1.46 4.71 2.25.32.18.52.58.61.92.21.79.32 1.69.5 2.5.39 1.7.89 3.35 1.45 5 .23.69.9 1.8.29 2.4l-3.57 3.22c1.82 4.34 4.07 8.5 6.71 12.38l.3.38 3.63-3.32c.32-.23.6.04.82.27.5.56.97 1.25 1.47 1.84 1.04 1.21 2.16 2.31 3.34 3.38.6.54 1.16.78 1.23 1.7.13 1.69-.08 3.52.07 5.22l.02 1.89c2.89 2.11 6.17 3.8 9.67 4.64l-.07-7.14c0-.18.09-.47.26-.56.2-.1.95.05 1.22.07 1.17.05 2.35-.04 3.48-.35.24-.07.92-.34 1.09-.34.24 0 .43.18.58.34l3.87 7.06c2.79-1.35 5.09-3.59 6.78-6.16l-3.75-6.88c-.42-.94-.07-1.14.31-1.92.91-1.89 1.48-3.83 1.89-5.89.13-.21.29-.28.54-.21l5.18 2.47c.09-.56.16-1.12.2-1.69.24-2.92.22-6.18-.03-9.1-.07-.84-.18-1.68-.31-2.51l-5.14-2.47c-.34-.19-.54-.52-.64-.89-.2-.74-.29-1.62-.47-2.39-.4-1.77-.93-3.52-1.52-5.23-.2-.59-.82-1.69-.36-2.23l3.62-3.27v-.11a74 74 0 0 0-5.36-10.32c-.65-1.04-1.54-2.17-2.11-3.21-.19-.34-.34-.73-.2-1.13.21-.58.67-.32.97.02.6.69 1.26 1.8 1.77 2.59 2 3.08 3.78 6.37 5.29 9.71.37.82.89 1.86 1.15 2.7.11.35.2.77-.03 1.09-1.11 1.08-2.32 2.07-3.44 3.14-.07.07-.24.21-.24.3.9 2.47 1.61 5.01 2.1 7.59l5.19 2.48c.59.36.65 1.01.76 1.63.58 3.49.66 7.44.48 10.97-.06 1.2-.11 3.02-.42 4.15-.07.25-.19.45-.48.43l-5.34-2.52c-.43 1.96-1.02 3.89-1.96 5.66 0 .05.24.48.28.57 1.1 2.07 2.41 4.15 3.43 6.25.17.34.31.67.25 1.07-.05.33-.92 1.5-1.17 1.83-1.53 2.04-3.49 3.85-5.72 5.09-.27.15-.95.55-1.21.6s-.51-.15-.67-.34l-3.88-7.09s-.9.23-1.05.26c-1.25.28-2.52.32-3.79.22.02 1.76.02 3.51.03 5.27 0 .63.09 1.31.04 1.94-.07.82-.78.52-1.32.4-3.23-.72-7.02-2.69-9.7-4.62-.6-.43-1.34-.87-1.42-1.68-.12-1.23-.06-2.76-.07-4.02-.01-1.09.04-2.18-.04-3.27a37.3 37.3 0 0 1-4.82-5.07l-.09-.02-3.65 3.34c-.32.17-.6-.06-.8-.29-.6-.69-1.25-1.78-1.76-2.57-2.01-3.1-3.8-6.41-5.32-9.78-.29-.64-1.27-2.66-1.26-3.25 0-.15.06-.38.16-.5 1.09-1.07 2.3-2.02 3.39-3.08.08-.08.31-.26.29-.36-.9-2.47-1.59-5-2.1-7.58-1.78-.9-3.63-1.69-5.39-2.63-.49-.45-.55-1.52-.64-2.15-.32-2.36-.46-4.8-.48-7.17v-1.53Z" style="fill:url(#_Градієнт_без_назви_34)" /><path d="M110.78 395.31v1.48c0 .08-.17.34-.26.39-.53.27-1.05-.64-1.1-1.07-.13-1.09-.01-2.36-.04-3.48-.07-3.48-.82-6.52-2.32-9.64-.75-1.56-1.73-2.99-2.54-4.52-4.08-7.72-6.68-18.77-3.67-27.24 2.38-6.71 8.14-10.27 15.1-7.28 8.58 3.69 14.68 14.64 16.95 23.32 1.87 7.16 2.33 18.13-3.71 23.52-.84.75-1.62 1.16-2.33 2.1-2.37 3.1-1.8 6.78-1.82 10.41 0 .77-.57.98-1.06.37-.53-.67-.25-1.44-.38-2.21l-12.81-6.16Zm12.82 4.23c-.11-3.03.43-6.33 2.44-8.7.84-.99 1.99-1.61 2.88-2.57 3.98-4.3 4.32-11.71 3.47-17.21-1.32-8.62-6.56-19.3-14.15-24.01-5.66-3.52-11.76-2.83-15.11 3.26-4.13 7.52-1.82 18.73 1.75 26.09 1.03 2.12 2.37 4.05 3.37 6.18 1.32 2.82 2.2 5.88 2.46 9l.04 1.82 3.37 1.57-.03-3.39c0-1.03-.03-2.07-.03-3.1 0-.93-.1-1.9-.04-2.83.05-.74.31-1.42.77-2l-7.99-19.9c-.3-.67.04-1.19.39-1.74 2.45-3.93 6.64-4.02 10.4-1.88s6.97 6.54 8.71 10.62c.24.56.82 1.83.74 2.38 0 .07-.04.15-.06.21l-7.66 12.51c.23.5.45 1.01.6 1.55.36 1.36.26 2.98.28 4.39.03 2.03.01 4.07.04 6.1l3.37 1.66Zm-7.67-16.37c.63-.03 1.22.26 1.71.62.14.11.29.29.41.37.03.02.05.06.09.02 2.23-3.65 4.51-7.27 6.73-10.93.15-.25.52-.77.61-1 .01-.04.03-.07.02-.11-.82-2.16-1.97-4.24-3.39-6.05-2.19-2.78-5.94-5.88-9.74-5.28-1.81.29-3.32 1.48-4.17 3.08zm2.93 14.08v-.87c-.03-1.11-.06-2.23-.07-3.34-.02-1.57.07-3.26-.03-4.81-.06-.93-.56-2.05-1.28-2.64-.95-.78-1.9-.41-2.06.8-.03 2.24.04 4.5.07 6.75 0 .83-.01 1.66 0 2.49z" style="fill:url(#_Градієнт_без_назви_35)" /><path d="M100.13 372.95c.61-.1 1.03.84 1.03 1.34.01 1.29-.05 2.52.07 3.82.69 7.91 4.4 16.69 9.87 22.45 3.76 3.97 9.97 7.79 15.45 4.88 5.17-2.75 6.55-9.75 6.39-15.13-.01-.43-.31-1.72.57-1.46.82.24.77 1.66.79 2.31.23 5.97-1.51 13.78-7.48 16.49-5.28 2.4-11.2-.81-15.04-4.4-7.1-6.65-11.77-17.95-12.05-27.64-.02-.54-.07-1.9.1-2.36.05-.15.14-.28.31-.31Z" style="fill:url(#_Градієнт_без_назви_36)" /><path d="M125.57 357.37c.56-.13.91.67 1.14 1.06 2.48 4.3 4.32 9.97 4.63 14.94.02.31.06.73.04 1.02-.06.7-.62.72-1.02.24s-.33-.92-.38-1.5c-.37-4.54-1.59-8.81-3.7-12.84-.27-.51-.98-1.56-1.04-2.07-.03-.26 0-.78.33-.86Z" style="fill:url(#_Градієнт_без_назви_37)" /><path d="M116.53 348.12c.27-.06.77.26 1.02.4 1.19.66 2.53 1.66 3.51 2.6.42.4.81.82.8 1.45 0 .44-.29.83-.75.58-.31-.17-.89-.81-1.21-1.07-.59-.49-1.25-.98-1.89-1.38-.74-.46-1.68-.7-1.8-1.71-.03-.26.01-.79.33-.86Z" style="fill:url(#_Градієнт_без_назви_38)" /><path d="m330.72 267.77-7.95 3.28-.21.16-8.85 14.75-.25 10.37 2.43-.97c.44-.04.58.42.58.78-.02 3.2-.18 6.42-.25 9.63l-.02 1.11 4.97-2.08 6.07-10.12.45-.4 2.36-1.01c.36-1.97 1.57-4.24 3.36-5.25s3.47-.29 3.95 1.7c.64 2.63-.99 6.46-3.4 7.75-2.07 1.1-3.67-.07-3.98-2.21l-2 .86-6.18 10.23-.48.33-5.16 2.14c-.15.66 0 1.35-.11 2.01l-.19 8.4 5.35 4.92c.12.05.43-.11.57-.16 2.54-.99 5.01-2.16 7.55-3.16.4-2.03 1.63-4.4 3.54-5.37 1.39-.71 2.85-.41 3.54 1.05 1.28 2.7-.64 7.28-3.27 8.57-2.04.99-3.54-.24-3.86-2.28l-8.27 3.47c-.18.06-.34.13-.52.04l-5.75-5.2-4.96 2.1-.16 6.46 5.73 5.24c.08.13.09.28.1.42.05.73-.02 1.76-.04 2.52 0 .19-.08.39-.04.59 1.42-.21 2.41.76 2.75 2.06.66 2.53-.8 6.09-2.94 7.56s-4.15.46-4.43-2.09 1.09-5.43 3.11-6.91l.07-2.61-5.54-5.05c-.48-.46-.25-1.31-.24-1.91.01-.53-.04-1.06.04-1.58l.08-4.08-4.5 1.87c-.09.56-.03 1.12-.04 1.68-.05 1.88-.08 3.79-.23 5.66-1.99 3.51-4.17 6.93-6.19 10.42l-.04 2.58c1.28-.21 2.24.61 2.64 1.77.94 2.73-.89 7.06-3.55 8.23-2.22.98-3.64-.6-3.77-2.75-.13-2.11.93-4.66 2.48-6.1.11-.1.61-.46.64-.54.03-.06.05-.24.05-.31.08-.99-.06-2.08.1-3.07 1.95-3.52 4.12-6.93 6.18-10.4.08-1.17.09-2.34.1-3.52l.08-2.98-4.97 2.07c-2 3.15-3.76 6.48-5.77 9.62-.29.45-.47.84-1.03 1l-8.08 3.37c-.09.07-.17.64-.22.8-.48 1.66-1.52 3.45-3.01 4.38-1.96 1.22-3.77.41-4.18-1.83-.46-2.46.89-5.74 2.93-7.18 1.87-1.32 3.74-.91 4.39 1.36.04.14.04.31.09.44.02.05-.02.07.06.06l8.01-3.34 5.76-9.58c.15-4.43.28-8.87.39-13.3 0-.28.04-.76 0-1.02 0-.06.02-.07-.06-.06l-4.91 2.07-6.12 10.17-.37.32-2.37.98c-.39 1.94-1.45 4.06-3.16 5.15-1.59 1.02-3.35.77-4.04-1.12-1.01-2.75.85-7.18 3.56-8.34 1.99-.85 3.39.39 3.67 2.35l1.96-.82c2.13-3.34 4.09-6.81 6.18-10.19l.27-.26 5.46-2.34.15-6.45-5.37-4.91c-.09-.04-.41.12-.53.17-2.53 1.02-5.02 2.15-7.56 3.17-.4 1.97-1.49 4.13-3.25 5.2-1.51.92-3.16.72-3.89-1.02-1.11-2.62.6-6.82 3-8.24 1.75-1.04 3.43-.55 4.03 1.45.03.1.12.63.17.64l8.42-3.52.37.02 5.72 5.2 4.95-2.06c.1-.63.04-1.26.06-1.89.03-1.16.1-2.33.13-3.49 0-.37 0-.75-.02-1.12l-5.62-5.14-.16-.37.04-3.27c-1.38.22-2.35-.73-2.7-1.99-.71-2.56.76-6.15 2.93-7.63 2.03-1.39 4.01-.58 4.39 1.85.4 2.58-.99 5.61-3.07 7.14l-.09 2.59.04.08c1.71 1.61 3.54 3.12 5.24 4.75.28.27.53.44.57.85.03.28-.04.55-.04.81-.03 2.06-.1 4.1-.12 6.16l7.49-3.13c.06-.03.06-.08.07-.14.05-.4-.01-.93 0-1.34.06-2.23.14-4.47.21-6.7.03-1.04-.05-2.13.14-3.15 3.21-5.41 6.43-10.83 9.73-16.18l.31-.22 8.41-3.51c.34-2.06 1.73-4.58 3.72-5.44 1.66-.72 3.07 0 3.55 1.7.74 2.61-.81 6.34-3.09 7.77-2.05 1.28-3.92.3-4.2-2.03Zm4.18-5.64c-1.99.27-3.67 4.36-2.16 5.8 1.33 1.27 3.08-.78 3.57-1.95.55-1.32.71-4.14-1.41-3.85m-36.1 15.15c-2.47.2-4.09 5.42-1.81 6.13 1.72.53 3.19-2.04 3.4-3.45.16-1.11-.14-2.8-1.59-2.68m35.36 12.39c-2.1.33-3.83 4.97-1.84 6 1.59.83 3.15-1.49 3.5-2.79s.19-3.5-1.66-3.21m-19.23 8.03-16.64 6.95-.53 21.6 16.6-6.91zm-34.61 2.9c-2.26.11-4.08 4.8-2.18 5.98 1.61 1 3.23-1.41 3.59-2.74.31-1.14.24-3.32-1.41-3.24m53.36 16.57c-2.25.16-4.04 4.83-2.12 5.99 1.59.96 3.21-1.45 3.57-2.75.31-1.16.24-3.36-1.45-3.24m-53.97 7.03c-2.5.15-4.14 5.44-1.85 6.13 1.73.52 3.19-2.03 3.4-3.45.16-1.08-.13-2.77-1.55-2.68m-.61 15.76c-2.13.29-3.86 4.98-1.85 6.02 1.45.75 2.92-1.23 3.36-2.4.48-1.31.52-3.89-1.5-3.61Zm36.1.52c-2.22.08-4.06 4.63-2.24 5.95 1.37.99 2.99-1 3.44-2.15s.68-3.88-1.2-3.81Zm-18.23 7.6c-2.05.22-3.71 4.07-2.41 5.68.57.7 1.35.61 2.06.19 1.44-.85 2.47-3.34 1.81-4.92-.26-.61-.77-1.02-1.47-.95Z" style="fill:url(#_Градієнт_без_назви_4)" /><path d="M428.41 126.62c1.18-.12 2.09.36 2.66 1.39 1.99 3.57-1.09 11.08-4.99 12.33-3.59 1.15-4.21-3.09-3.81-5.63.45-2.82 2.93-7.76 6.13-8.09Zm-4.09 11.39c.52.52 1.2.61 1.89.42 2.87-.79 5.39-6.77 3.46-9.15-1.47-1.82-3.74.24-4.66 1.58-1.15 1.69-2.37 5.5-.7 7.15Z" style="fill:url(#_Градієнт_без_назви_14)" /><path d="M382.35 149.38c1.08-.08 1.97.52 2.48 1.44 1.97 3.57-1.12 11.02-4.99 12.3-3.19 1.06-4.09-2.33-3.93-4.78.21-3.13 2.87-8.72 6.44-8.97Zm-.51 1.99c-2.49.21-4.43 4.13-4.58 6.34-.11 1.7.42 4.1 2.66 3.51 2.9-.76 5.37-6.73 3.48-9.16-.37-.48-.97-.75-1.57-.7Z" style="fill:url(#_Градієнт_без_назви_39)" /><path d="M380.78 181.22c1.41-.14 2.4.74 2.85 2 1.32 3.66-1.33 10.07-4.95 11.61-3.35 1.42-4.43-2.09-4.22-4.73.26-3.1 2.81-8.53 6.32-8.88m-2.56 3.15c-1.64 1.61-2.9 4.85-2.24 7.12.39 1.36 1.45 2 2.82 1.46 2.66-1.04 4.81-6.24 3.36-8.75-.98-1.7-2.83-.92-3.94.17" style="fill:url(#_Градієнт_без_назви_310)" /><path d="M395.72 179.14c.25-.04.44.16.47.4.08.57-.19 1.22-.68 1.52-3.09 1.4-6.09 3.16-9.18 4.53-.28.12-.66.38-.9.08-.33-.44.08-1.45.52-1.73z" style="fill:url(#_Градієнт_без_назви_311)" /><path d="M429.94 94.77c1.13-.11 2.03.42 2.58 1.39 2.01 3.56-1.09 11.09-4.98 12.34-3.41 1.1-4.18-2.76-3.87-5.27.38-2.97 2.89-8.14 6.27-8.46m-.51 1.99c-3.1.38-5.65 6.64-3.87 9.16.77 1.08 2.03.88 3.03.23 2.18-1.42 3.88-5.53 2.92-8.01-.35-.91-1.06-1.5-2.08-1.38" style="fill:url(#_Градієнт_без_назви_16)" /><path d="M421.78 105.82c-.07.07-.2.14-.29.2l-9.66 4.73c-.83-.06-.42-1.33-.03-1.73 3.2-1.74 6.54-3.24 9.79-4.89.17-.06.27-.1.43 0 .48.32.09 1.36-.25 1.68Z" style="fill:url(#_Градієнт_без_назви_15)" /><path d="M405.36 138c1.42-.14 2.39.74 2.85 2 1.27 3.51-1.06 9.2-4.15 11.18-3.61 2.32-5.33-1.08-5.02-4.34.29-3.09 2.81-8.48 6.32-8.84m-.51 1.99c-2.41.29-4.32 4.17-4.45 6.33-.11 1.85.55 4.32 2.94 3.41 2.69-1.02 4.94-6.43 3.32-8.9-.41-.62-1.07-.93-1.81-.84" style="fill:url(#_Градієнт_без_назви_312)" /><path d="M405.02 121.47c.62-.07.44.86.43 1.2-.11 3.43-.3 6.85-.47 10.28-.04.76-.01 1.58-.08 2.34-.04.44-.46 1.35-.99 1.3s-.33-1.18-.32-1.55c.09-2.79.25-5.57.38-8.37.06-1.16.04-2.33.13-3.48.03-.39.05-.74.23-1.08.12-.22.43-.6.69-.63Z" style="fill:url(#_Градієнт_без_назви_13)" /><path d="M406.93 106.15c1.35-.08 2.29.79 2.73 2 1.27 3.51-1.04 9.21-4.14 11.19-3.58 2.29-5.3-1.02-5.03-4.27.26-3.1 2.87-8.71 6.44-8.93Zm-.51 2c-3.19.22-5.98 6.98-3.85 9.35.69.77 1.72.69 2.57.24 2.41-1.27 4.25-5.73 3.21-8.27-.34-.83-.99-1.38-1.93-1.32" style="fill:url(#_Градієнт_без_назви_313)" /><path d="M427.22 158.42c1.39-.06 2.32.93 2.73 2.17 1.12 3.48-1.17 9.24-4.32 11.1-3.4 2.01-5.09-.85-4.94-4 .15-3.19 2.83-9.11 6.53-9.27m-.55 2c-3.17.24-5.88 6.72-4 9.2.88 1.16 2.28.78 3.28.02 2-1.52 3.57-5.38 2.67-7.8-.32-.84-1-1.49-1.95-1.42" style="fill:url(#_Градієнт_без_назви_314)" /><path d="M383.54 117.57c2.84-.32 3.45 2.69 3.32 4.89-.18 3.1-2.75 8.42-6.15 8.97s-3.62-3.87-3.18-6.15c.51-2.68 2.97-7.36 6.01-7.71m-.47 2c-2.38.32-4.22 4.25-4.36 6.38-.12 1.79.58 4.18 2.87 3.38 2.75-.97 4.96-6.31 3.45-8.85-.44-.73-1.11-1.03-1.95-.91Z" style="fill:url(#_Градієнт_без_назви_315)" /><path d="M403.83 169.84c1.45-.15 2.45.65 2.93 1.97 1.29 3.53-1.1 9.41-4.31 11.3s-5.03-.88-4.89-3.96c.14-3.14 2.7-8.94 6.27-9.31m-.51 2c-2.51.34-4.36 4.51-4.4 6.76-.04 2.33 1.36 4.13 3.69 2.59 2.15-1.43 3.83-5.53 2.87-8-.37-.95-1.1-1.49-2.15-1.35Z" style="fill:url(#_Градієнт_без_назви_316)" /><path d="M403.53 153.32c.44-.09.53.4.52.74-.07 2.89-.29 5.81-.43 8.7-.07 1.42-.04 2.93-.17 4.33-.04.4-.28.98-.62 1.2-1 .64-.71-1.13-.69-1.58.09-2.8.25-5.58.38-8.37.06-1.16.04-2.33.13-3.48.04-.52.28-1.42.88-1.54" style="fill:url(#_Градієнт_без_назви_317)" /><path d="M511.94 322.13v.37c-.05 2.42-1.22 4.94-3.01 6.56-.18 1.19-.04 2.47-.37 3.63l-6.07 10.9-.28.29-10.22 5.28c-.43 1.85-1.35 3.96-2.88 5.16-1.76 1.38-3.38.77-3.68-1.45s.66-4.8 1.99-6.44c1.56-1.93 4.04-2.76 4.64.42.02.1-.03.34.11.33l9.77-5.04 5.45-9.77.19-2.61c-.85.15-1.55-.2-1.96-.95-.28-.51-.27-.91-.4-1.43-.01-.05.03-.07-.06-.06l-17.51 9.03c-.36 1.79-1.28 3.8-2.68 5.01-1.24 1.07-2.91 1.41-3.63-.41-1.03-2.6.87-7.35 3.3-8.7 1.85-1.02 3.05.3 3.13 2.13l17.55-9.01c.38-1.61 1.06-3.25 2.17-4.49 1.89-2.12 4.24-1.97 4.43 1.2l.04.06Zm-2.74-.6c-1.4.2-2.54 2.66-2.64 3.93-.18 2.24 1.2 3.1 2.73 1.3.88-1.02 1.57-2.96 1.19-4.28-.18-.62-.6-1.05-1.28-.95m-24.14 12.44c-1.82.27-3.52 4.58-2.17 5.91.46.46 1.08.28 1.57-.03 1.36-.86 2.44-3.64 1.82-5.16-.22-.53-.63-.81-1.21-.72Zm4.48 12.81c-1.9.1-3.59 4.34-2.42 5.82.54.68 1.36.35 1.91-.12 1.17-.99 2.06-3.27 1.62-4.77-.15-.51-.55-.97-1.12-.94Z" style="fill:url(#_Градієнт_без_назви_318)" /><path d="m503.3 316.99-6.81 3.49c-.43 1.9-1.44 4.18-3.09 5.32-1.3.9-2.68.83-3.28-.79-.96-2.59.95-7.42 3.44-8.68 1.41-.71 2.53-.07 2.9 1.39.02.09.12.83.16.82l6.59-3.41.24-.17c.12-.65.32-1.27.57-1.88v-.05l-3.07-3.14c-.88 1.25-2.99 3.03-4.32 1.34-.45-.57-.43-1.08-.6-1.73-.01-.05.03-.07-.06-.06l-22.8 11.76c-.13.1-.23.72-.29.93-.57 1.84-2.4 5.29-4.73 4.97-.15-.02-.33-.17-.43-.06l-3.64 6.52c-.07.2.1.42.16.63.08.28.09.57.15.83.01.06 0 .09.07.07l6.76-3.48c.44-1.96 1.55-4.44 3.36-5.5 1.47-.86 2.7-.31 3.11 1.31.65 2.59-1 6.77-3.29 8.18-1.31.8-2.58.53-3.08-.99-.12-.35-.15-.71-.24-1.07l-6.79 3.53c-.42 1.82-1.34 3.93-2.84 5.12-1.79 1.42-3.42.83-3.73-1.45-.28-2.09.68-4.75 1.98-6.38.79-.98 2.13-2.16 3.48-1.6l3.7-6.68c-.66-1.5-.4-3.27.12-4.78.55-1.62 1.85-3.76 3.52-4.39s2.58.86 2.71 2.35l22.88-11.79c.46-1.92 1.48-4.27 3.19-5.39s3-.43 3.35 1.47c.27 1.48-.09 3.04-.66 4.4l3.06 3.18c.54-.67 1.12-1.34 1.9-1.73 1.25-.64 2.33-.24 2.8 1.07.95 2.59-.87 7.22-3.27 8.59-1.9 1.08-3.04-.23-3.21-2.09Zm-3.28-13.33c-1.39.2-2.54 2.67-2.64 3.93-.08.99.16 2.62 1.54 2.19 1.24-.38 2.21-2.32 2.4-3.51.16-.95.11-2.81-1.3-2.61m7.31 7.54c-1.84.24-3.5 4.43-2.27 5.84.65.76 1.65.14 2.18-.43.98-1.04 1.77-3.17 1.3-4.57-.19-.56-.59-.93-1.21-.85Zm-13.3 6.9c-1.95.11-3.81 4.86-2.21 6.02.56.41 1.25.08 1.71-.32 1.17-1 2.07-3.26 1.62-4.76-.15-.51-.54-.97-1.12-.94m-23.54.77c-1.28.19-2.34 2.39-2.55 3.53-.18 1.02-.08 3.01 1.45 2.59 1.35-.37 2.4-2.65 2.5-3.95.07-.95-.12-2.36-1.4-2.17m4.57 8.94c-1.38.22-2.51 2.76-2.6 4.01-.16 2.22 1.28 2.92 2.75 1.2.89-1.04 1.66-3.2 1.09-4.52-.24-.55-.63-.79-1.24-.7Zm-13.29 6.9c-1.87.21-3.54 4.44-2.29 5.86.54.62 1.37.26 1.89-.18 1.16-.98 2.09-3.38 1.58-4.84-.19-.54-.58-.9-1.18-.84" style="fill:url(#_Градієнт_без_назви_319)" /><path d="M480.88 372.27c.61.08 1.14.71 1.36 1.25 1.03 2.58-.8 7.28-3.19 8.67-1.83 1.07-3.09-.1-3.24-1.99-.21-2.54 1.04-5.54 2.98-7.17l.4-6.06c-.95.21-1.7-.33-2.06-1.18-1.09-2.57.8-7.34 3.19-8.72 1.9-1.1 3.12.23 3.24 2.13.16 2.55-1.12 5.43-3.01 7.11l-.38 6.01s.09-.04.1-.04c.19 0 .44-.02.61 0Zm.01-13.53c-1.86.23-3.58 4.52-2.27 5.88.55.58 1.33.25 1.86-.18 1.17-.98 2.06-3.28 1.62-4.76-.17-.57-.56-1.02-1.2-.94Zm-1.14 15.62c-1.77.28-3.33 4.31-2.25 5.74.53.7 1.33.44 1.91-.04 1.2-.99 2.18-3.45 1.6-4.95-.22-.58-.63-.85-1.27-.75Z" style="fill:url(#_Градієнт_без_назви_320)" /><path d="m470.34 345.26-4.48 2.3-5.4 9.71-.07.34-.66 10.17c1.52-.38 2.27 1.13 2.37 2.41l2.16-1.08h.28l2.53 2.62c.16.25.13.49.13.77l-.45 6.71c1.09-.23 1.84.47 2.16 1.45.84 2.55-.87 6.86-3.09 8.34-1.74 1.16-3.12.31-3.39-1.65-.36-2.55 1.01-5.79 2.97-7.43.06-2.01.33-4.02.41-6.03 0-.12.02-.41-.02-.51l-2.04-2.11-1.81.96c-.35 1.74-1.23 3.66-2.56 4.87-2.33 2.12-4.13.58-4.02-2.22.09-2.4 1.23-4.82 3.01-6.41l.7-10.68.12-.61 6.17-11.09.29-.28 4.78-2.48c.14-.42.23-.87.37-1.3.48-1.43 1.51-3.18 2.77-4.04s2.62-.78 3.21.77c1 2.59-.89 7.35-3.32 8.67-1.89 1.02-2.99-.33-3.14-2.14Zm4.15-5.78c-1.91.1-3.56 4.29-2.46 5.78.68.92 1.78.18 2.34-.46.91-1.03 1.62-2.98 1.23-4.34-.15-.53-.51-1.01-1.12-.98Zm-15.01 30.31c-1.88.17-3.56 4.4-2.36 5.84.51.61 1.33.33 1.85-.1 1.2-.98 2.12-3.29 1.66-4.8-.17-.55-.53-1-1.16-.94Zm6.93 11.47c-1.85.25-3.57 4.59-2.19 5.92.69.66 1.66-.02 2.16-.57.97-1.06 1.76-3.22 1.21-4.6-.21-.53-.6-.83-1.18-.75" style="fill:url(#_Градієнт_без_назви_321)" /><path d="M473.71 383.53c.57.09 1.1.72 1.3 1.22 1.07 2.64-.88 7.63-3.47 8.85-1.77.83-2.83-.51-2.95-2.18-.19-2.54 1.06-5.52 3-7.16l1.6-24.05c-.85-.9-1.69-1.81-2.56-2.7-.13-.14-.55-.61-.67-.67-.04-.02-.06-.05-.11-.03l-1.72.89c-.39 2.03-2.06 5.44-4.3 5.86-1.18.22-1.9-.63-2.17-1.69-.66-2.57 1.02-6.85 3.33-8.21 1.89-1.11 3.12.16 3.23 2.07l2.12-1.08.38.03 3.73 3.9c.16.25.06.57.09.85l-1.59 24.13s.05-.04.06-.04c.2 0 .51-.03.69 0Zm-8.19-28.18c-1.41.19-2.55 2.7-2.64 3.97s.38 2.86 1.93 1.97c1.45-.83 2.71-3.96 1.79-5.45-.25-.4-.61-.55-1.08-.49m7.22 30.23c-1.9.07-3.57 4.31-2.46 5.78.56.74 1.41.38 2-.12 1.13-.97 1.97-3.2 1.59-4.65-.14-.54-.52-1.03-1.13-1.01" style="fill:url(#_Градієнт_без_назви_322)" /></symbol><symbol fill="none" viewBox="0 0 17 33" id="arrow_right"><path fill="#fff" d="M17 16.5 6.06 5.208c.565-1.224.37-2.731-.61-3.744h-.001a3.126 3.126 0 0 0-4.516 0C-.31 2.749-.31 4.84.933 6.125c.623.642 1.44.964 2.258.964.47 0 .937-.119 1.37-.331L14 16.5l-9.436 9.74a3.1 3.1 0 0 0-1.372-.33c-.853 0-1.655.342-2.257.965-1.245 1.285-1.245 3.376 0 4.661.622.642 1.44.964 2.257.964s1.636-.321 2.258-.964c.98-1.013 1.176-2.52.612-3.744zM2.434 4.577a1.13 1.13 0 0 1 0-1.564 1.05 1.05 0 0 1 1.515 0 1.134 1.134 0 0 1 0 1.564 1.05 1.05 0 0 1-1.515 0m1.515 25.41a1.05 1.05 0 0 1-1.515 0 1.13 1.13 0 0 1 0-1.564 1.044 1.044 0 0 1 1.514 0 1.134 1.134 0 0 1 0 1.565" /></symbol><symbol viewBox="0 0 57 64" id="arrow_right_double"><path d="M34.628 32.01 12.398 9.658c1.15-2.428.752-5.413-1.25-7.413a6.466 6.466 0 0 0-9.17 0c-2.527 2.543-2.527 6.685 0 9.227a6.45 6.45 0 0 0 4.585 1.914c.951 0 1.902-.243 2.783-.657l19.178 19.295L9.36 51.32c-.866-.414-1.803-.657-2.783-.657a6.44 6.44 0 0 0-4.585 1.914c-2.526 2.542-2.526 6.684 0 9.226a6.45 6.45 0 0 0 9.17 0c1.988-2 2.385-4.984 1.25-7.412l22.216-22.352zM5.03 8.401a2.2 2.2 0 0 1 0-3.1c.426-.428.98-.642 1.533-.642a2.13 2.13 0 0 1 1.533.643 2.2 2.2 0 0 1 0 3.1 2.167 2.167 0 0 1-3.08 0zm3.08 50.317a2.167 2.167 0 0 1-3.08 0 2.2 2.2 0 0 1 0-3.1 2.14 2.14 0 0 1 1.533-.642 2.14 2.14 0 0 1 1.533.643 2.2 2.2 0 0 1 0 3.1z" /><path d="M56.02 32.01 33.79 9.658c1.15-2.428.752-5.413-1.25-7.413a6.466 6.466 0 0 0-9.17 0c-2.526 2.543-2.526 6.685 0 9.227a6.45 6.45 0 0 0 4.586 1.914c.95 0 1.902-.243 2.782-.657l19.178 19.295L30.752 51.32c-.866-.414-1.802-.657-2.782-.657a6.44 6.44 0 0 0-4.585 1.914c-2.527 2.542-2.527 6.684 0 9.226a6.45 6.45 0 0 0 9.17 0c1.987-2 2.385-4.984 1.25-7.412L56.02 32.039zM26.437 8.401a2.2 2.2 0 0 1 0-3.1c.426-.428.98-.642 1.533-.642a2.13 2.13 0 0 1 1.533.643 2.2 2.2 0 0 1 0 3.1 2.167 2.167 0 0 1-3.08 0zm3.066 50.317a2.167 2.167 0 0 1-3.08 0 2.2 2.2 0 0 1 0-3.1 2.14 2.14 0 0 1 1.533-.642 2.14 2.14 0 0 1 1.533.643 2.2 2.2 0 0 1 0 3.1z" /></symbol><symbol fill="none" viewBox="0 0 97 97" id="corner"><path fill="#68C4D7" d="m31.146 31.964.001 41.862c-3.517 1.19-6.058 4.359-6.06 8.111v.001c0 4.766 4.071 8.64 9.075 8.64 5-.001 9.07-3.877 9.073-8.64 0-2.382-1.017-4.543-2.66-6.107-.946-.9-2.113-1.571-3.398-2.007V37.705h37.924a8.5 8.5 0 0 0 2.112 3.24c1.713 1.63 3.993 2.53 6.416 2.529 5.002 0 9.073-3.876 9.074-8.641 0-2.381-1.018-4.542-2.66-6.106s-3.912-2.535-6.415-2.535c-3.94.002-7.267 2.422-8.518 5.771H31.147zm6.06 49.973c.001 1.6-1.364 2.9-3.044 2.9-.84.002-1.6-.324-2.153-.85a2.82 2.82 0 0 1-.893-2.05c0-1.598 1.367-2.897 3.045-2.9 1.677 0 3.048 1.302 3.044 2.899zm46.423-50.002c1.677 0 3.047 1.303 3.043 2.899.002 1.6-1.364 2.9-3.045 2.9a3.1 3.1 0 0 1-2.15-.849 2.82 2.82 0 0 1-.892-2.05h-.002c.002-1.599 1.367-2.899 3.046-2.9" /></symbol><symbol fill="none" viewBox="0 0 1303 808" id="corners"><path fill="#68C4D7" d="m1271.31 39.962-43.97.001c-1.25-3.35-4.57-5.769-8.51-5.77-5.01 0-9.08 3.876-9.08 8.641 0 4.762 4.07 8.637 9.08 8.64 2.5 0 4.77-.969 6.41-2.533.95-.9 1.65-2.013 2.11-3.236h37.93v36.113c-1.26.424-2.43 1.082-3.4 2.01-1.72 1.632-2.66 3.803-2.66 6.11 0 4.763 4.07 8.639 9.07 8.64 2.5 0 4.77-.969 6.42-2.532 1.64-1.565 2.66-3.726 2.66-6.109 0-3.752-2.54-6.92-6.06-8.11V39.962m-52.48 5.77c-1.68.002-3.05-1.299-3.05-2.898 0-.8.34-1.524.89-2.05.56-.527 1.32-.85 2.16-.85 1.68 0 3.04 1.302 3.04 2.899s-1.36 2.903-3.04 2.898zm52.51 44.205c0 1.598-1.37 2.902-3.05 2.899-1.68 0-3.04-1.3-3.04-2.9 0-.774.31-1.5.89-2.047.57-.547 1.34-.85 2.15-.85v-.001c1.68 0 3.05 1.301 3.05 2.9M35.148 771.493l43.962-.001c1.25 3.349 4.578 5.769 8.518 5.771l.001-.001c5.005 0 9.073-3.876 9.075-8.641-.003-4.762-4.073-8.637-9.076-8.64-2.5 0-4.77.969-6.412 2.533-.946.901-1.65 2.013-2.108 3.237l-37.93-.002-.002-36.111c1.262-.424 2.428-1.083 3.403-2.011 1.713-1.632 2.657-3.803 2.656-6.109 0-4.764-4.07-8.64-9.074-8.641-2.5 0-4.77.969-6.413 2.533-1.642 1.564-2.662 3.725-2.662 6.108.003 3.752 2.544 6.921 6.061 8.111v41.863zm52.48-5.77c1.681-.002 3.046 1.299 3.046 2.898.002.8-.34 1.524-.894 2.05a3.1 3.1 0 0 1-2.152.851c-1.678-.001-3.043-1.303-3.045-2.9 0-1.597 1.367-2.903 3.044-2.898zm-52.51-44.205c0-1.597 1.367-2.902 3.044-2.899 1.68-.001 3.046 1.299 3.045 2.9.001.774-.317 1.5-.89 2.047a3.1 3.1 0 0 1-2.153.85l-.001.001c-1.679-.001-3.044-1.301-3.045-2.899M31.146 31.964l.001 41.862c-3.517 1.19-6.058 4.359-6.06 8.111v.001c0 4.766 4.071 8.64 9.075 8.64 5-.001 9.07-3.877 9.073-8.64 0-2.382-1.017-4.543-2.66-6.107-.946-.9-2.113-1.571-3.398-2.007V37.705h37.924a8.5 8.5 0 0 0 2.112 3.24c1.713 1.63 3.993 2.53 6.416 2.529 5.002 0 9.073-3.876 9.074-8.641 0-2.381-1.018-4.542-2.66-6.106s-3.912-2.535-6.415-2.535c-3.94.002-7.267 2.422-8.518 5.771H31.147zm6.06 49.973c.001 1.6-1.364 2.9-3.044 2.9-.84.002-1.6-.324-2.153-.85a2.82 2.82 0 0 1-.893-2.05c0-1.598 1.367-2.897 3.045-2.9 1.677 0 3.048 1.302 3.044 2.899zm46.423-50.002c1.677 0 3.047 1.303 3.043 2.899.002 1.6-1.364 2.9-3.045 2.9a3.1 3.1 0 0 1-2.15-.849 2.82 2.82 0 0 1-.892-2.05h-.002c.002-1.599 1.367-2.899 3.046-2.9M1271.69 775.491l-.01-41.862c3.52-1.19 6.06-4.359 6.07-8.111l-.01-.001c0-4.766-4.07-8.64-9.07-8.641-5 .002-9.07 3.878-9.07 8.642 0 2.381 1.01 4.542 2.66 6.106.94.901 2.11 1.571 3.4 2.007l-.01 36.119-37.92.001a8.5 8.5 0 0 0-2.11-3.24c-1.71-1.632-3.99-2.53-6.42-2.529-5 0-9.07 3.875-9.07 8.64 0 2.381 1.02 4.542 2.66 6.106s3.91 2.535 6.41 2.535c3.94-.002 7.27-2.422 8.52-5.771h43.96zm-6.06-49.973c0-1.601 1.36-2.901 3.04-2.901.84-.001 1.6.325 2.15.852.56.526.9 1.249.9 2.049 0 1.598-1.37 2.897-3.05 2.9-1.68 0-3.05-1.302-3.04-2.899zm-46.43 50.002c-1.67 0-3.04-1.303-3.04-2.899 0-1.6 1.36-2.9 3.05-2.899.81-.001 1.57.301 2.14.848a2.8 2.8 0 0 1 .9 2.049v.001c0 1.599-1.37 2.899-3.05 2.9" /></symbol><symbol fill="none" viewBox="0 0 43 43" id="facebook"><g clip-path="url(#facebook_a)"><path fill="#3A559F" d="M37.136 0H5.864A5.864 5.864 0 0 0 0 5.864v31.272A5.864 5.864 0 0 0 5.864 43h31.272A5.864 5.864 0 0 0 43 37.136V5.864A5.864 5.864 0 0 0 37.136 0" /><path fill="#fff" d="m28.312 18.954-.433 3.746a.7.7 0 0 1-.689.628h-3.909l-.02 11.104a.5.5 0 0 1-.488.505h-3.96a.487.487 0 0 1-.49-.508V23.327h-2.93a.7.7 0 0 1-.695-.708l-.014-3.745a.705.705 0 0 1 .693-.714h2.947v-3.616c0-4.197 2.492-6.482 6.147-6.482h2.995a.704.704 0 0 1 .697.714v3.152a.7.7 0 0 1-.697.713H25.63c-1.986 0-2.372.977-2.372 2.39v3.13h4.366a.704.704 0 0 1 .689.793" /></g><defs></defs></symbol><clipPath id="facebook_a"><path fill="#fff" d="M0 0h43v43H0z" /></clipPath><symbol fill="none" viewBox="0 0 43 43" id="linkedin"><g clip-path="url(#linkedin_a)"><path fill="#0077B5" d="M37.136 0H5.864A5.864 5.864 0 0 0 0 5.864v31.272A5.864 5.864 0 0 0 5.864 43h31.272A5.864 5.864 0 0 0 43 37.136V5.864A5.864 5.864 0 0 0 37.136 0" /><path fill="#fff" d="M15.49 11.727a3.665 3.665 0 1 1-7.33 0 3.665 3.665 0 0 1 7.33 0M14.66 17.835v16.191a.91.91 0 0 1-.907.911H9.89a.91.91 0 0 1-.909-.908V17.835a.91.91 0 0 1 .91-.909h3.862a.91.91 0 0 1 .906.91M34.85 26.264v7.838a.835.835 0 0 1-.836.836h-4.153a.835.835 0 0 1-.836-.836v-7.596c0-1.134.332-4.964-2.963-4.964-2.554 0-3.074 2.621-3.177 3.799v8.761a.836.836 0 0 1-.823.836H18.05a.83.83 0 0 1-.833-.836V17.765a.83.83 0 0 1 .833-.836h4.012a.835.835 0 0 1 .836.836v1.412c.948-1.422 2.352-2.52 5.35-2.52 6.64 0 6.602 6.201 6.602 9.607" /></g><defs></defs></symbol><clipPath id="linkedin_a"><path fill="#fff" d="M0 0h43v43H0z" /></clipPath><symbol fill="none" viewBox="0 0 192 84" id="logo"><path fill="#264234" d="M94.242 15.685a8.9 8.9 0 0 0-3.623-2.689 13.46 13.46 0 0 0-16.189 4.582v-4.871h-8.117v33.37h8.744v-15.12a29 29 0 0 1 .673-7.636 6.4 6.4 0 0 1 2.477-3.33 6.97 6.97 0 0 1 4.081-1.252 5.2 5.2 0 0 1 3.057.886 4.95 4.95 0 0 1 1.789 2.428 26.7 26.7 0 0 1 .565 6.965v17.059h8.744v-20.74a27.2 27.2 0 0 0-.489-5.925 9.8 9.8 0 0 0-1.712-3.727M162.038 12.707h-9.355l-5.931 17.029c-.322.931-.657 1.878-.934 2.825-.137.458-.426 1.42-.901 2.872l-1.818-5.682-5.902-17.044h-9.676l13.116 33.37h8.545l10.701-27.857zM120.367 36.99a7.35 7.35 0 0 1-5.717 2.718 7.42 7.42 0 0 1-5.763-2.642 11.06 11.06 0 0 1-2.339-7.636 11.08 11.08 0 0 1 2.339-7.636 7.42 7.42 0 0 1 5.763-2.658 7.36 7.36 0 0 1 5.762 2.642 11.03 11.03 0 0 1 2.339 7.546c.18 2.76-.67 5.492-2.384 7.666m6.512-20.19a16.52 16.52 0 0 0-12.229-4.857 18.04 18.04 0 0 0-8.837 2.184 14.85 14.85 0 0 0-6.114 6.277 18.3 18.3 0 0 0-2.155 8.522c-.1 3.381.642 6.734 2.155 9.76a14.2 14.2 0 0 0 6.298 6.108 19.16 19.16 0 0 0 8.653 2.046 16.35 16.35 0 0 0 12.229-4.978 17 17 0 0 0 2.736-3.681 18.2 18.2 0 0 0 2.11-8.842 18 18 0 0 0-2.11-8.813 16.7 16.7 0 0 0-2.736-3.726M180.657 36.929a7.35 7.35 0 0 1-5.763 2.78 7.42 7.42 0 0 1-5.763-2.643 11.07 11.07 0 0 1-2.339-7.636 11.1 11.1 0 0 1 2.339-7.636 7.42 7.42 0 0 1 5.763-2.642 7.36 7.36 0 0 1 5.748 2.642 11.05 11.05 0 0 1 2.339 7.545 11.25 11.25 0 0 1-2.324 7.651zm6.543-20.13a16.5 16.5 0 0 0-12.321-4.917 18 18 0 0 0-8.82 2.184 14.83 14.83 0 0 0-6.115 6.277 18.3 18.3 0 0 0-2.14 8.477 20.5 20.5 0 0 0 2.14 9.728 14.2 14.2 0 0 0 6.298 6.109 19.1 19.1 0 0 0 8.652 2.076 16.33 16.33 0 0 0 12.23-4.978 17.3 17.3 0 0 0 4.845-12.554A17.06 17.06 0 0 0 187.2 16.8" /><path fill="#F25A1A" d="M21.6 37.265a6.48 6.48 0 0 1-5.182 2.596 6.65 6.65 0 0 1-5.885-3.452 15.26 15.26 0 0 1-1.529-7.728 11.3 11.3 0 0 1 2.124-7.467 6.63 6.63 0 0 1 5.244-2.505c2.07-.041 4.038.9 5.305 2.535 1.375 1.68 2.063 4.46 2.063 8.278a12.05 12.05 0 0 1-2.14 7.743m2.094-21.993a12.8 12.8 0 0 0-7.337-3.207 21 21 0 0 0-2.324-.122 12.98 12.98 0 0 0-10.058 4.414Q0 20.77 0 29.262t4.081 12.936a16.52 16.52 0 0 0 12.23 4.841 17.7 17.7 0 0 0 11.924-4.062c2.95-2.719 4.219-7.01 4.219-13.333V0h-8.76zM43.109 26.529a8.12 8.12 0 0 1 1.864-5.712 6.12 6.12 0 0 1 4.204-2.093h.58a5.96 5.96 0 0 1 4.586 2c2.019 2.185.689 5.697-2.827 6.384l-8.454 1.986v-2.55zm12.366 9.957a6.1 6.1 0 0 1-1.804 2.627 5.43 5.43 0 0 1-3.485 1.13 8 8 0 0 1-1.024 0 6.63 6.63 0 0 1-4.081-2.123 7.2 7.2 0 0 1-1.53-2.428l11.298-2.627a13 13 0 0 0 7.337-4.17c2.34-3.054 2.492-7.33-1.223-11.958a14.87 14.87 0 0 0-11.786-4.917 14.3 14.3 0 0 0-10.96 4.627q-4.342 4.734-4.341 12.997a19.1 19.1 0 0 0 3.317 11.5q3.959 5.39 11.984 5.667h.917c3.247.119 6.45-.765 9.172-2.536a14.8 14.8 0 0 0 5.488-7.82h-9.28z" /><path fill="#264234" d="M1.406 58.998v-3.834h63.302v3.848z" /><path fill="#F25A1A" d="M64.586 58.998v-3.834H192v3.848z" /><path fill="#264234" d="M3.546 66.115v14.217H2.69V66.115zM7.536 70.1v2.26a3.87 3.87 0 0 1 3.776-2.535 3.47 3.47 0 0 1 2.644 1.008c.67.773 1.01 1.775.949 2.796v6.72h-.795v-6.324q0-3.48-2.982-3.48a3.24 3.24 0 0 0-3.057 1.679 5.7 5.7 0 0 0-.58 2.81v5.298h-.734V70.101zM25.36 73.078h-.826a2.6 2.6 0 0 0-.916-1.954 3.66 3.66 0 0 0-2.217-.596 3.4 3.4 0 0 0-2.033.535c-.503.34-.788.922-.749 1.528a1.8 1.8 0 0 0 0 .442q.044.183.122.35a1 1 0 0 0 .23.306l.26.245q.161.124.351.199l.366.152.888.244.504.123.489.107 1.055.245.963.335c.342.121.662.297.948.519.23.215.422.468.565.749.178.338.267.717.26 1.1a2.59 2.59 0 0 1-1.116 2.183 4.76 4.76 0 0 1-2.935.824 4.46 4.46 0 0 1-3.057-.991 3.5 3.5 0 0 1-1.116-2.766h.795a2.82 2.82 0 0 0 .887 2.276 3.78 3.78 0 0 0 2.538.764 3.96 3.96 0 0 0 2.308-.626c.558-.354.893-.973.886-1.634a1.5 1.5 0 0 0-.214-.794q-.178-.317-.444-.566a2.5 2.5 0 0 0-.733-.397 6 6 0 0 0-.734-.244l-.795-.184h-.26l-.55-.122-.61-.122-.582-.152a3.5 3.5 0 0 1-.58-.214l-.506-.244a1.4 1.4 0 0 1-.458-.336l-.337-.428a1.6 1.6 0 0 1-.244-.535 3 3 0 0 1 0-.656c-.027-.8.346-1.56.993-2.032a4.6 4.6 0 0 1 2.752-.732 4.36 4.36 0 0 1 2.813.825 3.05 3.05 0 0 1 1.04 2.274M32.989 70.498a3.35 3.35 0 0 0-2.783 1.267 5.57 5.57 0 0 0-.994 3.528c-.011.78.114 1.554.368 2.29a3.8 3.8 0 0 0 1.253 1.726 3.4 3.4 0 0 0 2.17.703 3.3 3.3 0 0 0 2.737-1.298 5.37 5.37 0 0 0 1.024-3.436 5.48 5.48 0 0 0-1.024-3.498 3.34 3.34 0 0 0-2.751-1.267zm-3.777-.397v2.443a3.76 3.76 0 0 1 3.822-2.719 4.13 4.13 0 0 1 3.333 1.528 5.97 5.97 0 0 1 1.253 3.971 5.9 5.9 0 0 1-1.253 3.924 4.465 4.465 0 0 1-5.733.795 3.56 3.56 0 0 1-1.375-1.97v5.925h-.796V70.101zM41.274 70.116v10.233h-.795V70.101zm0-4.001v2.016h-.795v-2.016zM49.162 70.024v.825h-.245a3.35 3.35 0 0 0-2.812 1.375c-.35.447-.59.97-.703 1.527a12.3 12.3 0 0 0-.154 2.107v4.474h-.917V70.101h.78v2.703a4.36 4.36 0 0 1 1.528-2.123 4.33 4.33 0 0 1 2.523-.657M58.624 74.683a4.58 4.58 0 0 0-.947-2.903 3.24 3.24 0 0 0-2.706-1.22 3.27 3.27 0 0 0-2.706 1.16 5.45 5.45 0 0 0-1.116 2.978zm.718 2.183a4.58 4.58 0 0 1-1.436 2.764 4.22 4.22 0 0 1-2.935 1.054 4.26 4.26 0 0 1-3.394-1.527 5.72 5.72 0 0 1-1.268-3.894 5.94 5.94 0 0 1 1.283-3.972 4.19 4.19 0 0 1 3.364-1.527 3.93 3.93 0 0 1 3.316 1.527 6 6 0 0 1 1.163 3.757v.276h-8.286a5.43 5.43 0 0 0 .963 3.283 3.32 3.32 0 0 0 2.874 1.344c.85.026 1.68-.269 2.324-.825a4.03 4.03 0 0 0 1.222-2.32zM66.16 70.498a3.32 3.32 0 0 0-2.735 1.282 5.47 5.47 0 0 0-1.025 3.483 5.37 5.37 0 0 0 1.01 3.451 3.35 3.35 0 0 0 2.766 1.253 3.41 3.41 0 0 0 2.813-1.284 5.38 5.38 0 0 0 1.023-3.481 5.7 5.7 0 0 0-.963-3.36 3.3 3.3 0 0 0-2.95-1.36zm4.586-4.383v14.217h-.764V77.89a3.7 3.7 0 0 1-1.421 2.078 4.59 4.59 0 0 1-5.886-.763 5.9 5.9 0 0 1-1.222-3.94 5.98 5.98 0 0 1 1.253-3.988 4.13 4.13 0 0 1 3.333-1.527 3.9 3.9 0 0 1 3.852 2.673v-6.307zM84.78 70.467a3.32 3.32 0 0 0-2.69 1.313 5.33 5.33 0 0 0-1.07 3.407 5.45 5.45 0 0 0 1.039 3.48 3.593 3.593 0 0 0 5.533 0 6.4 6.4 0 0 0 0-6.948 3.45 3.45 0 0 0-2.766-1.252zm-3.76-4.352v6.414a3.85 3.85 0 0 1 3.897-2.748 4.07 4.07 0 0 1 3.302 1.527 7.08 7.08 0 0 1 0 7.94 4.05 4.05 0 0 1-3.302 1.527 3.805 3.805 0 0 1-3.898-2.886v2.443h-.764V66.115zM99.959 70.101 95.54 81.387q-.305.78-.443 1.099a5 5 0 0 1-.474.764 1.64 1.64 0 0 1-.764.596 3.4 3.4 0 0 1-1.116.152h-.78v-.717q.33.03.657 0c.406.025.809-.082 1.147-.306.328-.27.576-.623.719-1.023q.474-1.1.703-1.65l-4.357-10.201h.887l3.378 8.018q.16.389.458 1.283.383-1.116.474-1.376l3.058-7.91zM111.96 70.101v.703h-2.203v7.558a4 4 0 0 0 0 .49c.02.164.091.319.199.442q.186.16.414.245c.214.08.443.115.671.107q.424-.006.842-.077v.733a7.5 7.5 0 0 1-.964.077 2.7 2.7 0 0 1-.993-.152 2 2 0 0 1-.612-.352 1.18 1.18 0 0 1-.305-.627 4 4 0 0 1-.107-.702v-7.742h-1.896V70.1h1.896v-3.208h.794v3.208zM115.002 66.115v6.307a4.07 4.07 0 0 1 1.375-1.878 3.73 3.73 0 0 1 2.308-.703 3.42 3.42 0 0 1 2.736 1.053c.648.814.974 1.835.919 2.872v6.566h-.796v-6.429a3.83 3.83 0 0 0-.78-2.458 2.76 2.76 0 0 0-2.293-.917 3.06 3.06 0 0 0-2.14.763 3.96 3.96 0 0 0-1.162 2.017 7.7 7.7 0 0 0-.184 1.818v5.191h-.793V66.115zM133.193 74.683a4.58 4.58 0 0 0-.949-2.903 3.24 3.24 0 0 0-2.705-1.22 3.27 3.27 0 0 0-2.66 1.22 5.47 5.47 0 0 0-1.117 2.979zm.717 2.183a4.57 4.57 0 0 1-1.436 2.764 4.23 4.23 0 0 1-2.935 1.054 4.27 4.27 0 0 1-3.395-1.527 5.73 5.73 0 0 1-1.267-3.894 5.93 5.93 0 0 1 1.284-3.972 4.19 4.19 0 0 1 3.363-1.527 3.94 3.94 0 0 1 3.317 1.527 6 6 0 0 1 1.162 3.757v.276h-8.286a5.43 5.43 0 0 0 .963 3.283 3.32 3.32 0 0 0 2.874 1.344 3.4 3.4 0 0 0 2.323-.825 4.03 4.03 0 0 0 1.224-2.32zM146.827 66.083v.719h-.793a2 2 0 0 0-.796.137 1.7 1.7 0 0 0-.489.306c-.132.15-.217.335-.244.534a4 4 0 0 0-.093.595v1.788h2.141v.703h-2.141v9.467h-.794v-9.528h-1.805V70.1h1.774v-1.284a3.8 3.8 0 0 1 .474-2.09 2.17 2.17 0 0 1 1.926-.704zM156.535 70.101v10.231h-.764V78.18a3.75 3.75 0 0 1-3.684 2.458 3.38 3.38 0 0 1-2.707-1.053 4.23 4.23 0 0 1-.916-2.87V70.1h.794v6.413q0 3.422 2.981 3.422a3.05 3.05 0 0 0 2.599-1.253 5.1 5.1 0 0 0 .887-3.055v-5.527zM163.445 70.101v.703h-2.202v7.558a4 4 0 0 0 0 .49c.019.164.089.319.199.442q.183.16.413.245c.215.08.443.115.672.107q.423-.006.841-.077v.733q-.478.07-.963.077a2.7 2.7 0 0 1-.994-.152c-.223-.08-.429-.2-.611-.352a1.17 1.17 0 0 1-.306-.627 4 4 0 0 1-.107-.702v-7.742h-1.895V70.1h2.018v-3.208h.794v3.208zM173.687 70.101v10.231h-.765V78.18a3.75 3.75 0 0 1-3.684 2.458 3.38 3.38 0 0 1-2.614-1.07 4.22 4.22 0 0 1-.917-2.87V70.1h.795v6.413q0 3.422 2.981 3.422a3.06 3.06 0 0 0 2.599-1.253 5.1 5.1 0 0 0 .886-3.055v-5.527zM181.59 70.024v.825h-.306a3.35 3.35 0 0 0-2.813 1.375c-.35.447-.59.97-.703 1.527a12.7 12.7 0 0 0-.153 2.107v4.474h-.795V70.101h.78v2.703a4.36 4.36 0 0 1 1.529-2.123 4.33 4.33 0 0 1 2.461-.657M191.083 74.683a4.58 4.58 0 0 0-.948-2.918 3.24 3.24 0 0 0-2.706-1.22 3.27 3.27 0 0 0-2.705 1.16 5.44 5.44 0 0 0-1.116 2.978zm.688 2.183a4.6 4.6 0 0 1-1.437 2.764 4.23 4.23 0 0 1-2.935 1.054 4.27 4.27 0 0 1-3.394-1.527 5.72 5.72 0 0 1-1.269-3.894 5.94 5.94 0 0 1 1.284-3.972 4.19 4.19 0 0 1 3.363-1.527 3.93 3.93 0 0 1 3.318 1.527 6 6 0 0 1 1.161 3.757v.276h-8.3a5.43 5.43 0 0 0 .963 3.283 3.31 3.31 0 0 0 2.874 1.344 3.4 3.4 0 0 0 2.323-.825 4.02 4.02 0 0 0 1.223-2.32z" /></symbol><symbol fill="none" viewBox="0 0 43 43" id="mail"><g clip-path="url(#mail_a)"><path fill="#fff" d="M6 9h31v25H6z" /><path fill="#F25A1A" d="M34.182 0H8.818C3.956 0 0 3.956 0 8.818v25.364C0 39.044 3.956 43 8.818 43h25.364C39.044 43 43 39.044 43 34.182V8.818C43 3.956 39.044 0 34.182 0m-2.713 12.262-9.972 9.972-9.973-9.972zM8.63 28.389a1.25 1.25 0 0 1-.147-.59V13.522c0-.214.054-.415.148-.591l7.73 7.73zm2.895.67 6.617-6.617 3.356 3.356 3.359-3.36 6.62 6.62zm22.994-1.26c0 .213-.054.414-.148.59l-7.733-7.732 7.73-7.73c.096.176.15.38.15.595z" /></g><defs></defs></symbol><clipPath id="mail_a"><path fill="#fff" d="M0 0h43v43H0z" /></clipPath><symbol fill="none" viewBox="0 0 43 43" id="telegram"><g clip-path="url(#telegram_a)"><path fill="#1C8ADB" d="M37.136 0H5.864A5.864 5.864 0 0 0 0 5.864v31.272A5.864 5.864 0 0 0 5.864 43h31.272A5.864 5.864 0 0 0 43 37.136V5.864A5.864 5.864 0 0 0 37.136 0" /><path fill="#fff" d="m33.213 11.117-.445.16-24.134 8.696a.808.808 0 0 0 .071 1.564l6.247 1.71 1.166 3.42 1.165 3.42a1.11 1.11 0 0 0 1.788.399l3.228-3.05 6.338 4.299c.774.527 1.878.136 2.076-.733l4.198-18.547c.205-.918-.763-1.673-1.698-1.338m-3.081 4.116-10.904 8.913-.513.42a.56.56 0 0 0-.205.362l-.115.948-.315 2.663a.123.123 0 0 1-.245.02l-.887-2.661-.916-2.724a.55.55 0 0 1 .264-.653l11.346-6.504 2.136-1.221c.31-.18.627.213.354.437" /></g><defs></defs></symbol><clipPath id="telegram_a"><path fill="#fff" d="M0 0h43v43H0z" /></clipPath><symbol fill="none" viewBox="0 0 941 75" id="title1"><path fill="#68C4D7" d="M0 6.07h9.88v22.01h7.169l9.284-22.01H36.44l-8.148 19.51c-.852 2.028-1.704 3.485-2.57 4.37-.852.886-1.916 1.457-3.166 1.714v.386c1.25.3 2.3.871 3.138 1.714.823.828 1.675 2.27 2.527 4.284l5.21 12.826h4.457v8.198h-5.58c-2.114 0-3.846-.514-5.209-1.557s-2.54-2.77-3.549-5.198l-6.487-16.011H9.894v22.766H0zM62.829 59.958c-2.967 0-5.621-.486-7.964-1.443s-4.33-2.328-5.962-4.099c-1.632-1.77-2.896-3.927-3.776-6.455s-1.32-5.356-1.32-8.499c0-3.142.44-5.97 1.32-8.498s2.13-4.684 3.776-6.455c1.633-1.771 3.62-3.142 5.962-4.1 2.343-.956 4.997-1.442 7.964-1.442s5.55.486 7.921 1.443c2.356.957 4.358 2.328 5.99 4.099 1.633 1.77 2.896 3.927 3.776 6.455s1.32 5.37 1.32 8.498-.44 5.97-1.32 8.499c-.88 2.528-2.143 4.684-3.776 6.455-1.632 1.771-3.634 3.142-5.99 4.1-2.37.956-5.011 1.442-7.921 1.442m0-7.441c2.768 0 4.954-.843 6.558-2.543s2.413-4.184 2.413-7.47v-6.07c0-3.284-.809-5.784-2.413-7.47-1.604-1.699-3.79-2.541-6.558-2.541s-4.954.842-6.558 2.542-2.414 4.185-2.414 7.47v6.07c0 3.285.81 5.784 2.414 7.47 1.604 1.699 3.79 2.542 6.558 2.542M91.191 19.881h9.653v15.482h14.48V19.881h9.653v39.163h-9.653V42.947h-14.48v16.097h-9.653zM157.342 74.226h-7.992v-19.81h-.454c-.809 2.128-1.76 3.585-2.868 4.37s-2.413 1.172-3.918 1.172q-2.257 0-3.96-1.029c-1.136-.685-2.073-1.828-2.825-3.413-.752-1.6-1.32-3.7-1.703-6.341-.384-2.628-.568-5.87-.568-9.713s.184-7.084.568-9.712.936-4.741 1.703-6.341c.752-1.6 1.703-2.728 2.825-3.414 1.121-.685 2.456-1.028 3.96-1.028s2.811.386 3.918 1.171c1.108.786 2.059 2.243 2.868 4.37h.454V5.157h7.992v19.353h.454c.809-2.128 1.761-3.585 2.868-4.37s2.413-1.172 3.918-1.172q2.257 0 3.96 1.028c1.136.686 2.073 1.829 2.825 3.414s1.32 3.713 1.704 6.341.567 5.87.567 9.712-.184 7.084-.567 9.712q-.575 3.943-1.704 6.342c-.752 1.6-1.703 2.728-2.825 3.413q-1.703 1.029-3.96 1.029c-1.505 0-2.811-.386-3.918-1.171-1.107-.786-2.059-2.243-2.868-4.37h-.454zm-11.683-21.638c1.306 0 2.257-.414 2.868-1.257.61-.828.908-2.214.908-4.142V31.707c0-1.928-.298-3.3-.908-4.142-.596-.828-1.562-1.257-2.868-1.257-1.405 0-2.484.629-3.251 1.9-.752 1.271-1.135 3.599-1.135 6.984v8.498c0 3.385.383 5.713 1.135 6.984.753 1.271 1.832 1.9 3.251 1.9zm15.388 0c1.405 0 2.484-.628 3.251-1.9.752-1.256 1.135-3.585 1.135-6.984v-8.498c0-3.385-.383-5.713-1.135-6.984-.753-1.257-1.831-1.9-3.251-1.9-1.306 0-2.257.415-2.867 1.257-.597.829-.909 2.214-.909 4.142v15.482c0 1.929.298 3.3.909 4.142.61.829 1.561 1.257 2.867 1.257zM199.502 59.958c-3.123 0-5.876-.486-8.29-1.443s-4.443-2.328-6.075-4.099c-1.633-1.77-2.882-3.913-3.734-6.413s-1.277-5.327-1.277-8.455.44-6.041 1.32-8.57c.88-2.527 2.129-4.684 3.733-6.455s3.563-3.142 5.849-4.1c2.285-.956 4.869-1.442 7.736-1.442s5.352.472 7.623 1.414c2.257.943 4.188 2.271 5.764 4 1.589 1.728 2.796 3.813 3.662 6.24.866 2.429 1.278 5.128 1.278 8.07v3.2h-27.312v.985c0 2.828.88 5.128 2.64 6.87s4.23 2.614 7.396 2.614c2.413 0 4.486-.5 6.217-1.486a13.45 13.45 0 0 0 4.344-3.913l5.508 5.513c-1.405 2.057-3.464 3.828-6.147 5.285q-4.046 2.185-10.22 2.185zm-.667-33.85c-2.711 0-4.897.872-6.558 2.6s-2.484 4.027-2.484 6.884v.528h17.645v-.685q0-4.285-2.3-6.813t-6.303-2.528zM226.431 19.881h9.653v6.913h.525c1.051-2.371 2.499-4.27 4.33-5.699 1.831-1.414 4.259-2.128 7.282-2.128 2.215 0 4.23.414 6.076 1.257 1.831.828 3.407 2.1 4.713 3.8s2.314 3.827 3.023 6.412 1.051 5.599 1.051 9.026c0 3.428-.355 6.456-1.051 9.027-.709 2.585-1.717 4.713-3.023 6.413s-2.882 2.956-4.713 3.799-3.861 1.257-6.076 1.257c-3.009 0-5.437-.714-7.282-2.128-1.846-1.414-3.279-3.314-4.33-5.699h-.525v22.08h-9.653zm17.73 32.336c2.811 0 4.997-.857 6.53-2.585 1.533-1.714 2.3-4.071 2.3-7.056v-6.227c0-2.985-.767-5.342-2.3-7.056s-3.705-2.585-6.53-2.585c-2.214 0-4.116.543-5.692 1.628-1.59 1.086-2.371 2.743-2.371 4.97v12.298c0 2.228.795 3.885 2.371 4.97 1.59 1.086 3.478 1.628 5.692 1.628zM290.027 59.958c-3.123 0-5.877-.486-8.305-1.443-2.413-.957-4.443-2.328-6.075-4.099-1.633-1.77-2.882-3.913-3.734-6.413s-1.277-5.327-1.277-8.455.44-6.041 1.32-8.57c.88-2.527 2.129-4.684 3.733-6.455s3.549-3.142 5.849-4.1c2.285-.956 4.869-1.442 7.736-1.442s5.352.472 7.623 1.414c2.257.943 4.188 2.271 5.778 4 1.59 1.728 2.796 3.813 3.662 6.24.852 2.443 1.278 5.128 1.278 8.07v3.2h-27.312v.985c0 2.828.88 5.128 2.64 6.87s4.23 2.614 7.396 2.614c2.413 0 4.486-.5 6.218-1.486a13.45 13.45 0 0 0 4.343-3.913l5.508 5.513c-1.405 2.057-3.463 3.828-6.146 5.285q-4.046 2.185-10.221 2.185zm-.682-33.85c-2.711 0-4.897.872-6.558 2.6s-2.484 4.027-2.484 6.884v.528h17.645v-.685q0-4.285-2.3-6.813t-6.303-2.528zM317.481 19.881h9.653v15.482h14.479V19.881h9.653v39.163h-9.653V42.947h-14.479v16.097h-9.653zM391.921 59.044h-30.094V19.88h9.653v31.564h13.429V19.881h9.653v31.564h6.104v18.21h-8.745V59.03zM409.651 51.46h12.819V27.48h-12.819v-7.585h22.472V51.46h11.924v7.584h-34.396zm17.645-37.649c-2.257 0-3.861-.486-4.783-1.442-.937-.957-1.392-2.128-1.392-3.485V7.07c0-1.371.469-2.528 1.392-3.485.936-.957 2.526-1.443 4.783-1.443s3.862.486 4.784 1.443c.937.957 1.391 2.128 1.391 3.485v1.814c0 1.37-.468 2.528-1.391 3.485-.937.957-2.526 1.442-4.784 1.442M451.443 51.46h4.443l2.342-4.285c1.207-2.2 3.01-3.314 5.437-3.37v-.458c-3.222-.257-5.848-1.257-7.878-3.042-2.03-1.77-3.052-4.356-3.052-7.741 0-1.928.312-3.67.937-5.242q.936-2.355 2.682-3.985c1.15-1.085 2.527-1.928 4.117-2.542s3.35-.914 5.323-.914h20.442v39.163h-9.653v-14.34h-6.189l-4.827 8.884c-1.164 2.028-2.37 3.442-3.662 4.256-1.278.814-2.953 1.214-5.011 1.214h-5.437v-7.584zm25.112-24.366h-8.972c-1.604 0-2.853.428-3.733 1.285s-1.321 1.943-1.321 3.27v1.743c0 1.314.441 2.4 1.321 3.271.88.857 2.129 1.286 3.733 1.286h8.972zM543.912 59.044v-7.441h11.839V13.51h-11.839V6.07h33.487v7.441H565.56v38.092h11.839v7.44zM610.815 14.268v44.776h-9.809V14.268h-15.842V6.07h41.493v8.198zM639.49 40.676v-9.483h23.379v9.483zM679.989 19.881h9.653v15.41h6.104l8.673-15.41h10.491l-7.992 14.011q-1.278 2.27-2.683 3.214a9.1 9.1 0 0 1-3.137 1.328v.457q1.959.386 3.279 1.457c.88.714 1.774 1.942 2.683 3.67l3.918 7.427h4.23v7.584h-5.281c-1.859 0-3.449-.414-4.755-1.257-1.306-.842-2.484-2.213-3.549-4.141l-5.806-10.784h-6.189v16.168h-9.653V19.881zM742.591 59.958c-3.123 0-5.891-.486-8.304-1.443s-4.444-2.328-6.076-4.099c-1.632-1.77-2.882-3.913-3.733-6.413-.852-2.5-1.278-5.327-1.278-8.455s.44-6.041 1.32-8.57c.88-2.527 2.13-4.684 3.734-6.455s3.563-3.142 5.848-4.1c2.286-.956 4.869-1.442 7.737-1.442 2.867 0 5.351.472 7.623 1.414 2.271.943 4.187 2.271 5.777 4 1.59 1.728 2.797 3.813 3.662 6.24.852 2.443 1.278 5.128 1.278 8.07v3.2h-27.312v.985c0 2.828.88 5.128 2.64 6.87s4.231 2.614 7.396 2.614c2.414 0 4.486-.5 6.218-1.486a13.45 13.45 0 0 0 4.344-3.913l5.507 5.513c-1.405 2.057-3.463 3.828-6.146 5.285q-4.045 2.185-10.221 2.185zm-.667-33.85c-2.712 0-4.898.872-6.558 2.6s-2.485 4.027-2.485 6.884v.528h17.645v-.685q0-4.285-2.299-6.813t-6.303-2.528zM770.045 19.881h9.426v14.797l-.824 11.083h.455l15.686-25.88h9.056v39.163h-9.426V44.247l.824-11.083h-.454l-15.686 25.88h-9.057zm16.907-4.627c-5.934 0-10.008-2.728-12.223-8.198l-1.731-4.257 7.764-2.813 2.57 8.126q.596.236 1.618.386c.681.1 1.349.157 2.002.157s1.32-.057 2.001-.157q1.023-.15 1.618-.386l2.57-8.126 7.765 2.813-1.732 4.257c-2.215 5.47-6.289 8.198-12.222 8.198M833.711 59.958c-2.966 0-5.635-.486-7.992-1.443-2.37-.957-4.358-2.328-5.99-4.099-1.633-1.77-2.896-3.927-3.776-6.455s-1.32-5.356-1.32-8.499c0-3.142.44-5.97 1.32-8.498s2.129-4.684 3.776-6.455c1.632-1.771 3.62-3.142 5.962-4.1 2.342-.956 4.997-1.442 7.964-1.442 4.116 0 7.438.857 9.951 2.585 2.512 1.714 4.429 4 5.735 6.827l-7.467 4.1c-.71-1.672-1.704-3.029-2.981-4.057-1.278-1.028-3.024-1.557-5.238-1.557-2.868 0-5.068.829-6.601 2.5-1.533 1.67-2.3 3.942-2.3 6.827v6.527c0 2.828.767 5.099 2.3 6.798 1.533 1.7 3.79 2.543 6.757 2.543 2.314 0 4.159-.529 5.55-1.6 1.377-1.057 2.499-2.485 3.35-4.256l7.24 4.327c-1.306 2.785-3.279 5.042-5.92 6.799-2.64 1.742-6.075 2.614-10.291 2.614zM862.23 51.46h12.818V27.48H862.23v-7.585h22.471V51.46h11.925v7.584H862.23zm17.645-37.649c-2.257 0-3.861-.486-4.784-1.442-.937-.957-1.391-2.128-1.391-3.485V7.07c0-1.371.468-2.528 1.391-3.485s2.527-1.443 4.784-1.443 3.861.486 4.784 1.443c.937.957 1.391 2.128 1.391 3.485v1.814c0 1.37-.469 2.528-1.391 3.485-.937.957-2.527 1.442-4.784 1.442M906.733 19.881h21.577c3.463 0 6.146.928 8.034 2.771s2.825 4.242 2.825 7.17c0 4.756-2.697 7.612-8.077 8.57v.3c2.867.256 5.167 1.085 6.899 2.499s2.598 3.599 2.598 6.527c0 1.614-.284 3.113-.824 4.484a10.5 10.5 0 0 1-2.37 3.571c-1.037 1.014-2.3 1.814-3.805 2.385-1.504.572-3.222.871-5.124.871h-21.719V19.881zm18.851 16.325c1.263 0 2.2-.343 2.825-1.028.625-.686.937-1.6.937-2.771v-1.671c0-1.157-.312-2.085-.937-2.771s-1.576-1.028-2.825-1.028h-9.426v9.255h9.426zm.98 15.782c2.81 0 4.23-1.314 4.23-3.942v-1.742c0-2.628-1.406-3.942-4.23-3.942h-10.406v9.64h10.406z" /></symbol><symbol fill="none" viewBox="0 0 793 85" id="title2"><path fill="#fff" d="M.81 61.777h6.104l7.822-16.354c.951-2.042 1.945-3.485 2.953-4.356 1.022-.857 2.285-1.457 3.818-1.77v-.472c-5.848-.314-10.206-2.071-13.074-5.242-2.867-3.17-4.287-7.427-4.287-12.74 0-5.841 1.604-10.469 4.812-13.897 3.208-3.427 7.808-5.141 13.784-5.141h23.366v66.984h-8.006V40.096H26.078l-10.49 21.91q-1.917 3.92-3.96 5.355c-1.364.957-2.968 1.428-4.813 1.428H.81zM38.102 8.803H22.94c-3.18 0-5.692.843-7.538 2.542q-2.768 2.55-2.768 8.013v3.17q0 5.464 2.768 8.013c1.845 1.7 4.358 2.542 7.538 2.542H38.1zM61.95 1.79h8.006v29.465h11.74L95.82 1.79h8.489l-12.69 26.452c-1.08 2.242-2.102 3.784-3.053 4.641q-1.426 1.286-3.151 1.586v.485c1.405.329 2.57.971 3.535 1.971.95 1 2.001 2.8 3.151 5.428l8.588 19.424h6.204v7.012h-6.005c-1.902 0-3.592-.557-5.054-1.685-1.462-1.114-2.74-2.928-3.818-5.427L81.71 38.254H69.97v30.521h-8.006V1.79zM117.284 85v-7.013h45.78V85zM216.197 68.775h-39.775V1.79h8.006v59.987h23.948V1.79h8.006v59.987h7.154v21.395h-7.339zM234.609 68.775V1.79h41.01v7.013h-33.004v22.552h31.855v7.013h-31.855V61.79h33.004v7.013h-41.01zM288.977 85v-7.013h45.781V85zM367.293 69.932c-5.465 0-10.064-1.128-13.783-3.4-3.72-2.27-6.786-5.098-9.199-8.497l5.82-4.8c4.699 6.47 10.434 9.699 17.162 9.699 4.387 0 7.879-1.057 10.491-3.157s3.904-5.099 3.904-8.983V48.78c0-3.257-1.108-5.913-3.336-7.984-2.229-2.071-5.693-3.114-10.391-3.114h-9.341V30.67h8.773c8.588 0 12.875-3.627 12.875-10.897v-2c0-3.056-1.065-5.513-3.194-7.355s-5.295-2.77-9.497-2.77c-3.69 0-6.714.67-9.056 2.013-2.357 1.343-4.287 3.17-5.82 5.47l-6.005-3.942c2.285-3.399 5.096-6.013 8.446-7.827 3.336-1.813 7.495-2.727 12.45-2.727 6.998 0 12.25 1.6 15.785 4.798 3.535 3.2 5.295 7.484 5.295 12.855q0 7.006-3.62 10.797c-2.413 2.528-5.437 4.085-9.057 4.656v.486c1.973.257 3.819.742 5.536 1.442 1.718.7 3.209 1.7 4.486 2.971 1.278 1.286 2.286 2.87 3.052 4.756.767 1.886 1.15 4.085 1.15 6.57 0 2.942-.525 5.642-1.576 8.113a17.5 17.5 0 0 1-4.528 6.327c-1.973 1.756-4.372 3.113-7.197 4.085-2.825.956-6.033 1.442-9.582 1.442zM406.302 68.775V1.79h24.232c6.161 0 10.874 1.7 14.125 5.085 3.25 3.4 4.869 8.127 4.869 14.211s-1.619 10.812-4.869 14.197c-3.251 3.399-7.95 5.084-14.125 5.084h-16.211v28.408h-8.021m8.007-35.406h16.026c3.365 0 5.991-.843 7.865-2.542q2.81-2.55 2.81-7.242v-4.984c0-3.128-.937-5.556-2.81-7.241-1.874-1.7-4.5-2.543-7.865-2.543h-16.026v24.566zM483.568 69.932c-4.074 0-7.566-.785-10.49-2.357-2.925-1.57-5.338-3.827-7.254-6.77-1.902-2.942-3.308-6.555-4.202-10.84s-1.334-9.184-1.334-14.682.44-10.312 1.334-14.64c.894-4.313 2.286-7.955 4.202-10.897 1.902-2.942 4.329-5.2 7.254-6.77 2.924-1.571 6.416-2.357 10.49-2.357s7.566.786 10.491 2.357c2.924 1.57 5.337 3.828 7.253 6.77 1.903 2.942 3.308 6.57 4.202 10.897.895 4.313 1.335 9.198 1.335 14.64 0 5.441-.44 10.397-1.335 14.682-.894 4.285-2.285 7.898-4.202 10.84-1.902 2.943-4.329 5.2-7.253 6.77-2.925 1.572-6.431 2.357-10.491 2.357m0-7.013q4.003 0 6.771-1.585c1.846-1.057 3.365-2.542 4.586-4.456 1.206-1.914 2.086-4.242 2.626-6.956q.809-4.07.809-9.17v-10.94c0-3.327-.27-6.37-.809-9.112-.54-2.756-1.42-5.084-2.626-7.012-1.207-1.914-2.74-3.414-4.586-4.456q-2.767-1.586-6.771-1.586t-6.771 1.586c-1.845 1.057-3.379 2.542-4.585 4.456-1.207 1.913-2.087 4.256-2.626 7.012-.54 2.757-.81 5.799-.81 9.113v10.94c0 3.4.27 6.441.81 9.17.539 2.713 1.419 5.041 2.626 6.955s2.74 3.413 4.585 4.456q2.768 1.585 6.771 1.585M520.292 1.79h37.575v7.013h-29.569V28.67h16.41c5.976 0 10.575 1.728 13.784 5.185 3.208 3.456 4.812 8.412 4.812 14.882s-1.604 11.426-4.812 14.882c-3.209 3.457-7.808 5.185-13.784 5.185h-24.416V1.79m24.217 59.987c3.18 0 5.692-.843 7.538-2.543q2.768-2.55 2.768-8.012v-4.985q0-5.462-2.768-8.012c-1.846-1.7-4.358-2.542-7.538-2.542h-16.211V61.79h16.211zM611.1 8.803h-18.695V20.9c0 6.913-.213 12.826-.625 17.753-.412 4.928-1.008 9.084-1.76 12.483-.767 3.4-1.718 6.17-2.868 8.356-1.15 2.17-2.441 3.999-3.904 5.47-1.334 1.342-2.824 2.313-4.485 2.928s-3.62.914-5.92.914h-2.952V61.79h6.388c1.462-1.4 2.725-3.114 3.761-5.142s1.902-4.613 2.57-7.77c.667-3.17 1.164-7.055 1.476-11.654.312-4.613.483-10.24.483-16.896V1.805h34.523v66.984h-8.006V8.803zM635.232 68.775V1.79h41.011v7.013h-33.005v22.552h31.855v7.013h-31.855V61.79h33.005v7.013h-41.011zM725.458 38.354h-25.949v30.421h-8.006V1.79h8.006v29.565h25.949V1.79h8.006v66.985h-8.006zM769.72 69.932c-4.075 0-7.567-.785-10.491-2.357-2.924-1.57-5.337-3.827-7.254-6.77-1.902-2.942-3.307-6.555-4.202-10.84-.894-4.285-1.334-9.184-1.334-14.682s.44-10.312 1.334-14.64c.895-4.313 2.286-7.955 4.202-10.897 1.902-2.942 4.33-5.2 7.254-6.77 2.924-1.571 6.416-2.357 10.491-2.357s7.566.786 10.49 2.357c2.924 1.57 5.337 3.828 7.254 6.77 1.902 2.942 3.307 6.57 4.202 10.897.894 4.313 1.334 9.198 1.334 14.64 0 5.441-.44 10.397-1.334 14.682s-2.286 7.898-4.202 10.84c-1.902 2.943-4.33 5.2-7.254 6.77-2.924 1.572-6.431 2.357-10.49 2.357m0-7.013q4.002 0 6.771-1.585c1.845-1.057 3.364-2.542 4.585-4.456 1.206-1.914 2.087-4.242 2.626-6.956q.809-4.07.809-9.17v-10.94c0-3.327-.27-6.37-.809-9.112-.539-2.756-1.42-5.084-2.626-7.012-1.207-1.914-2.74-3.414-4.585-4.456q-2.769-1.586-6.771-1.586-4.003 0-6.772 1.586c-1.845 1.057-3.378 2.542-4.585 4.456-1.206 1.913-2.087 4.256-2.626 7.012-.539 2.757-.809 5.799-.809 9.113v10.94c0 3.4.27 6.441.809 9.17.539 2.713 1.42 5.041 2.626 6.955 1.207 1.914 2.74 3.413 4.585 4.456q2.769 1.585 6.772 1.585" /></symbol><symbol fill="none" viewBox="0 0 43 43" id="youtube"><g clip-path="url(#youtube_a)"><path fill="#E60000" d="M37.136 0H5.864A5.864 5.864 0 0 0 0 5.864v31.272A5.864 5.864 0 0 0 5.864 43h31.272A5.864 5.864 0 0 0 43 37.136V5.864A5.864 5.864 0 0 0 37.136 0" /><path fill="#fff" d="M34.31 15.035c-.538-1.654-2.317-2.656-3.954-2.885a84 84 0 0 0-17.713 0c-1.636.23-3.42 1.221-3.953 2.885a33.6 33.6 0 0 0 0 12.932c.538 1.652 2.317 2.656 3.954 2.885a84 84 0 0 0 17.713 0c1.637-.23 3.42-1.221 3.953-2.885.838-4.27.838-8.662 0-12.932M18.285 26.65v-10.3l8.385 5.15z" /></g><defs></defs></symbol><clipPath id="youtube_a"><path fill="#fff" d="M0 0h43v43H0z" /></clipPath></defs></svg>